<svg xmlns="http://www.w3.org/2000/svg" viewBox="0 0 800.01 176.05"><defs><style>.cls-1,.cls-2{fill:#7c7c7c;}.cls-2{stroke:#000;stroke-miterlimit:10;}.cls-3{font-size:24px;font-family:Quicksand-Regular, Quicksand;}.cls-4{fill:#75a5ea;}</style></defs><g id="gene"><rect class="cls-1" x="0.01" y="34.82" width="800" height="60"/><line class="cls-2" y1="140.26" x2="799.88" y2="142.38"/><text class="cls-3" transform="translate(0.19 169.02)">0</text><text class="cls-3" transform="translate(750.12 170.87)">1600</text><rect class="cls-4" x="25.51" y="34.82" width="15" height="60"/><rect class="cls-4" x="52.01" y="34.82" width="52" height="60"/><rect class="cls-4" x="200.01" y="34.82" width="32" height="60"/><rect class="cls-4" x="261.51" y="34.82" width="53" height="60"/><rect class="cls-4" x="397.01" y="34.82" width="28" height="60"/><rect class="cls-4" x="479.01" y="34.82" width="28" height="60"/><rect class="cls-4" x="544.01" y="34.82" width="28" height="60"/><rect class="cls-4" x="608.51" y="34.82" width="25" height="60"/><rect class="cls-4" x="709.51" y="34.82" width="15" height="60"/><text class="cls-3" transform="translate(25.27 20.59)">V1</text><text class="cls-3" transform="translate(63.28 20.8)">V2</text><text class="cls-3" transform="translate(200.28 20.8)">V3</text><text class="cls-3" transform="translate(261.28 20.8)">V4</text><text class="cls-3" transform="translate(397.28 20.8)">V5</text><text class="cls-3" transform="translate(479.28 20.8)">V6</text><text class="cls-3" transform="translate(544.28 20.8)">V7</text><text class="cls-3" transform="translate(608.28 20.8)">V8</text><text class="cls-3" transform="translate(709.92 20.4)">V9</text></g></svg>