<svg xmlns="http://www.w3.org/2000/svg" viewBox="0 0 473.62 645.11"><defs><style>.cls-1{fill:#754c29;}.cls-2{fill:#875932;}.cls-3{fill:#684422;}.cls-4{fill:#8c6037;}.cls-5{fill:#603f1e;}.cls-6{fill:#6c4625;}.cls-7{fill:#5f3e1c;}.cls-8{fill:#825530;}.cls-9{fill:#7e532e;}.cls-10{fill:#784e2b;}.cls-11{fill:#9c7139;}.cls-12{fill:#946b35;}.cls-13{fill:none;}.cls-14{fill:#916934;}.cls-15{fill:#855c33;}.cls-16{fill:#96d9ec;}.cls-17{fill:#b6e4fa;}.cls-18{fill:#de598b;}.cls-19{fill:#e8a3c2;}</style></defs><g id="sediment"><polygon class="cls-1" points="438.21 563.38 5.63 563.38 4.12 584.67 2.92 587.59 5.37 593.47 5.42 616.73 3.17 618.65 1.29 625.59 5.63 630.2 5.63 634.76 7.4 638.81 10.97 639.54 57.13 644.7 80.94 639.54 101.58 639.54 123.61 643.3 139.63 644.7 152.9 639.54 170.91 639.54 210.11 643.3 384.21 639.54 396.48 639.54 408.83 644.01 418.65 645.11 438.21 639.54 438.21 563.38"/><path class="cls-2" d="M507.64,703.49c6.67-6.7,16.89-15.1,25.75-16.1,12.2-1.38,24.5-1.53,36.68-3.13s24.42-4.74,35.08-11.64c9.23-6,17-14.56,26.21-20.52,6.46-4.18,13.6-7.36,17.55-14.52-9.83,2.68-18.2,9.73-27,15.27-31.48,19.72-69.06,20.36-104.86,24-18.75,1.92-39,5.46-52.26,20.7l.36.82,3.08.74Z" transform="translate(-457.7 -59.59)"/><path class="cls-3" d="M597.33,704.3c3.14-4.62,10.35-12.19,15-14.7a58.06,58.06,0,0,0,14.17-10.81c2.61-2.7,5-5.66,7.54-8.44,14.75-16.12,171.79-25.46,191.47-31.84-5.28-.88-9.79.19-15.11-.08-13.07-.67-162.81,7.3-173.12,16.45s-19.78,19.88-31.55,26.38C593.5,688,570.8,691,559.27,699.14l22,3.75Z" transform="translate(-457.7 -59.59)"/><path class="cls-2" d="M727.78,702.37c2.45-12.44,87-28.11,94-38.08,8.28-11.84,21.31-17.69,32.39-26.07,6.38-4.83,2.09-9.5-3.06-4.07-4.12,4.34-7.3,8.49-12.41,11.74-9.66,6.16-20.49,9.46-30.39,15-9.5,5.35-155.58,12.86-162.52,22-4.53,5.93-8.55,12.37-14.56,16.25l36.56,3.75Z" transform="translate(-457.7 -59.59)"/><path class="cls-3" d="M835.45,699.8a57.12,57.12,0,0,1,13.21-27.95c6.46-7.3,14.24-12.88,22.14-18,5.26-3.44,10.66-6.75,15.21-11.31a30,30,0,0,0,9-17.37C887.8,634,877.62,638.74,868,643.88c-11.08,5.94-21.87,12.82-31.15,21.9s-17.26,22.88-21.23,36.05Z" transform="translate(-457.7 -59.59)"/><path class="cls-3" d="M463.13,672.77c13.1-17.43,34.35-24.12,54.46-25.92s40.6,0,60.25-5.17c1.24-.32,2.63-.81,3.2-2.1s.23-2.28-1-2c-30,7.59-61.2,6-91.95,7.44-9.26.42-18.27.32-24.74,7.86l-3.18,1.77,3,8.09-1.07.75v2.63l1.07,1.68Z" transform="translate(-457.7 -59.59)"/><polygon class="cls-4" points="5.63 563.38 0 571.64 9.12 582.37 24.66 574.97 5.63 563.38"/><polygon class="cls-4" points="4.12 584.67 2.92 587.59 6.7 588.95 4.12 584.67"/><polygon class="cls-5" points="9.12 582.37 0 571.64 1.4 580.18 6.7 588.95 6.89 588.96 9.12 582.37"/><polygon class="cls-5" points="2.92 587.59 6.89 588.96 5.37 593.47 2.92 587.59"/><polyline class="cls-4" points="5.37 593.47 10.1 596.76 3.48 597.88 2.46 595.09 5.37 593.47"/><polygon class="cls-4" points="5.42 616.73 11.62 617.84 7.98 619.98 3.17 618.65 5.42 616.73"/><polygon class="cls-3" points="11.62 617.84 9.15 626.48 7.93 626.48 7.98 619.98 11.62 617.84"/><polygon class="cls-5" points="7.93 626.48 1.29 625.59 5.63 630.2 9.15 626.48 7.93 626.48"/><polygon class="cls-3" points="24.66 574.97 10.1 596.76 5.37 593.47 9.12 582.37 24.66 574.97"/><path class="cls-2" d="M895.84,663.42a2.88,2.88,0,0,1-1.34.47c-5.51.93-11,2.18-16.13,4.74a28.55,28.55,0,0,0-12.62,12c-2.91,5.55-4.71,14.32-5.46,20.73l6.24,2.26,9.81,1.1,6.38-1.82c-1-2.57-4.35-9-4.33-11.86.05-5.36,1.56-10.83,4.8-14.72s8.22-5.9,12.72-4.52l-2.22-5.39,2.22-3Z" transform="translate(-457.7 -59.59)"/><polygon class="cls-6" points="469.66 541.72 438.21 563.38 438.21 639.54 451.33 632.56 455.2 627.78 464.82 623.79 469.66 617.78 473.63 589.62 469.66 563.43 469.66 541.72"/><polygon class="cls-6" points="438.21 579.1 434.17 590.63 436.19 598.26 438.21 598.26 438.21 579.1"/><polygon class="cls-7" points="434.17 590.63 439.67 591.26 440.95 585.09 438.21 579.1 434.17 590.63"/><polygon class="cls-8" points="434.17 590.63 436.19 598.26 438.21 598.26 439.67 591.26 434.17 590.63"/><polygon class="cls-1" points="438.17 623.79 443.01 628.23 441.87 637.76 438.74 641.32 433.3 641.32 430.97 639.54 438.17 623.79"/><path class="cls-9" d="M917.25,612.07l-.83.26-.18.45c-3.49,7.82-7,15.7-9.14,24.13-1.24,4.84-2,9.86-3.89,14.43a59,59,0,0,1-6.74,11.35,3.61,3.61,0,0,1-.56.66l-2.22,3,2.22,5.39.14,0,3.06-2.6a17.77,17.77,0,0,0,3.45-3.53c3.11-4.63,2-11.3,3.78-16.75.82-2.48,2.23-4.63,3.29-7,3-6.48,3.19-14.12,5.6-20.88C916.27,618.17,917.74,615.17,917.25,612.07Z" transform="translate(-457.7 -59.59)"/><polygon class="cls-10" points="438.21 613.79 440.16 614.69 440.16 619.24 438.21 622.48 436.19 619.61 438.21 613.79"/><polygon class="cls-2" points="438.21 613.79 435.82 614.85 434.93 619.61 436.19 619.61 438.21 613.79"/><polygon class="cls-7" points="434.93 619.61 438.21 622.48 436.19 619.61 434.93 619.61"/><path class="cls-11" d="M464,612.51c3.63-2,3.64-4.69,8.43-5.92,3.79-1,6.5-7.08,10.53-7.85,5.67-1.07,8.29-4.82,11.91-5.53a18.54,18.54,0,0,1,8.31.23s6.79.31,10.32,0c27.21-2.38,29.55-1.36,56.79.46,11.46.77,22.91,2.28,34.39,2,19.52-.43,38.7-6,58.2-7,15.17-.82,167.87,1.09,183.06,1.33,27,.44,55-4.46,80.75,4.56,1.3,4-1.82,8.82-4.51,11.76s-6.29,4.54-9.81,5.94c-21.62,8.57-44.48,12.16-67.15,15.71-32.17,5-202.1,5.56-234.57,6.12-21.35.37-42.56,3.3-63.88,1.73l-58.32-4.29c-5.7-.42-11.61-.91-16.63-4S464,612.51,464,612.51Z" transform="translate(-457.7 -59.59)"/><path class="cls-12" d="M569.45,607.91c.57,1.81,4,2,5.68,2.11a26.1,26.1,0,0,0,14.06-2.67c2.62-1.3,5.37-3.08,8.14-2.31a21.57,21.57,0,0,0-7.16-.45c-6.36.69-12.52,4.23-18.86,3.27a3.18,3.18,0,0,0-1.86,0" transform="translate(-457.7 -59.59)"/><path class="cls-12" d="M636,608.92a33.67,33.67,0,0,0,15.95,1.42c9.53-1.47,154.94-3.93,164.51-2.75,8.9,1.09,18.45,4.86,27.3,3.27q-7.94-3-16-5.63c-5.26-1.73-10.67-3.37-16.14-3.05-7.62.43-152.2,4.59-159.66,6.43a50.55,50.55,0,0,1-15.75,1" transform="translate(-457.7 -59.59)"/><path class="cls-12" d="M885.18,600.77a8,8,0,0,1-3.86,5.93,12.59,12.59,0,0,1-6.55,1.53,25.06,25.06,0,0,1-7.43-1.16c-.37-.12-.81-.35-.81-.78s.5-.69.91-.78l16.86-3.82" transform="translate(-457.7 -59.59)"/><path class="cls-12" d="M513.12,602.67l-16.66,1.48a2.77,2.77,0,0,0-1.84.62c-.88.88-.53,2.65.38,3.49a5.63,5.63,0,0,0,3.34,1.14l6.83.75c7.36.82,15.35,1.47,21.58-3l-9.65-2.85a12.67,12.67,0,0,1-4.13-1.8" transform="translate(-457.7 -59.59)"/><path class="cls-13" d="M887.57,623.59c.07.56,3.77-1.92,8.87-5.68-3,.88-6.09,1.7-9.15,2.45A27,27,0,0,0,887.57,623.59Z" transform="translate(-457.7 -59.59)"/><path class="cls-14" d="M890.59,602.31c0,9.29-3.49,10.68-3.3,18.05,3.06-.75,6.12-1.57,9.15-2.45,9.56-7,30.69-16.6,30.2-23.11-12-4.06-25.65-5.29-38.23-5.4C889.31,593.1,890.59,595.5,890.59,602.31Z" transform="translate(-457.7 -59.59)"/><path class="cls-4" d="M464,612.51l32.46,8.2c6.59,1.67,13.29,3.34,20,2.73,9.22-.85,17.89-6,27.13-6.32,10.49-.42,20.52,5.29,31,5.56,9,.23,17.74-3.55,26.73-4,5.26-.27,10.49.6,15.73,1.18,40,4.48,217.84-7.48,257.82-3.15,7.23.78,15.81,1.51,20.39-4.88,0,5.65.6,13.27.6,13.27a18.1,18.1,0,0,1-3.05,1.43C859,637.74,682.88,640.29,647.7,638.73q-50.18-2.22-100.39-.52c-23.51.8-47.5,2.18-70.11-5.17-4.31-1.4-10.72-6.44-13.87-10.07C463.33,623,462,617.14,464,612.51Z" transform="translate(-457.7 -59.59)"/><path class="cls-15" d="M895.37,623.64a7.53,7.53,0,0,0,.48,1.45,4.53,4.53,0,0,0,2,.37,19.07,19.07,0,0,0,6.53-3.55A170,170,0,0,0,926,602.77c.48-.51,1.34-1.46,1.34-1.46s.06-1.45,0-2c-.12-2.14-.34-3.67-.34-5.82-.76,3.32-3.2,6.9-6.14,7.69-2,.55-4.08-.67-6.16-.94-3.71-.48-7.17,2.06-10.06,4.73s-5.8,5.73-9.46,6.56A53.74,53.74,0,0,0,895.37,623.64Z" transform="translate(-457.7 -59.59)"/></g><g id="bubbles"><path class="cls-16" d="M582.06,253.09a3,3,0,1,1-3-3A3,3,0,0,1,582.06,253.09Z" transform="translate(-457.7 -59.59)"/><path class="cls-17" d="M580,251.09l.21.06.21.06a.9.9,0,0,1,.27.12,3.25,3.25,0,0,1,.3.26,1,1,0,0,1,.26.36,1.52,1.52,0,0,1,.19.43l.06.49a2.76,2.76,0,0,1-.07.49,1.09,1.09,0,0,1-.18.43,1.14,1.14,0,0,1-.24.35,3.31,3.31,0,0,1-.3.25,1.38,1.38,0,0,1-.51.21l-.2,0,.1-.18a2.61,2.61,0,0,0,.24-.42l.12-.26c.06-.08,0-.2.09-.3a.94.94,0,0,0,.06-.3c0-.1,0-.21,0-.31a2.43,2.43,0,0,0-.08-.61.71.71,0,0,0-.09-.28c0-.08-.06-.17-.1-.26a1,1,0,0,0-.14-.25l-.12-.19A1.14,1.14,0,0,1,580,251.09Z" transform="translate(-457.7 -59.59)"/><path class="cls-16" d="M566,203a3,3,0,1,1-3-3A3,3,0,0,1,566,203Z" transform="translate(-457.7 -59.59)"/><path class="cls-17" d="M564,201l.2.05.21.06a1.25,1.25,0,0,1,.27.12,3.47,3.47,0,0,1,.3.27.92.92,0,0,1,.26.35,1.72,1.72,0,0,1,.19.44c0,.16,0,.32.07.49a2.53,2.53,0,0,1-.08.48,1.12,1.12,0,0,1-.17.44,1.3,1.3,0,0,1-.25.35,2.1,2.1,0,0,1-.3.24,1.1,1.1,0,0,1-.51.21l-.19,0a1.41,1.41,0,0,1,.1-.18c0-.12.17-.23.24-.41s.07-.18.11-.27.05-.19.09-.29a1,1,0,0,0,.06-.3,1.62,1.62,0,0,0,0-.31,2.15,2.15,0,0,0-.08-.62.84.84,0,0,0-.09-.28,2,2,0,0,1-.09-.26,1.4,1.4,0,0,0-.15-.24l-.12-.19A1.66,1.66,0,0,1,564,201Z" transform="translate(-457.7 -59.59)"/><path class="cls-16" d="M524.34,114.63a5.21,5.21,0,1,1-5.2-5.22A5.21,5.21,0,0,1,524.34,114.63Z" transform="translate(-457.7 -59.59)"/><path class="cls-17" d="M520.82,111.2a3.08,3.08,0,0,1,.34.08l.38.11c.13.07.3.07.45.21a5,5,0,0,1,.51.45,1.73,1.73,0,0,1,.46.61,3.07,3.07,0,0,1,.32.74c0,.28.08.56.11.84a5.66,5.66,0,0,1-.12.84,3.38,3.38,0,0,1-.74,1.35,4.64,4.64,0,0,1-.5.42,2.18,2.18,0,0,1-.87.37,2.75,2.75,0,0,1-.34.06s.06-.12.17-.31a4.8,4.8,0,0,0,.41-.71,4.43,4.43,0,0,1,.2-.45c.1-.14.08-.35.15-.51a1.78,1.78,0,0,0,.1-.52,4.71,4.71,0,0,0,0-.54,4.1,4.1,0,0,0-.15-1,1.59,1.59,0,0,0-.15-.48l-.17-.45a1.66,1.66,0,0,0-.25-.41c-.08-.12-.15-.24-.2-.33S520.82,111.2,520.82,111.2Z" transform="translate(-457.7 -59.59)"/><path class="cls-16" d="M500.22,159.56a6.62,6.62,0,1,1-6.62-6.63A6.63,6.63,0,0,1,500.22,159.56Z" transform="translate(-457.7 -59.59)"/><path class="cls-17" d="M495.74,155.21a3,3,0,0,1,.43.1,4.71,4.71,0,0,1,.48.14,2,2,0,0,1,.58.26,6.49,6.49,0,0,1,.65.58,2,2,0,0,1,.58.78,4.18,4.18,0,0,1,.41.94c0,.35.1.7.14,1.06a6,6,0,0,1-.16,1.06,2.42,2.42,0,0,1-.39,1,2.31,2.31,0,0,1-.54.77,5.93,5.93,0,0,1-.64.54,2.88,2.88,0,0,1-1.11.46,2.74,2.74,0,0,1-.43.08l.22-.39a6.78,6.78,0,0,0,.52-.9,3.79,3.79,0,0,1,.26-.58c.12-.17.09-.44.18-.63a2.22,2.22,0,0,0,.13-.68,4.91,4.91,0,0,0,.06-.68,4.67,4.67,0,0,0-.19-1.34,1.69,1.69,0,0,0-.18-.6,5,5,0,0,1-.22-.58,2.65,2.65,0,0,0-.31-.52q-.16-.24-.27-.42A3.83,3.83,0,0,1,495.74,155.21Z" transform="translate(-457.7 -59.59)"/><path class="cls-16" d="M528.83,76.94a5.72,5.72,0,1,1-5.71-5.72A5.73,5.73,0,0,1,528.83,76.94Z" transform="translate(-457.7 -59.59)"/><path class="cls-17" d="M525,73.18a3.06,3.06,0,0,1,.38.09,4.09,4.09,0,0,1,.41.12,1.57,1.57,0,0,1,.5.23,4.64,4.64,0,0,1,.56.48,1.85,1.85,0,0,1,.5.68,3.67,3.67,0,0,1,.35.81c.05.31.09.62.13.92a5.36,5.36,0,0,1-.14.92,2.23,2.23,0,0,1-.33.83,2.46,2.46,0,0,1-.47.66,5.42,5.42,0,0,1-.56.46,2.55,2.55,0,0,1-.95.4,2.73,2.73,0,0,1-.38.07l.19-.34a6.31,6.31,0,0,0,.45-.77c.07-.17.14-.35.22-.51s.09-.38.16-.55a2.23,2.23,0,0,0,.12-.57,5.82,5.82,0,0,0,0-.6,4.58,4.58,0,0,0-.17-1.16,1.33,1.33,0,0,0-.16-.51c-.07-.16-.12-.33-.18-.5a2.69,2.69,0,0,0-.28-.46,3.9,3.9,0,0,1-.22-.36C525,73.31,525,73.18,525,73.18Z" transform="translate(-457.7 -59.59)"/><path class="cls-16" d="M598.46,155.2a6,6,0,1,1-6-6A6,6,0,0,1,598.46,155.2Z" transform="translate(-457.7 -59.59)"/><path class="cls-17" d="M594.41,151.26a20.08,20.08,0,0,1,.82.22,1.75,1.75,0,0,1,.53.24,5.17,5.17,0,0,1,.58.51,2,2,0,0,1,.53.71,3.59,3.59,0,0,1,.37.85c0,.33.09.64.13,1a5.19,5.19,0,0,1-.15,1,2.09,2.09,0,0,1-.35.86,2.16,2.16,0,0,1-.49.69,4.09,4.09,0,0,1-.58.48,2.36,2.36,0,0,1-1,.42l-.39.08s.07-.14.2-.36a6,6,0,0,0,.47-.81,4.09,4.09,0,0,1,.23-.52c.12-.16.09-.4.17-.58a2.44,2.44,0,0,0,.12-.61c0-.2.06-.41,0-.61a4.55,4.55,0,0,0-.17-1.22,1.69,1.69,0,0,0-.17-.55,3.84,3.84,0,0,1-.19-.51c0-.18-.22-.33-.29-.48s-.18-.27-.24-.37S594.41,151.26,594.41,151.26Z" transform="translate(-457.7 -59.59)"/><path class="cls-16" d="M597.17,68.29a8.68,8.68,0,1,1-8.67-8.7A8.69,8.69,0,0,1,597.17,68.29Z" transform="translate(-457.7 -59.59)"/><path class="cls-17" d="M591.29,62.58a4.87,4.87,0,0,1,.58.13l.62.19a2.33,2.33,0,0,1,.76.35,6.83,6.83,0,0,1,.86.74,2.91,2.91,0,0,1,.75,1,5.07,5.07,0,0,1,.54,1.24c.06.47.13.93.19,1.4a8,8,0,0,1-.21,1.4,3.17,3.17,0,0,1-.51,1.24,3.39,3.39,0,0,1-.71,1,9.72,9.72,0,0,1-.84.7,3.76,3.76,0,0,1-1.46.61,5.2,5.2,0,0,1-.57.1l.29-.51a9.52,9.52,0,0,0,.69-1.18,7.27,7.27,0,0,1,.33-.76c.17-.23.13-.58.25-.84a2.86,2.86,0,0,0,.17-.88,8.65,8.65,0,0,0,.08-.89,7.4,7.4,0,0,0-.25-1.76,2.59,2.59,0,0,0-.25-.8c-.1-.23-.19-.49-.27-.74a3.71,3.71,0,0,0-.42-.7,4.84,4.84,0,0,1-.35-.55C591.38,62.78,591.29,62.58,591.29,62.58Z" transform="translate(-457.7 -59.59)"/><path class="cls-16" d="M833.92,468a3,3,0,1,1-3-3A3,3,0,0,1,833.92,468Z" transform="translate(-457.7 -59.59)"/><path class="cls-17" d="M831.86,466l.2,0,.22.06a.9.9,0,0,1,.27.12,3.25,3.25,0,0,1,.3.26,1,1,0,0,1,.26.36,2.08,2.08,0,0,1,.19.43l.06.49a2.63,2.63,0,0,1-.07.49,1.09,1.09,0,0,1-.18.43,1.14,1.14,0,0,1-.24.35l-.3.25a1.52,1.52,0,0,1-.51.21l-.2,0,.1-.18a3.45,3.45,0,0,0,.24-.41c0-.09.07-.18.12-.27s0-.2.08-.29a.81.81,0,0,0,.06-.31,1.55,1.55,0,0,0,0-.31,2,2,0,0,0-.09-.61.58.58,0,0,0-.08-.28c0-.08-.06-.17-.1-.26a1.23,1.23,0,0,0-.14-.25l-.13-.19C831.89,466,831.86,466,831.86,466Z" transform="translate(-457.7 -59.59)"/><path class="cls-16" d="M788.14,427.69a3,3,0,1,1-3-3A3,3,0,0,1,788.14,427.69Z" transform="translate(-457.7 -59.59)"/><path class="cls-17" d="M786.09,425.7l.2.05.22.06c.08,0,.18,0,.26.12a2.25,2.25,0,0,1,.31.26.9.9,0,0,1,.25.36,1.28,1.28,0,0,1,.19.43c0,.16.05.32.07.49a2.76,2.76,0,0,1-.07.49,1.27,1.27,0,0,1-.18.43,1,1,0,0,1-.25.35c-.1.1-.2.17-.29.25a1.52,1.52,0,0,1-.51.21l-.2,0,.1-.18a3.67,3.67,0,0,0,.24-.42c0-.09.07-.18.12-.27s0-.19.08-.29a.94.94,0,0,0,.06-.3,1.63,1.63,0,0,0,0-.31,2,2,0,0,0-.09-.61.93.93,0,0,0-.08-.28,2,2,0,0,1-.1-.26,1.5,1.5,0,0,0-.15-.25c0-.07-.08-.14-.12-.19Z" transform="translate(-457.7 -59.59)"/><path class="cls-16" d="M784.7,336.25A10.69,10.69,0,1,1,774,325.54,10.7,10.7,0,0,1,784.7,336.25Z" transform="translate(-457.7 -59.59)"/><path class="cls-17" d="M777.46,329.22a6.77,6.77,0,0,1,.71.16c.21.06.48.13.77.23a3.11,3.11,0,0,1,.94.43,11.5,11.5,0,0,1,1,.92,3.4,3.4,0,0,1,.93,1.26,6.37,6.37,0,0,1,.66,1.53l.24,1.72a10.68,10.68,0,0,1-.26,1.71,4.11,4.11,0,0,1-.63,1.54A4,4,0,0,1,781,340a11,11,0,0,1-1,.88,5.19,5.19,0,0,1-1.8.75,5.38,5.38,0,0,1-.7.12l.36-.64a10.4,10.4,0,0,0,.84-1.45,8.56,8.56,0,0,1,.42-.93c.2-.29.16-.71.3-1a3.23,3.23,0,0,0,.21-1.07,7.54,7.54,0,0,0-.21-3.27,3,3,0,0,0-.3-1,7.83,7.83,0,0,1-.34-.92c-.09-.33-.39-.59-.52-.86a6.33,6.33,0,0,1-.42-.67C777.57,329.47,777.46,329.22,777.46,329.22Z" transform="translate(-457.7 -59.59)"/><path class="cls-16" d="M822.52,237.28a7.7,7.7,0,1,1-7.69-7.71A7.71,7.71,0,0,1,822.52,237.28Z" transform="translate(-457.7 -59.59)"/><path class="cls-17" d="M817.31,232.22a5,5,0,0,1,.51.12,4.45,4.45,0,0,1,.55.16,2.26,2.26,0,0,1,.68.31,8.27,8.27,0,0,1,.76.66,2.37,2.37,0,0,1,.66.91,4.17,4.17,0,0,1,.48,1.1c.06.41.12.82.17,1.24a7.41,7.41,0,0,1-.18,1.24,3,3,0,0,1-.46,1.11,3,3,0,0,1-.63.89c-.25.23-.51.44-.75.62a3.33,3.33,0,0,1-1.29.54c-.32.07-.5.09-.5.09s.09-.17.26-.46a7.62,7.62,0,0,0,.6-1c.09-.23.19-.46.3-.68s.12-.5.22-.74a2.57,2.57,0,0,0,.15-.78c0-.26.08-.53.07-.79a6.18,6.18,0,0,0-.22-1.56,2,2,0,0,0-.22-.71,4.83,4.83,0,0,1-.24-.67,4.17,4.17,0,0,0-.38-.61,5,5,0,0,1-.3-.49C817.39,232.4,817.31,232.22,817.31,232.22Z" transform="translate(-457.7 -59.59)"/><path class="cls-16" d="M891.94,416.46a5.27,5.27,0,1,1-5.27-5.28A5.27,5.27,0,0,1,891.94,416.46Z" transform="translate(-457.7 -59.59)"/><path class="cls-17" d="M888.37,413a1.73,1.73,0,0,1,.35.08l.37.11a1.62,1.62,0,0,1,.47.21,5.06,5.06,0,0,1,.52.46,1.58,1.58,0,0,1,.46.62,3,3,0,0,1,.32.75l.12.85a6.21,6.21,0,0,1-.12.85,2,2,0,0,1-.32.75,1.72,1.72,0,0,1-.43.61,4.66,4.66,0,0,1-.51.43,2.27,2.27,0,0,1-.88.37l-.35.07s.06-.12.18-.32a6.13,6.13,0,0,0,.41-.72c.06-.15.13-.31.2-.46s.08-.34.15-.51a1.57,1.57,0,0,0,.11-.53,4.73,4.73,0,0,0,0-.54,4.19,4.19,0,0,0-.15-1.07,1.41,1.41,0,0,0-.15-.49,3.43,3.43,0,0,1-.16-.45,2.48,2.48,0,0,0-.26-.42l-.21-.34A3,3,0,0,1,888.37,413Z" transform="translate(-457.7 -59.59)"/><path class="cls-16" d="M868.76,369.83a3.59,3.59,0,1,1-3.59-3.6A3.59,3.59,0,0,1,868.76,369.83Z" transform="translate(-457.7 -59.59)"/><path class="cls-17" d="M866.33,367.47l.24,0,.26.08a.91.91,0,0,1,.32.15,2.25,2.25,0,0,1,.35.3,1.39,1.39,0,0,1,.31.42,2.39,2.39,0,0,1,.22.52c0,.19.06.38.08.57a3.36,3.36,0,0,1-.09.58,1.19,1.19,0,0,1-.21.52,1.43,1.43,0,0,1-.29.42,4.11,4.11,0,0,1-.35.29,1.67,1.67,0,0,1-.6.25l-.24,0s0-.08.12-.22a3.17,3.17,0,0,0,.29-.48,2.22,2.22,0,0,1,.14-.32c.06-.09,0-.23.09-.34a1.35,1.35,0,0,0,.08-.36c0-.12,0-.25,0-.38a2.51,2.51,0,0,0-.11-.72,1,1,0,0,0-.09-.33,1.66,1.66,0,0,1-.12-.31c0-.11-.13-.2-.17-.29a1.74,1.74,0,0,1-.15-.22Z" transform="translate(-457.7 -59.59)"/><path class="cls-16" d="M884.6,252.92a5.28,5.28,0,1,1-5.28-5.29A5.29,5.29,0,0,1,884.6,252.92Z" transform="translate(-457.7 -59.59)"/><path class="cls-17" d="M881,249.44l.36.09.38.11c.14.07.31.07.46.21a6.63,6.63,0,0,1,.52.46,1.63,1.63,0,0,1,.45.62,3,3,0,0,1,.33.75l.12.86a4.74,4.74,0,0,1-.13.84,1.83,1.83,0,0,1-.31.76,2.09,2.09,0,0,1-.43.61,5.84,5.84,0,0,1-.51.43,2.41,2.41,0,0,1-.89.37,2.69,2.69,0,0,1-.35.06l.18-.31a6.69,6.69,0,0,0,.42-.71,4,4,0,0,1,.2-.48c.1-.13.08-.34.15-.5a2,2,0,0,0,.11-.53,3.35,3.35,0,0,0,0-.54,3.86,3.86,0,0,0-.15-1.08,1.35,1.35,0,0,0-.15-.48c-.06-.14-.11-.3-.17-.46a2.22,2.22,0,0,0-.25-.42c-.09-.12-.15-.24-.21-.33S881,249.44,881,249.44Z" transform="translate(-457.7 -59.59)"/><path class="cls-16" d="M733.43,439.41a3,3,0,1,1-3-3A3,3,0,0,1,733.43,439.41Z" transform="translate(-457.7 -59.59)"/><path class="cls-17" d="M731.38,437.42a1.16,1.16,0,0,1,.2.05l.22.06a.61.61,0,0,1,.26.12,1.74,1.74,0,0,1,.3.26,1,1,0,0,1,.26.36,1.52,1.52,0,0,1,.19.43c0,.16,0,.32.07.49a4.13,4.13,0,0,1-.07.49,1.36,1.36,0,0,1-.18.43,1.16,1.16,0,0,1-.25.35,3.31,3.31,0,0,1-.3.25,1.41,1.41,0,0,1-.5.21l-.2,0a1.41,1.41,0,0,1,.1-.18c0-.12.17-.24.24-.41a2.33,2.33,0,0,1,.11-.28c.06-.07,0-.19.09-.29a.94.94,0,0,0,.06-.3c0-.1,0-.21,0-.31a2.43,2.43,0,0,0-.09-.61.71.71,0,0,0-.09-.28l-.09-.26a2.07,2.07,0,0,0-.15-.25l-.12-.19C731.41,437.49,731.38,437.42,731.38,437.42Z" transform="translate(-457.7 -59.59)"/><path class="cls-16" d="M739.86,380.11a3.54,3.54,0,1,1-3.54-3.55A3.55,3.55,0,0,1,739.86,380.11Z" transform="translate(-457.7 -59.59)"/><path class="cls-17" d="M737.46,377.78l.23.05.26.08a.93.93,0,0,1,.31.14,2.36,2.36,0,0,1,.35.31,1.12,1.12,0,0,1,.3.41,2.12,2.12,0,0,1,.22.51c0,.19.06.37.08.57a3.72,3.72,0,0,1-.08.57,1.62,1.62,0,0,1-.21.51,1.71,1.71,0,0,1-.29.4l-.34.29a1.67,1.67,0,0,1-.6.25l-.23,0s0-.08.12-.21a3.84,3.84,0,0,0,.28-.48,2.88,2.88,0,0,1,.13-.31,1.33,1.33,0,0,0,.1-.34,1.15,1.15,0,0,0,.07-.36,2.1,2.1,0,0,0,0-.36,2.46,2.46,0,0,0-.1-.72.8.8,0,0,0-.1-.32c0-.1-.07-.2-.11-.31a1.61,1.61,0,0,0-.17-.28l-.14-.23Z" transform="translate(-457.7 -59.59)"/><path class="cls-16" d="M719.9,307a3.2,3.2,0,1,1-3.2-3.2A3.21,3.21,0,0,1,719.9,307Z" transform="translate(-457.7 -59.59)"/><path class="cls-17" d="M717.74,304.9l.21.05.22.06c.09.05.2.05.29.13a3.73,3.73,0,0,1,.31.28.91.91,0,0,1,.28.37,2.37,2.37,0,0,1,.2.46c0,.17,0,.34.07.52a2.72,2.72,0,0,1-.08.51,1.1,1.1,0,0,1-.19.46,1.23,1.23,0,0,1-.26.37,3.56,3.56,0,0,1-.31.26,1.39,1.39,0,0,1-.53.22l-.21,0a1.94,1.94,0,0,1,.1-.19c.06-.13.18-.24.26-.43a1.18,1.18,0,0,1,.12-.28c.06-.09,0-.22.09-.31a1.2,1.2,0,0,0,.06-.32,1.84,1.84,0,0,0,0-.33,2.37,2.37,0,0,0-.09-.65.88.88,0,0,0-.09-.3c0-.08-.07-.18-.11-.27a1.35,1.35,0,0,0-.15-.26l-.13-.2Z" transform="translate(-457.7 -59.59)"/><path class="cls-16" d="M739.19,234.07a10.84,10.84,0,1,1-10.83-10.86A10.85,10.85,0,0,1,739.19,234.07Z" transform="translate(-457.7 -59.59)"/><path class="cls-17" d="M731.85,226.94a6.12,6.12,0,0,1,.72.17,5.81,5.81,0,0,1,.78.23,2.84,2.84,0,0,1,.95.43,9.6,9.6,0,0,1,1.07.94,3.46,3.46,0,0,1,.94,1.27,6.32,6.32,0,0,1,.67,1.55l.24,1.74A10.12,10.12,0,0,1,737,235a4.08,4.08,0,0,1-.64,1.55,4,4,0,0,1-.89,1.25,10,10,0,0,1-1,.89,5,5,0,0,1-1.82.76c-.45.1-.71.13-.71.13s.14-.24.36-.65a12.31,12.31,0,0,0,.86-1.46,9.27,9.27,0,0,1,.42-1c.21-.29.16-.71.3-1a3.71,3.71,0,0,0,.22-1.1,8.19,8.19,0,0,0,.09-1.12,7.63,7.63,0,0,0-.31-2.19,2.87,2.87,0,0,0-.3-1,9.56,9.56,0,0,1-.35-.94,4.92,4.92,0,0,0-.52-.86,7.91,7.91,0,0,1-.43-.68C732,227.19,731.85,226.94,731.85,226.94Z" transform="translate(-457.7 -59.59)"/><path class="cls-16" d="M788,163.76a3,3,0,1,1-3-3A3,3,0,0,1,788,163.76Z" transform="translate(-457.7 -59.59)"/><path class="cls-17" d="M786,161.76l.2.05.22.06a1.19,1.19,0,0,1,.26.12,3.47,3.47,0,0,1,.3.27.83.83,0,0,1,.26.35,1.58,1.58,0,0,1,.19.44c0,.16.05.32.07.49a3.7,3.7,0,0,1-.07.48,1.32,1.32,0,0,1-.18.44,1.3,1.3,0,0,1-.25.35,2.1,2.1,0,0,1-.3.24,1.12,1.12,0,0,1-.5.21l-.2,0a1.41,1.41,0,0,1,.1-.18c0-.12.17-.23.24-.41s.07-.18.11-.27.05-.19.09-.29a1,1,0,0,0,.06-.3,1.62,1.62,0,0,0,0-.31,2.15,2.15,0,0,0-.08-.62.84.84,0,0,0-.09-.28c0-.08-.06-.17-.1-.26a1,1,0,0,0-.14-.24l-.12-.19A1.66,1.66,0,0,1,786,161.76Z" transform="translate(-457.7 -59.59)"/></g><g id="coral"><path class="cls-18" d="M814.15,384.48c2.13-9.21,5.48-19.76,16-23.67,5.6-2.08,12.28-1.79,17.66-4.22,8.87-4,10.77-13.52,11.7-21.72l6-53.08c.55-4.94-1.62-12.08-7.63-11.14-3.16.5-4.9,3.22-5.89,5.7-6,14.93-4.75,36.19-10.87,51.08-2.43,5.92-8,13.07-14.21,9.43-13.38-7.8-3.58-36.48-1.23-41.58,10.51-22.82,12.58-50.21,14.18-79.61.17-3.15.28-6.47-1.54-9.27s-6.26-4.72-9.72-3.26c-2.46,1-3.61,3.36-4.48,5.5a94.41,94.41,0,0,0-6.93,39.66c.18,4.13.63,8.37-.87,12.33a12.24,12.24,0,0,1-10.61,7.86,12.38,12.38,0,0,1-11.91-8.28c-1.48-4.43-2.79-12.51-2.39-17.09,1.48-16.71,5.55-26.41,3.57-41.25-.67-5.05-3.89-11.58-10.09-10.82-4.78.59-6.75,5.21-7.75,9-7,26.73-13.84,55.18-2.17,80.8,3.63,7.95,8.94,15.36,12.26,23.39,6.65,16.08,4.9,33.55,2.77,50.42-2.18,17.31-1.89,18.68-4.7,35.92-.69,4.27-2.92,9.69-8.23,9.69s-7.56-5.62-8.13-10c-3.62-28.16-10-40.43-13.64-68.59-.67-5.16-5.08-12.14-10.76-9.77a7.23,7.23,0,0,0-3.81,4.28c-8.27,22-3.5,44.53,2.66,66.5s23,45.73,11.14,66.11c-2.71,4.67-15.51,11.92-21.75,12.91-3.81.6-6.74-1.43-9.31-4,.52-1.61,1-3.26,1.51-4.94,2.8-9.88,5-20.64-.25-29.87-2.28-4-7.4-8-12.61-6.57s-6.39,6.95-6.92,11.44a98.75,98.75,0,0,1-6.66,25.67c-1.42,3.5-4.23,7.6-8.76,7.35-4.1-.24-6.33-3.9-7.73-7-4.54-10.14-9.1-21.34-4.46-31.45,2.54-5.53,7.58-10.05,10.82-15.33,7.56-12.35,21.21-63.08,21.7-82.76.94-37.76-14.31-50.81-21.38-47.75-7.43,4,2.37,19.92-3,59.42-1.63,11.95-11.37,49.25-21.15,58.27a5.76,5.76,0,0,1-3.89,1.86c-2.38,0-3.71-2.21-4.45-4.05-5.83-14.55-7.71-42-5.76-57.24,1.52-11.84,8-10.35,10.51-22.08,6.75-31.59.78-65.11-2.46-97.07a8.24,8.24,0,0,0-1.53-4.75c-2.26-2.65-7.39-2.72-10.68-.92a14,14,0,0,0-6.52,7.9c-7.39,22.22,15.14,58.72-5.49,89.38-4.41,1.23-9.26-1.52-11.16-5s-1.69-7.39-1.72-11.17a75.67,75.67,0,0,0-4.17-23.86c-1.74-5-6.19-11-12.5-9.95-5.68,1-7.34,6.86-7.32,11.57a66.27,66.27,0,0,0,4.52,23.67c1.17,3,2.59,6.17,1.94,9.3a7.23,7.23,0,0,1-8.1,5.36c-2.87-.57-4.57-2.91-5.88-5.06-11.83-19.48-17.69-41.07-29.6-60.52-2.14-3.49-5.17-7.31-10-7.78A10.31,10.31,0,0,0,540,240.28c-1.35,3.64-.52,7.55.43,11.28C544.64,268,551,284,558.36,299.61c5.1,10.77,13.06,23.49,22.07,32.42,7.73,7.65,22.18,4.32,27.37,8.08,9.24,6.71,14.33,29.28,15.33,39.3s0,20.22,2.64,30.06c2.77,10.49,9.5,20.35,9.92,31.08.16,4.08-1.56,9.08-6.47,10-2.22.41-39.31-3.17-45.89-53.14-1.22-9.29-1.8-20.08-11.08-25.61a10.37,10.37,0,0,0-6.14-1.66c-5.42.53-7.05,6.19-7.25,10.61-.77,16.95-.2,34.16,5.58,50.46s17.24,31.75,34.63,41.16c16.37,8.86,56.12,14.43,61.56,32.18,5.74,18.73,8,74.37,5,80.72s-2.52,16,1.57,22c7,10.08,24,11.46,38.2,10.93a34.84,34.84,0,0,0,8.94-1.16c8.92-.07,18.52-2.07,22.77-5.58,5.11-4.22,4.26-9.25,5-15.14,2-15.12-43.93-64-14.69-84.67,21.37-15.1,54-11.91,80.5-20.1,7.12-2.2,14-5.3,18.91-10,4-3.87,6.46-8.63,8.73-13.34a296.12,296.12,0,0,0,24.88-76.53c.66-3.7.94-8.1-2.58-10.51-3.37-2.3-8.78-1.42-12,1s-4.85,5.91-6.26,9.29a235.12,235.12,0,0,0-12.94,41.55c-2.08,9.85-5,21.47-16.32,25.42a10.89,10.89,0,0,1-7.33.29c-4.61-1.81-4.37-7.12-3.43-11.2Z" transform="translate(-457.7 -59.59)"/><path class="cls-19" d="M552.54,251.4a1.66,1.66,0,0,1-1-.34l-5.67-4.45a1,1,0,0,1,0-1.7,1.74,1.74,0,0,1,2.1,0l5.67,4.45a1.06,1.06,0,0,1,0,1.71A1.71,1.71,0,0,1,552.54,251.4Z" transform="translate(-457.7 -59.59)"/><path class="cls-19" d="M551.87,262.51a1.63,1.63,0,0,1-1.18-.47,41.89,41.89,0,0,0-6.83-5.73,1.06,1.06,0,0,1-.19-1.7,1.74,1.74,0,0,1,2.09-.15,45,45,0,0,1,7.28,6.1,1.06,1.06,0,0,1-.26,1.69A1.63,1.63,0,0,1,551.87,262.51Z" transform="translate(-457.7 -59.59)"/><path class="cls-19" d="M560.11,266.06a1.4,1.4,0,0,1-1.47-1.09l-1-8.18a1.3,1.3,0,0,1,1.33-1.32,1.43,1.43,0,0,1,1.62,1.08l1,8.19a1.3,1.3,0,0,1-1.33,1.31Z" transform="translate(-457.7 -59.59)"/><path class="cls-19" d="M564.33,282a1.63,1.63,0,0,1-1.13-.42,65.45,65.45,0,0,0-9.76-7.66,1.05,1.05,0,0,1-.25-1.69,1.74,1.74,0,0,1,2.09-.2,68.23,68.23,0,0,1,10.18,8,1,1,0,0,1-.17,1.69A1.64,1.64,0,0,1,564.33,282Z" transform="translate(-457.7 -59.59)"/><path class="cls-19" d="M572.3,284.13a1.41,1.41,0,0,1-1.47-1.06l-1.57-10.32a1.29,1.29,0,0,1,1.29-1.35,1.43,1.43,0,0,1,1.65,1.05l1.58,10.33a1.29,1.29,0,0,1-1.3,1.34Z" transform="translate(-457.7 -59.59)"/><path class="cls-19" d="M571.32,300.49a1.71,1.71,0,0,1-.88-.24,89.62,89.62,0,0,1-10.75-7.46,1,1,0,0,1,0-1.7,1.73,1.73,0,0,1,2.09,0,87.84,87.84,0,0,0,10.41,7.22,1.06,1.06,0,0,1,.33,1.68A1.63,1.63,0,0,1,571.32,300.49Z" transform="translate(-457.7 -59.59)"/><path class="cls-19" d="M579.81,303.48a1.36,1.36,0,0,1-1.48-1.2v-5.59a1.52,1.52,0,0,1,3,0v5.59A1.37,1.37,0,0,1,579.81,303.48Z" transform="translate(-457.7 -59.59)"/><path class="cls-19" d="M579.4,318.9a1.61,1.61,0,0,1-1.17-.47A36.09,36.09,0,0,0,573,314a1,1,0,0,1-.15-1.69,1.71,1.71,0,0,1,2.09-.13,38.22,38.22,0,0,1,5.65,4.81,1.06,1.06,0,0,1-.27,1.69A1.69,1.69,0,0,1,579.4,318.9Z" transform="translate(-457.7 -59.59)"/><path class="cls-19" d="M592.16,323.66a1.51,1.51,0,0,1-1.39-.78l-4-8.53a1.15,1.15,0,0,1,.87-1.55,1.6,1.6,0,0,1,1.91.7l4,8.53a1.16,1.16,0,0,1-.87,1.55A1.57,1.57,0,0,1,592.16,323.66Z" transform="translate(-457.7 -59.59)"/><path class="cls-19" d="M600.9,329.31a1.41,1.41,0,0,1-1.46-1l-1-5.17a1.26,1.26,0,0,1,1.23-1.38,1.49,1.49,0,0,1,1.7,1l1,5.17a1.26,1.26,0,0,1-1.24,1.38Z" transform="translate(-457.7 -59.59)"/><path class="cls-19" d="M611.2,315.38a1.68,1.68,0,0,1-.7-.14l-9.21-4a1.1,1.1,0,0,1-.61-1.63,1.66,1.66,0,0,1,2-.5l9.21,4a1.09,1.09,0,0,1,.61,1.63A1.58,1.58,0,0,1,611.2,315.38Z" transform="translate(-457.7 -59.59)"/><path class="cls-19" d="M609.48,297a1.43,1.43,0,0,1-1.46-1,31.22,31.22,0,0,1-.5-8.89,1.41,1.41,0,0,1,1.59-1.11,1.32,1.32,0,0,1,1.38,1.29,28.73,28.73,0,0,0,.46,8.32,1.26,1.26,0,0,1-1.23,1.39Z" transform="translate(-457.7 -59.59)"/><path class="cls-19" d="M610,278.54a1.71,1.71,0,0,1-.91-.25,41.13,41.13,0,0,1-8.2-6.7,1.07,1.07,0,0,1,.28-1.69,1.74,1.74,0,0,1,2.09.23,38.43,38.43,0,0,0,7.65,6.25,1.06,1.06,0,0,1,.27,1.69A1.63,1.63,0,0,1,610,278.54Z" transform="translate(-457.7 -59.59)"/><path class="cls-19" d="M611.68,268.61a1.59,1.59,0,0,1-1.19-.48l-3.2-3.43a1.07,1.07,0,0,1,.3-1.69,1.73,1.73,0,0,1,2.08.24l3.19,3.43a1.07,1.07,0,0,1-.29,1.69A1.75,1.75,0,0,1,611.68,268.61Z" transform="translate(-457.7 -59.59)"/><path class="cls-19" d="M616.94,303.48h-.19a1.27,1.27,0,0,1-1.28-1.34,53.18,53.18,0,0,0,.52-11.41,1.32,1.32,0,0,1,1.4-1.26A1.45,1.45,0,0,1,619,290.6a53.89,53.89,0,0,1-.54,11.83A1.4,1.4,0,0,1,616.94,303.48Z" transform="translate(-457.7 -59.59)"/><path class="cls-19" d="M621.18,319.83a1.36,1.36,0,0,1-1.48-1.2v-9a1.52,1.52,0,0,1,3,0v9A1.37,1.37,0,0,1,621.18,319.83Z" transform="translate(-457.7 -59.59)"/><path class="cls-19" d="M635.55,325.83a1.6,1.6,0,0,1-1.24-.54l-6.92-8.6a1.07,1.07,0,0,1,.43-1.66,1.68,1.68,0,0,1,2,.35l6.92,8.59a1.08,1.08,0,0,1-.43,1.67A1.75,1.75,0,0,1,635.55,325.83Z" transform="translate(-457.7 -59.59)"/><path class="cls-19" d="M648.23,319.4a1.76,1.76,0,0,1-.86-.23,23,23,0,0,1-6.78-5.93,1.09,1.09,0,0,1,.49-1.66,1.71,1.71,0,0,1,2,.4,20.26,20.26,0,0,0,6,5.23,1.06,1.06,0,0,1,.34,1.68A1.61,1.61,0,0,1,648.23,319.4Z" transform="translate(-457.7 -59.59)"/><path class="cls-19" d="M643.94,305.62a1.76,1.76,0,0,1-.55-.09,1.14,1.14,0,0,1-.83-1.56,18.91,18.91,0,0,1,5.21-6.38,1.74,1.74,0,0,1,2.1,0,1.05,1.05,0,0,1,0,1.71,16.47,16.47,0,0,0-4.53,5.55A1.52,1.52,0,0,1,643.94,305.62Z" transform="translate(-457.7 -59.59)"/><path class="cls-19" d="M657.29,309.47a1.66,1.66,0,0,1-1-.32,5.47,5.47,0,0,1-2.31-5.36,1.48,1.48,0,0,1,1.69-1,1.26,1.26,0,0,1,1.24,1.38,3.35,3.35,0,0,0,1.39,3.22,1,1,0,0,1,.09,1.7A1.64,1.64,0,0,1,657.29,309.47Z" transform="translate(-457.7 -59.59)"/><path class="cls-19" d="M654.61,288a1.63,1.63,0,0,1-1.2-.5l-4.25-4.73a1.07,1.07,0,0,1,.33-1.68,1.7,1.7,0,0,1,2.07.26l4.25,4.73a1.06,1.06,0,0,1-.32,1.68A1.71,1.71,0,0,1,654.61,288Z" transform="translate(-457.7 -59.59)"/><path class="cls-19" d="M655.49,274.33a1.6,1.6,0,0,1-1.17-.46l-5.84-6a1.06,1.06,0,0,1,.25-1.7,1.71,1.71,0,0,1,2.08.21l5.84,6a1.06,1.06,0,0,1-.24,1.69A1.69,1.69,0,0,1,655.49,274.33Z" transform="translate(-457.7 -59.59)"/><path class="cls-19" d="M654.63,264.33a1.43,1.43,0,0,1-1.47-1.06,12.44,12.44,0,0,1,.29-5.18,1.53,1.53,0,0,1,1.77-.91,1.22,1.22,0,0,1,1.13,1.43,10.37,10.37,0,0,0-.24,4.36,1.29,1.29,0,0,1-1.29,1.35Z" transform="translate(-457.7 -59.59)"/><path class="cls-19" d="M649.68,257.94a1.58,1.58,0,0,1-1.28-.59A28.39,28.39,0,0,1,643.64,247a1.26,1.26,0,0,1,1.2-1.41,1.5,1.5,0,0,1,1.73,1,26,26,0,0,0,4.39,9.58,1.09,1.09,0,0,1-.53,1.65A1.74,1.74,0,0,1,649.68,257.94Z" transform="translate(-457.7 -59.59)"/><path class="cls-19" d="M649.81,245a1.57,1.57,0,0,1-1.3-.64l-3.72-5.59a1.1,1.1,0,0,1,.61-1.64,1.69,1.69,0,0,1,2,.49l3.71,5.6a1.1,1.1,0,0,1-.6,1.63A1.78,1.78,0,0,1,649.81,245Z" transform="translate(-457.7 -59.59)"/><path class="cls-19" d="M655.64,240.24a1.39,1.39,0,0,1-1.48-1.13,37.88,37.88,0,0,0-3-12.18,1.17,1.17,0,0,1,.91-1.54,1.59,1.59,0,0,1,1.89.75A40,40,0,0,1,657.13,239a1.32,1.32,0,0,1-1.4,1.27Z" transform="translate(-457.7 -59.59)"/><path class="cls-19" d="M647.13,232.08a1.57,1.57,0,0,1-1.31-.62l-2.63-3.89a1.1,1.1,0,0,1,.59-1.63,1.67,1.67,0,0,1,2,.47l2.63,3.89a1.1,1.1,0,0,1-.59,1.63A1.78,1.78,0,0,1,647.13,232.08Z" transform="translate(-457.7 -59.59)"/><path class="cls-19" d="M649.9,222.14a1.53,1.53,0,0,1-1.36-.72,11.34,11.34,0,0,0-3-3.44,1,1,0,0,1,0-1.7,1.73,1.73,0,0,1,2.1,0,13.78,13.78,0,0,1,3.61,4.2,1.12,1.12,0,0,1-.75,1.59A1.8,1.8,0,0,1,649.9,222.14Z" transform="translate(-457.7 -59.59)"/><path class="cls-19" d="M624.87,341.79a1.56,1.56,0,0,1-1.31-.64L618.18,333a1.1,1.1,0,0,1,.61-1.63,1.66,1.66,0,0,1,2,.49l5.38,8.14a1.09,1.09,0,0,1-.61,1.63A1.69,1.69,0,0,1,624.87,341.79Z" transform="translate(-457.7 -59.59)"/><path class="cls-19" d="M629.11,356.42a1.64,1.64,0,0,1-1.19-.48l-6.36-6.89a1.07,1.07,0,0,1,.3-1.69,1.74,1.74,0,0,1,2.08.24l6.36,6.89a1.07,1.07,0,0,1-.3,1.69A1.75,1.75,0,0,1,629.11,356.42Z" transform="translate(-457.7 -59.59)"/><path class="cls-19" d="M630.73,377.06a1.37,1.37,0,0,1-1.49-1.21V363.37a1.52,1.52,0,0,1,3,0v12.48A1.36,1.36,0,0,1,630.73,377.06Z" transform="translate(-457.7 -59.59)"/><path class="cls-19" d="M570.35,389.06a1.59,1.59,0,0,1-1.25-.55L563,380.88a1.07,1.07,0,0,1,.44-1.66,1.68,1.68,0,0,1,2,.36l6.07,7.62a1.09,1.09,0,0,1-.44,1.67A1.75,1.75,0,0,1,570.35,389.06Z" transform="translate(-457.7 -59.59)"/><path class="cls-19" d="M573.39,406.77a1.52,1.52,0,0,1-1.33-.67l-6.89-11.19a1.1,1.1,0,0,1,.67-1.61,1.64,1.64,0,0,1,2,.54L574.71,405a1.1,1.1,0,0,1-.66,1.61A1.72,1.72,0,0,1,573.39,406.77Z" transform="translate(-457.7 -59.59)"/><path class="cls-19" d="M580.31,417.94a1.47,1.47,0,0,1-1.44-.92,26.55,26.55,0,0,1-1-10.72,1.45,1.45,0,0,1,1.6-1.1,1.32,1.32,0,0,1,1.36,1.3,24.66,24.66,0,0,0,1,9.94,1.21,1.21,0,0,1-1.08,1.46A2.2,2.2,0,0,1,580.31,417.94Z" transform="translate(-457.7 -59.59)"/><path class="cls-19" d="M578.74,430a1.63,1.63,0,0,1-1.25-.55,74.1,74.1,0,0,0-9.37-9.74,1,1,0,0,1,.07-1.7,1.73,1.73,0,0,1,2.1.06,77.23,77.23,0,0,1,9.7,10.06,1.09,1.09,0,0,1-.44,1.67A1.76,1.76,0,0,1,578.74,430Z" transform="translate(-457.7 -59.59)"/><path class="cls-19" d="M586.71,442.45a1.37,1.37,0,0,1-1.49-1.2v-9a1.52,1.52,0,0,1,3,0v9A1.36,1.36,0,0,1,586.71,442.45Z" transform="translate(-457.7 -59.59)"/><path class="cls-19" d="M591,455.77a1.61,1.61,0,0,1-1.21-.5,35.24,35.24,0,0,0-8.72-7,1.07,1.07,0,0,1-.36-1.68,1.71,1.71,0,0,1,2.07-.29,38.2,38.2,0,0,1,9.42,7.55,1.07,1.07,0,0,1-.33,1.68A1.69,1.69,0,0,1,591,455.77Z" transform="translate(-457.7 -59.59)"/><path class="cls-19" d="M602.52,461.83a1.45,1.45,0,0,1-1.45-.95l-3.18-12.05A1.23,1.23,0,0,1,599,447.4a1.51,1.51,0,0,1,1.76.93l3.17,12a1.22,1.22,0,0,1-1.14,1.43A1.63,1.63,0,0,1,602.52,461.83Z" transform="translate(-457.7 -59.59)"/><path class="cls-19" d="M617.54,472.93a1.75,1.75,0,0,1-.95-.27l-4.91-3.32a1.05,1.05,0,0,1-.19-1.69,1.74,1.74,0,0,1,2.09-.16l4.91,3.31a1.06,1.06,0,0,1,.19,1.7A1.62,1.62,0,0,1,617.54,472.93Z" transform="translate(-457.7 -59.59)"/><path class="cls-19" d="M626,467a1.67,1.67,0,0,1-.89-.25l-12.7-7.77a1.06,1.06,0,0,1-.3-1.68,1.73,1.73,0,0,1,2.08-.24l12.71,7.77a1,1,0,0,1,.29,1.68A1.6,1.6,0,0,1,626,467Z" transform="translate(-457.7 -59.59)"/><path class="cls-19" d="M639.1,477.78a1.58,1.58,0,0,1-1.32-.65l-5.23-8.21a1.1,1.1,0,0,1,.64-1.62,1.66,1.66,0,0,1,2,.52l5.23,8.2a1.11,1.11,0,0,1-.64,1.63A1.75,1.75,0,0,1,639.1,477.78Z" transform="translate(-457.7 -59.59)"/><path class="cls-19" d="M658.31,487.63a1.66,1.66,0,0,1-1-.31,40.79,40.79,0,0,0-8.18-4.56,1.1,1.1,0,0,1-.64-1.62,1.67,1.67,0,0,1,2-.52,43.69,43.69,0,0,1,8.8,4.91,1.05,1.05,0,0,1,.11,1.7A1.65,1.65,0,0,1,658.31,487.63Z" transform="translate(-457.7 -59.59)"/><path class="cls-19" d="M672.7,405.71l-.43-1.1a1,1,0,0,1,0-.76l-2.06-9.67a1.25,1.25,0,0,1,1.21-1.39,1.5,1.5,0,0,1,1.72,1l2.42,11.37Z" transform="translate(-457.7 -59.59)"/><path class="cls-19" d="M680.63,394.7a1.38,1.38,0,0,1-1.49-1.2,27.82,27.82,0,0,0-1.21-7.86,1.2,1.2,0,0,1,1.08-1.46,1.54,1.54,0,0,1,1.8.88,29.57,29.57,0,0,1,1.3,8.42,1.36,1.36,0,0,1-1.47,1.22Z" transform="translate(-457.7 -59.59)"/><path class="cls-19" d="M696.2,289.11a1.64,1.64,0,0,1-1.09-.39,83.23,83.23,0,0,0-6.62-5.19,1.05,1.05,0,0,1-.15-1.7,1.72,1.72,0,0,1,2.09-.12,82.89,82.89,0,0,1,6.86,5.37,1,1,0,0,1-.08,1.7A1.67,1.67,0,0,1,696.2,289.11Z" transform="translate(-457.7 -59.59)"/><path class="cls-19" d="M699.68,299.61a1.37,1.37,0,0,1-1.49-1.2v-7.75a1.52,1.52,0,0,1,3,0v7.75A1.36,1.36,0,0,1,699.68,299.61Z" transform="translate(-457.7 -59.59)"/><path class="cls-19" d="M697.15,309a1.5,1.5,0,0,1-1.41-.81l-3.26-7.72a1.16,1.16,0,0,1,.92-1.53,1.58,1.58,0,0,1,1.88.75l3.27,7.72a1.17,1.17,0,0,1-.92,1.53A2,2,0,0,1,697.15,309Z" transform="translate(-457.7 -59.59)"/><path class="cls-19" d="M703.38,319a1.38,1.38,0,0,1-1.47-1.13,32.24,32.24,0,0,1,.54-8.87,1.48,1.48,0,0,1,1.71-1,1.26,1.26,0,0,1,1.22,1.39,30.28,30.28,0,0,0-.51,8.33,1.32,1.32,0,0,1-1.39,1.28Z" transform="translate(-457.7 -59.59)"/><path class="cls-19" d="M697.62,337.46a1.48,1.48,0,0,1-1.42-.86l-3.89-10.28a1.18,1.18,0,0,1,1-1.5,1.56,1.56,0,0,1,1.86.8L699,335.9a1.18,1.18,0,0,1-1,1.5A1.59,1.59,0,0,1,697.62,337.46Z" transform="translate(-457.7 -59.59)"/><path class="cls-19" d="M696.49,355.54a1.68,1.68,0,0,1-.5-.07,1.16,1.16,0,0,1-.9-1.54l3.83-8.57a1.62,1.62,0,0,1,1.91-.73,1.16,1.16,0,0,1,.89,1.55l-3.83,8.57A1.51,1.51,0,0,1,696.49,355.54Z" transform="translate(-457.7 -59.59)"/><path class="cls-19" d="M695.43,319.4h-.53a1.23,1.23,0,1,1,0-2.41h.53a1.23,1.23,0,1,1,0,2.41Z" transform="translate(-457.7 -59.59)"/><path class="cls-19" d="M692.78,347.8a1.45,1.45,0,0,1-1.46-1l-1.06-4.3a1.24,1.24,0,0,1,1.17-1.42,1.53,1.53,0,0,1,1.75.95l1.06,4.3a1.25,1.25,0,0,1-1.17,1.42Z" transform="translate(-457.7 -59.59)"/><path class="cls-19" d="M685.33,375.76h-.13a1.3,1.3,0,0,1-1.35-1.31L685.19,362a1.43,1.43,0,0,1,1.6-1.1c.82.06,1.43.64,1.35,1.3l-1.34,12.46A1.38,1.38,0,0,1,685.33,375.76Z" transform="translate(-457.7 -59.59)"/><path class="cls-19" d="M692.85,375.8a1.78,1.78,0,0,1-.71-.15,1.09,1.09,0,0,1-.58-1.64,13.6,13.6,0,0,0,2.37-8.82,1.32,1.32,0,0,1,1.37-1.3,1.43,1.43,0,0,1,1.59,1.11,15.69,15.69,0,0,1-2.73,10.18A1.6,1.6,0,0,1,692.85,375.8Z" transform="translate(-457.7 -59.59)"/><path class="cls-19" d="M687.53,390.84a2.18,2.18,0,0,1-.43,0,1.19,1.19,0,0,1-1-1.5,8.26,8.26,0,0,0,.4-4.23,1.27,1.27,0,0,1,1.26-1.36,1.45,1.45,0,0,1,1.68,1A10.15,10.15,0,0,1,689,390,1.48,1.48,0,0,1,687.53,390.84Z" transform="translate(-457.7 -59.59)"/><path class="cls-19" d="M698.71,473a1.4,1.4,0,0,1-1.47-1.07l-1.18-8.59a1.29,1.29,0,0,1,1.31-1.33,1.44,1.44,0,0,1,1.64,1.06l1.18,8.59a1.28,1.28,0,0,1-1.31,1.33Z" transform="translate(-457.7 -59.59)"/><path class="cls-19" d="M709.19,464a1.55,1.55,0,0,1-1.34-.69,14,14,0,0,0-4.77-4.81,1.06,1.06,0,0,1-.27-1.69,1.71,1.71,0,0,1,2.08-.22,16.52,16.52,0,0,1,5.65,5.69,1.11,1.11,0,0,1-.72,1.6A1.72,1.72,0,0,1,709.19,464Z" transform="translate(-457.7 -59.59)"/><path class="cls-19" d="M709.75,452.78h-.08a1.33,1.33,0,0,1-1.4-1.27l.53-7.75a1.45,1.45,0,0,1,1.57-1.13,1.33,1.33,0,0,1,1.4,1.27l-.53,7.74A1.4,1.4,0,0,1,709.75,452.78Z" transform="translate(-457.7 -59.59)"/><path class="cls-19" d="M719.42,434.15a1.71,1.71,0,0,1-.91-.25L711,429.24a1.06,1.06,0,0,1-.27-1.69,1.73,1.73,0,0,1,2.08-.22l7.49,4.66a1.06,1.06,0,0,1,.28,1.69A1.65,1.65,0,0,1,719.42,434.15Z" transform="translate(-457.7 -59.59)"/><path class="cls-19" d="M718.27,451.06h-.09a1.33,1.33,0,0,1-1.39-1.28A28.46,28.46,0,0,1,719.86,439a1.62,1.62,0,0,1,1.94-.66,1.14,1.14,0,0,1,.8,1.58,26.57,26.57,0,0,0-2.85,10A1.39,1.39,0,0,1,718.27,451.06Z" transform="translate(-457.7 -59.59)"/><path class="cls-19" d="M720.28,472.6a1.55,1.55,0,0,1-1.36-.7,41.36,41.36,0,0,1-3.7-8.87,1.22,1.22,0,0,1,1.11-1.45,1.52,1.52,0,0,1,1.78.91,39.37,39.37,0,0,0,3.52,8.41,1.13,1.13,0,0,1-.74,1.6A1.86,1.86,0,0,1,720.28,472.6Z" transform="translate(-457.7 -59.59)"/><path class="cls-19" d="M782.94,216.57h-.08a1.32,1.32,0,0,1-1.4-1.27A16.18,16.18,0,0,0,781,210a1.23,1.23,0,0,1,1.14-1.43,1.51,1.51,0,0,1,1.76.92,18.49,18.49,0,0,1,.57,5.92A1.39,1.39,0,0,1,782.94,216.57Z" transform="translate(-457.7 -59.59)"/><path class="cls-19" d="M783.42,229.54a1.75,1.75,0,0,1-.89-.24,20.63,20.63,0,0,1-6.14-5.61,1.08,1.08,0,0,1,.55-1.64,1.68,1.68,0,0,1,2,.44,18,18,0,0,0,5.35,4.88,1.06,1.06,0,0,1,.3,1.68A1.61,1.61,0,0,1,783.42,229.54Z" transform="translate(-457.7 -59.59)"/><path class="cls-19" d="M782.33,245l-.37,0a1.21,1.21,0,0,1-1.06-1.47,44.74,44.74,0,0,1,3.36-7.9,1.64,1.64,0,0,1,2-.63,1.14,1.14,0,0,1,.77,1.59,44.36,44.36,0,0,0-3.21,7.54A1.46,1.46,0,0,1,782.33,245Z" transform="translate(-457.7 -59.59)"/><path class="cls-19" d="M776,245a1.4,1.4,0,0,1-1.48-1.11l-1-9.9a1.31,1.31,0,0,1,1.35-1.3,1.44,1.44,0,0,1,1.61,1.1l1,9.9a1.32,1.32,0,0,1-1.36,1.3Z" transform="translate(-457.7 -59.59)"/><path class="cls-19" d="M782.48,260.85a1.61,1.61,0,0,1-1.21-.5l-6.45-7.26a1.07,1.07,0,0,1,.34-1.69,1.72,1.72,0,0,1,2.07.28l6.45,7.26a1.07,1.07,0,0,1-.33,1.68A1.69,1.69,0,0,1,782.48,260.85Z" transform="translate(-457.7 -59.59)"/><path class="cls-19" d="M788.68,274.23a1.38,1.38,0,0,1-1.48-1.15l-.53-9.46a1.33,1.33,0,0,1,1.41-1.26,1.36,1.36,0,0,1,1.55,1.15l.54,9.46a1.34,1.34,0,0,1-1.42,1.26Z" transform="translate(-457.7 -59.59)"/><path class="cls-19" d="M785.19,281.87a1.75,1.75,0,0,1-1-.34,25.21,25.21,0,0,1-8.7-12.49,1.22,1.22,0,0,1,1.11-1.45,1.53,1.53,0,0,1,1.78.89,22.83,22.83,0,0,0,7.88,11.32,1,1,0,0,1,0,1.7A1.67,1.67,0,0,1,785.19,281.87Z" transform="translate(-457.7 -59.59)"/><path class="cls-19" d="M796.27,284.13h-.22a1.27,1.27,0,0,1-1.25-1.37,42.05,42.05,0,0,1,2.66-8.83,1.57,1.57,0,0,1,1.88-.74,1.17,1.17,0,0,1,.93,1.53,39.66,39.66,0,0,0-2.53,8.39A1.43,1.43,0,0,1,796.27,284.13Z" transform="translate(-457.7 -59.59)"/><path class="cls-19" d="M813.81,278.94a1.48,1.48,0,0,1-1.44-.9l-1.69-5.14a1.21,1.21,0,0,1,1.06-1.47,1.56,1.56,0,0,1,1.82.85l1.68,5.14a1.2,1.2,0,0,1-1,1.48A2.58,2.58,0,0,1,813.81,278.94Z" transform="translate(-457.7 -59.59)"/><path class="cls-19" d="M822.16,270.35h-.23a1.27,1.27,0,0,1-1.24-1.38,22.57,22.57,0,0,1,3.38-8.12,1.67,1.67,0,0,1,2-.49,1.1,1.1,0,0,1,.6,1.63,20.23,20.23,0,0,0-3.06,7.35A1.43,1.43,0,0,1,822.16,270.35Z" transform="translate(-457.7 -59.59)"/><path class="cls-19" d="M827.46,252.74a1.68,1.68,0,0,1-1-.33,28.26,28.26,0,0,1-7.23-8.11,1.13,1.13,0,0,1,.71-1.61,1.64,1.64,0,0,1,2,.58,25.71,25.71,0,0,0,6.59,7.39,1.06,1.06,0,0,1,0,1.71A1.74,1.74,0,0,1,827.46,252.74Z" transform="translate(-457.7 -59.59)"/><path class="cls-19" d="M826.92,238.09h0a1.37,1.37,0,0,1-1.46-1.23,36.54,36.54,0,0,1,1.7-10.17,1.55,1.55,0,0,1,1.81-.87,1.22,1.22,0,0,1,1.07,1.47,34.8,34.8,0,0,0-1.61,9.61A1.39,1.39,0,0,1,826.92,238.09Z" transform="translate(-457.7 -59.59)"/><path class="cls-19" d="M831.11,220.94a1.68,1.68,0,0,1-1.12-.41,11.15,11.15,0,0,1-3.38-5.84,1.26,1.26,0,0,1,1.23-1.38,1.49,1.49,0,0,1,1.71,1,8.74,8.74,0,0,0,2.68,4.63,1.05,1.05,0,0,1-.14,1.7A1.69,1.69,0,0,1,831.11,220.94Z" transform="translate(-457.7 -59.59)"/><path class="cls-19" d="M829.58,245.83h0a1.36,1.36,0,0,1-1.46-1.22,7.39,7.39,0,0,1,1.31-4,1.69,1.69,0,0,1,2-.47,1.09,1.09,0,0,1,.58,1.64,5.3,5.3,0,0,0-.94,2.87A1.37,1.37,0,0,1,829.58,245.83Z" transform="translate(-457.7 -59.59)"/><path class="cls-19" d="M817.37,294.48a1.64,1.64,0,0,1-1.11-.41,29.56,29.56,0,0,1-4.92-5.88,1.11,1.11,0,0,1,.65-1.62,1.66,1.66,0,0,1,2,.52,26.86,26.86,0,0,0,4.5,5.39,1.05,1.05,0,0,1-.14,1.7A1.69,1.69,0,0,1,817.37,294.48Z" transform="translate(-457.7 -59.59)"/><path class="cls-19" d="M821.06,288.41a1.27,1.27,0,0,1-.28,0A1.23,1.23,0,0,1,819.6,287l1.1-4.72a1.49,1.49,0,0,1,1.74-1,1.24,1.24,0,0,1,1.18,1.41l-1.11,4.72A1.42,1.42,0,0,1,821.06,288.41Z" transform="translate(-457.7 -59.59)"/><path class="cls-19" d="M813.07,315.1H813a1.33,1.33,0,0,1-1.41-1.26l.64-9.89c0-.67.8-1.14,1.56-1.14a1.32,1.32,0,0,1,1.4,1.26l-.63,9.89A1.39,1.39,0,0,1,813.07,315.1Z" transform="translate(-457.7 -59.59)"/><path class="cls-19" d="M838.55,349.19a1.76,1.76,0,0,1-.8-.2l-8.42-4.39a1.07,1.07,0,0,1-.44-1.66,1.7,1.7,0,0,1,2.05-.36l8.42,4.39a1.07,1.07,0,0,1,.44,1.66A1.59,1.59,0,0,1,838.55,349.19Z" transform="translate(-457.7 -59.59)"/><path class="cls-19" d="M840.73,344.35l-.36,0a1.22,1.22,0,0,1-1.09-1.46,25.08,25.08,0,0,1,3.92-7.64,1.71,1.71,0,0,1,2-.41,1.08,1.08,0,0,1,.5,1.66,22.49,22.49,0,0,0-3.57,7A1.46,1.46,0,0,1,840.73,344.35Z" transform="translate(-457.7 -59.59)"/><path class="cls-19" d="M851.18,331.16a1.67,1.67,0,0,1-1.08-.38l-5.66-4.87a1,1,0,0,1,.06-1.7,1.74,1.74,0,0,1,2.1.05l5.66,4.86a1.06,1.06,0,0,1-.06,1.71A1.68,1.68,0,0,1,851.18,331.16Z" transform="translate(-457.7 -59.59)"/><path class="cls-19" d="M851.3,321.57a1.53,1.53,0,0,1-1.4-.78,13.31,13.31,0,0,1-.53-9.8,1.54,1.54,0,0,1,1.82-.84,1.2,1.2,0,0,1,1,1.47,11.28,11.28,0,0,0,.45,8.33,1.16,1.16,0,0,1-.88,1.55A1.79,1.79,0,0,1,851.3,321.57Z" transform="translate(-457.7 -59.59)"/><path class="cls-19" d="M855.56,303.5a1.6,1.6,0,0,1-1.27-.57,17.71,17.71,0,0,1-3.31-7.36,1.27,1.27,0,0,1,1.25-1.37,1.49,1.49,0,0,1,1.69,1,15.32,15.32,0,0,0,2.91,6.46,1.09,1.09,0,0,1-.49,1.66A1.77,1.77,0,0,1,855.56,303.5Z" transform="translate(-457.7 -59.59)"/><path class="cls-19" d="M858.78,289.29a1.36,1.36,0,0,1-1.48-1.21V281.2a1.52,1.52,0,0,1,3,0v6.88A1.37,1.37,0,0,1,858.78,289.29Z" transform="translate(-457.7 -59.59)"/><path class="cls-19" d="M849,347.36h-.07a1.33,1.33,0,0,1-1.41-1.26,15.27,15.27,0,0,1,3.12-8.31,1.7,1.7,0,0,1,2-.4,1.09,1.09,0,0,1,.5,1.66,13.24,13.24,0,0,0-2.7,7.16A1.38,1.38,0,0,1,849,347.36Z" transform="translate(-457.7 -59.59)"/><path class="cls-19" d="M749.5,327.6a1.62,1.62,0,0,1-1.2-.49l-5.87-6.43a1.07,1.07,0,0,1,.31-1.69,1.73,1.73,0,0,1,2.08.25l5.87,6.44a1.06,1.06,0,0,1-.31,1.68A1.74,1.74,0,0,1,749.5,327.6Z" transform="translate(-457.7 -59.59)"/><path class="cls-19" d="M748.34,337.09a1.53,1.53,0,0,1-1.34-.7l-4.71-8.2a1.13,1.13,0,0,1,.72-1.6,1.64,1.64,0,0,1,2,.59l4.71,8.2A1.12,1.12,0,0,1,749,337,1.94,1.94,0,0,1,748.34,337.09Z" transform="translate(-457.7 -59.59)"/><path class="cls-19" d="M747.94,345.22a1.75,1.75,0,0,1-.89-.24l-6.37-3.88a1.05,1.05,0,0,1-.29-1.68,1.7,1.7,0,0,1,2.07-.24l6.37,3.87a1.06,1.06,0,0,1,.3,1.68A1.61,1.61,0,0,1,747.94,345.22Z" transform="translate(-457.7 -59.59)"/><path class="cls-19" d="M743.58,359.83h-.19a1.28,1.28,0,0,1-1.29-1.35l1.16-7.3a1.47,1.47,0,0,1,1.67-1,1.28,1.28,0,0,1,1.28,1.35l-1.16,7.3A1.42,1.42,0,0,1,743.58,359.83Z" transform="translate(-457.7 -59.59)"/><path class="cls-19" d="M755.86,357.29a1.64,1.64,0,0,1-1.11-.41,17.21,17.21,0,0,1-4.1-5.52,1.15,1.15,0,0,1,.87-1.55,1.6,1.6,0,0,1,1.91.71,14.94,14.94,0,0,0,3.54,4.77,1.05,1.05,0,0,1-.13,1.7A1.69,1.69,0,0,1,755.86,357.29Z" transform="translate(-457.7 -59.59)"/><path class="cls-19" d="M747.09,372.38a2.07,2.07,0,0,1-.5-.06,1.18,1.18,0,0,1-.91-1.54c1.49-3.4,3.11-6.81,4.8-10.13a1.62,1.62,0,0,1,1.94-.65,1.13,1.13,0,0,1,.8,1.57c-1.67,3.28-3.26,6.65-4.73,10A1.51,1.51,0,0,1,747.09,372.38Z" transform="translate(-457.7 -59.59)"/><path class="cls-19" d="M759.59,377.06a1.63,1.63,0,0,1-1.22-.51,20.75,20.75,0,0,1-4.47-8.65,1.26,1.26,0,0,1,1.19-1.41,1.49,1.49,0,0,1,1.73,1,18.39,18.39,0,0,0,4,7.72,1.07,1.07,0,0,1-.37,1.68A1.78,1.78,0,0,1,759.59,377.06Z" transform="translate(-457.7 -59.59)"/><path class="cls-19" d="M754.92,387.76a1.59,1.59,0,0,1-1.2-.5,40.1,40.1,0,0,1-5-7,1.12,1.12,0,0,1,.74-1.59,1.65,1.65,0,0,1,2,.6,37.27,37.27,0,0,0,4.72,6.62,1.06,1.06,0,0,1-.34,1.68A1.69,1.69,0,0,1,754.92,387.76Z" transform="translate(-457.7 -59.59)"/><path class="cls-19" d="M760.05,403a1.79,1.79,0,0,1-.93-.26l-7.37-4.79a1.06,1.06,0,0,1-.24-1.69,1.73,1.73,0,0,1,2.09-.19l7.38,4.78a1.07,1.07,0,0,1,.23,1.7A1.64,1.64,0,0,1,760.05,403Z" transform="translate(-457.7 -59.59)"/><path class="cls-19" d="M765.37,418a1.58,1.58,0,0,1-1.29-.6,23.22,23.22,0,0,1-3.82-8.6,1.26,1.26,0,0,1,1.21-1.4,1.52,1.52,0,0,1,1.72,1,21,21,0,0,0,3.47,7.81,1.09,1.09,0,0,1-.55,1.64A1.76,1.76,0,0,1,765.37,418Z" transform="translate(-457.7 -59.59)"/><path class="cls-19" d="M773.33,430.51a1.86,1.86,0,0,1-.7-.14,38,38,0,0,1-6-3.28,1.06,1.06,0,0,1-.19-1.7,1.73,1.73,0,0,1,2.09-.15,33.77,33.77,0,0,0,5.49,3,1.1,1.1,0,0,1,.61,1.63A1.56,1.56,0,0,1,773.33,430.51Z" transform="translate(-457.7 -59.59)"/><path class="cls-19" d="M818.47,470.56h-.11a37.21,37.21,0,0,1-12.71-3A1.1,1.1,0,0,1,805,466a1.66,1.66,0,0,1,2-.5,34.06,34.06,0,0,0,11.52,2.7,1.33,1.33,0,0,1,1.38,1.28A1.4,1.4,0,0,1,818.47,470.56Z" transform="translate(-457.7 -59.59)"/><path class="cls-19" d="M820.61,465.69a1.55,1.55,0,0,1-.37,0,1.2,1.2,0,0,1-1.06-1.47l2.08-6.46a1.53,1.53,0,0,1,1.81-.86,1.2,1.2,0,0,1,1.06,1.47l-2.08,6.46A1.47,1.47,0,0,1,820.61,465.69Z" transform="translate(-457.7 -59.59)"/><path class="cls-19" d="M825.36,454.48a1.61,1.61,0,0,1-1.26-.56,1.08,1.08,0,0,1,.46-1.66,46.58,46.58,0,0,1,9.88-3.68,1.55,1.55,0,0,1,1.85.8,1.18,1.18,0,0,1-1,1.5,43,43,0,0,0-9.16,3.42A1.82,1.82,0,0,1,825.36,454.48Z" transform="translate(-457.7 -59.59)"/><path class="cls-19" d="M830.67,445.47a1.36,1.36,0,0,1-1.48-1.21v-9.47a1.52,1.52,0,0,1,3,0v9.47A1.37,1.37,0,0,1,830.67,445.47Z" transform="translate(-457.7 -59.59)"/><path class="cls-19" d="M837,430.41h-.12a1.32,1.32,0,0,1-1.37-1.3,27.46,27.46,0,0,0-1-10.38,1.21,1.21,0,0,1,1.1-1.45,1.49,1.49,0,0,1,1.78.89,29.42,29.42,0,0,1,1.07,11.14A1.41,1.41,0,0,1,837,430.41Z" transform="translate(-457.7 -59.59)"/><path class="cls-19" d="M841.81,415.35a1.36,1.36,0,0,1-1.48-1.21v-9.89a1.52,1.52,0,0,1,3,0v9.89A1.37,1.37,0,0,1,841.81,415.35Z" transform="translate(-457.7 -59.59)"/><path class="cls-19" d="M845.06,398.61a1.68,1.68,0,0,1-.93-.26,1.06,1.06,0,0,1-.22-1.7,17,17,0,0,1,6.27-3.91,1.63,1.63,0,0,1,2,.61,1.13,1.13,0,0,1-.75,1.59,14.11,14.11,0,0,0-5.17,3.23A1.66,1.66,0,0,1,845.06,398.61Z" transform="translate(-457.7 -59.59)"/><path class="cls-19" d="M847.59,389.89a1.6,1.6,0,0,1-1.24-.53,1.08,1.08,0,0,1,.41-1.67l4.76-2.6a1.71,1.71,0,0,1,2.06.33,1.07,1.07,0,0,1-.4,1.67l-4.76,2.6A1.75,1.75,0,0,1,847.59,389.89Z" transform="translate(-457.7 -59.59)"/><path class="cls-19" d="M848.48,409.76a1.39,1.39,0,0,1-1.48-1.13l-.33-4.47a.41.41,0,0,1-.11-.07,1.42,1.42,0,0,1-.42-1.72,2,2,0,0,1,1.82-.76,1.84,1.84,0,0,1,1.62,1.75l.39,5.12a1.34,1.34,0,0,1-1.4,1.28Z" transform="translate(-457.7 -59.59)"/><path class="cls-19" d="M843.85,424.76a1.71,1.71,0,0,1-.91-.25,1.06,1.06,0,0,1-.26-1.69,18.66,18.66,0,0,0,3.16-4.38,1.63,1.63,0,0,1,1.94-.64,1.13,1.13,0,0,1,.8,1.57A21.21,21.21,0,0,1,845,424.3,1.64,1.64,0,0,1,843.85,424.76Z" transform="translate(-457.7 -59.59)"/><path class="cls-19" d="M838.63,443.75h-.18c-.82-.09-1.4-.69-1.29-1.35A18.26,18.26,0,0,1,840,435.1a1.66,1.66,0,0,1,2-.51,1.1,1.1,0,0,1,.63,1.62,16.56,16.56,0,0,0-2.5,6.48A1.41,1.41,0,0,1,838.63,443.75Z" transform="translate(-457.7 -59.59)"/><path class="cls-19" d="M798.9,486.1a1.45,1.45,0,0,1-1.44-.94,1.22,1.22,0,0,1,1.12-1.44l10.55-1.93a1.52,1.52,0,0,1,1.77.91,1.22,1.22,0,0,1-1.12,1.44l-10.55,1.93Z" transform="translate(-457.7 -59.59)"/></g></svg>