<svg id="Layer_1" data-name="Layer 1" xmlns="http://www.w3.org/2000/svg" viewBox="0 0 845.73 516.52"><defs><style>.cls-1{fill:#7bb82e;}.cls-2{fill:#a7e359;}.cls-3{fill:#9deb3b;}.cls-4{fill:#fff;}.cls-5{fill:#d65ea8;}.cls-6{fill:#ff8cd3;}.cls-7{fill:#ff8ad2;}.cls-8{fill:#45b7ba;}.cls-9{fill:#8fe1ff;}.cls-10{fill:#87fcff;}.cls-11{fill:#6fa629;}.cls-12{fill:#c79f00;}.cls-13{fill:#fc0;}.cls-14{fill:#f0bf00;}</style></defs><path class="cls-1" d="M275.89,205.13c-3.4-4.83-10-10-18.14-10h-.35c-8.35-.17-15.08,5.08-18.53,10-4.25,5.92-4.47,11.88-2.52,14.48l.08.11a6.34,6.34,0,0,0,5.13,2,36.66,36.66,0,0,0,6.11-.77,41.62,41.62,0,0,1,9.64-.94h.13a41.71,41.71,0,0,1,9.65.94,36.4,36.4,0,0,0,6.11.77,6.34,6.34,0,0,0,5.13-2l.08-.11C280.36,217,280.14,211,275.89,205.13Z" transform="translate(-227.66 -185.13)"/><path class="cls-2" d="M277.38,218.19c-3.27,3.72-11.53-.7-20-.2-8.47-.5-16.73,3.92-20,.2-1.42-1.9-.95-6.83,2.55-11.7s9.79-9.53,17.45-9.38c7.66-.15,14.07,4.58,17.45,9.38S278.8,216.29,277.38,218.19Z" transform="translate(-227.66 -185.13)"/><path class="cls-1" d="M264.76,197.63a.28.28,0,0,1-.25-.2.48.48,0,0,1,.1-.54c1.67-1.29,1.68-3.24,1.7-5.13s0-3.75,1.77-4.46c.15-.06.32.06.36.27a.42.42,0,0,1-.19.49c-1.27.52-1.34,1.68-1.36,3.7s0,4.3-2,5.82A.3.3,0,0,1,264.76,197.63Z" transform="translate(-227.66 -185.13)"/><path class="cls-1" d="M268.38,199.92a.32.32,0,0,1-.28-.3.42.42,0,0,1,.22-.48c1.08-.36,1.92-2.7,2.65-4.77s1.33-3.74,2.2-4c.16,0,.32.08.35.3a.41.41,0,0,1-.22.47c-.59.17-1.21,1.89-1.8,3.56-.83,2.33-1.69,4.75-3.05,5.2Z" transform="translate(-227.66 -185.13)"/><path class="cls-1" d="M272,202.43h-.05a.41.41,0,0,1-.24-.45c.26-2,1.48-3.34,2.67-4.61s2.26-2.42,2.18-4.07a.38.38,0,0,1,.27-.42c.17,0,.3.15.31.37.1,2.06-1.16,3.42-2.39,4.73s-2.24,2.4-2.46,4.13A.34.34,0,0,1,272,202.43Z" transform="translate(-227.66 -185.13)"/><path class="cls-1" d="M275,205.82a.28.28,0,0,1-.26-.2.48.48,0,0,1,.11-.54c1.84-1.39,2.55-3.69,3.11-5.54.47-1.54.88-2.87,1.8-3.25.16-.06.32.05.37.26a.43.43,0,0,1-.2.49c-.66.27-1,1.39-1.43,2.8-.6,2-1.34,4.41-3.36,5.93A.2.2,0,0,1,275,205.82Z" transform="translate(-227.66 -185.13)"/><path class="cls-1" d="M277.42,209.92c-.13,0-.25-.13-.29-.31a.42.42,0,0,1,.23-.47c1.82-.57,2.88-2.66,3.82-4.51.83-1.62,1.54-3,2.61-3.19.16,0,.31.13.33.35a.39.39,0,0,1-.26.44c-.81.13-1.45,1.39-2.19,2.85-1,2-2.14,4.2-4.18,4.83Z" transform="translate(-227.66 -185.13)"/><path class="cls-1" d="M278.86,213c-.16,0-.29-.17-.29-.39s.12-.4.29-.4,4.73-.1,7.43-3.63a.24.24,0,0,1,.41,0,.5.5,0,0,1,0,.56,10.73,10.73,0,0,1-7.84,3.85Z" transform="translate(-227.66 -185.13)"/><path class="cls-1" d="M286.72,217.75a.25.25,0,0,1-.18-.08c-1.19-1.2-2.08-.9-3.21-.53a4.66,4.66,0,0,1-4.83-.59.46.46,0,0,1-.12-.53c.07-.19.25-.27.39-.17a4.22,4.22,0,0,0,4.42.52c1.18-.38,2.28-.75,3.7.66a.5.5,0,0,1,.06.56A.28.28,0,0,1,286.72,217.75Z" transform="translate(-227.66 -185.13)"/><path class="cls-1" d="M284.26,226a.28.28,0,0,1-.25-.18c-1.77-3.84-6.62-5.71-6.67-5.72a.43.43,0,0,1-.2-.49c0-.21.21-.33.36-.28s5.12,2,7,6.07a.5.5,0,0,1-.09.55A.25.25,0,0,1,284.26,226Z" transform="translate(-227.66 -185.13)"/><path class="cls-1" d="M278.86,229.88a.25.25,0,0,1-.14,0c-2.05-1.47-2.49-3.16-3-5a12.92,12.92,0,0,0-1.59-4.06.48.48,0,0,1,0-.55.24.24,0,0,1,.41,0,14.13,14.13,0,0,1,1.7,4.31c.46,1.78.82,3.19,2.67,4.51a.46.46,0,0,1,.12.53A.29.29,0,0,1,278.86,229.88Z" transform="translate(-227.66 -185.13)"/><path class="cls-1" d="M273.75,230.25a.26.26,0,0,1-.19-.1.48.48,0,0,1,0-.56c.34-.52.14-.91-.83-2.18a11.77,11.77,0,0,1-2.84-7.33.36.36,0,0,1,.28-.41c.15,0,.3.15.31.37a10.91,10.91,0,0,0,2.66,6.81c.87,1.13,1.62,2.11.86,3.26A.28.28,0,0,1,273.75,230.25Z" transform="translate(-227.66 -185.13)"/><path class="cls-1" d="M269,229.88a.23.23,0,0,1-.17-.07.48.48,0,0,1-.07-.55c.42-.82-.19-1.93-1.24-3.66a15.19,15.19,0,0,1-2.41-5.84.38.38,0,0,1,.24-.45c.16,0,.31.1.34.32A14,14,0,0,0,268,225.1c1.05,1.75,2,3.26,1.26,4.61A.29.29,0,0,1,269,229.88Z" transform="translate(-227.66 -185.13)"/><path class="cls-1" d="M264.4,229.18a.28.28,0,0,1-.17-.07.5.5,0,0,1-.08-.55c.36-.72.09-1.14-.74-2.27a13.82,13.82,0,0,1-2.9-7.24.39.39,0,0,1,.24-.45c.16,0,.31.11.34.33a12.87,12.87,0,0,0,2.74,6.81c.78,1.06,1.46,2,.81,3.26A.3.3,0,0,1,264.4,229.18Z" transform="translate(-227.66 -185.13)"/><path class="cls-1" d="M259.9,229.88a.24.24,0,0,1-.15-.06.46.46,0,0,1-.1-.54c1.06-2.36-2.21-7.52-3.55-9.3a.5.5,0,0,1,0-.56.25.25,0,0,1,.42,0c.21.28,5.16,6.91,3.64,10.28A.28.28,0,0,1,259.9,229.88Z" transform="translate(-227.66 -185.13)"/><path class="cls-1" d="M256.72,230.25a.22.22,0,0,1-.15-.06c-1.66-1.33-3.89-9.44-4.14-10.36a.45.45,0,0,1,.17-.51c.15-.07.32,0,.38.24.66,2.43,2.64,8.95,3.89,9.95a.48.48,0,0,1,.1.54A.29.29,0,0,1,256.72,230.25Z" transform="translate(-227.66 -185.13)"/><path class="cls-1" d="M253.07,230.77a.28.28,0,0,1-.17-.07c-1.65-1.52-2-3.25-2.36-5.08a12.67,12.67,0,0,0-2-5.29.48.48,0,0,1,0-.56.24.24,0,0,1,.41,0,13.53,13.53,0,0,1,2.15,5.63c.35,1.76.65,3.28,2.12,4.62a.48.48,0,0,1,.08.55A.28.28,0,0,1,253.07,230.77Z" transform="translate(-227.66 -185.13)"/><path class="cls-1" d="M248.36,230.88h0a.41.41,0,0,1-.25-.45c.41-3.76-3.48-9.41-3.52-9.47a.48.48,0,0,1,0-.55.25.25,0,0,1,.42,0c.17.25,4.12,6,3.67,10.12A.34.34,0,0,1,248.36,230.88Z" transform="translate(-227.66 -185.13)"/><path class="cls-1" d="M244,230.94a.24.24,0,0,1-.14-.05.46.46,0,0,1-.12-.53c.61-1.52-.26-2.93-1.27-4.57s-2-3.33-1.6-5.32c.05-.21.21-.33.37-.27a.42.42,0,0,1,.19.49c-.35,1.6.54,3.05,1.49,4.59,1,1.71,2.14,3.47,1.34,5.45A.32.32,0,0,1,244,230.94Z" transform="translate(-227.66 -185.13)"/><path class="cls-1" d="M235.62,230.94a.34.34,0,0,1-.29-.34.4.4,0,0,1,.25-.45c3.41-.62,2.78-9.61,2.77-9.7a.38.38,0,0,1,.26-.44c.17,0,.31.14.32.36,0,.4.7,9.85-3.27,10.57Z" transform="translate(-227.66 -185.13)"/><path class="cls-1" d="M229.71,224.28a.3.3,0,0,1-.27-.22,1.53,1.53,0,0,1,0-1c.31-1,1.6-1.53,3.23-2.23,1.45-.62,3.09-1.33,3.77-2.34a.25.25,0,0,1,.42,0,.5.5,0,0,1,0,.56c-.8,1.17-2.44,1.88-4,2.56-1.25.54-2.66,1.15-2.87,1.79a.48.48,0,0,0,0,.33.46.46,0,0,1-.14.53A.19.19,0,0,1,229.71,224.28Z" transform="translate(-227.66 -185.13)"/><path class="cls-1" d="M232.94,216.55a9,9,0,0,1-2.3-.36c-1-.25-1.78-.45-2.55.1-.14.1-.32,0-.4-.16a.48.48,0,0,1,.12-.53c.95-.69,1.87-.45,2.94-.19A6.51,6.51,0,0,0,236,215c.15-.08.32,0,.38.23a.45.45,0,0,1-.17.51A6.94,6.94,0,0,1,232.94,216.55Z" transform="translate(-227.66 -185.13)"/><path class="cls-1" d="M231.66,210.76a5.12,5.12,0,0,1-3.1-1.28.48.48,0,0,1-.11-.54.26.26,0,0,1,.4-.15c2.11,1.61,3.27,1.23,4.49.82a4.63,4.63,0,0,1,3.55-.09.42.42,0,0,1,.2.49c0,.21-.21.33-.36.27a4.27,4.27,0,0,0-3.25.09A5.62,5.62,0,0,1,231.66,210.76Z" transform="translate(-227.66 -185.13)"/><path class="cls-1" d="M236.88,206.65a5.57,5.57,0,0,1-3.26-1.29,4.42,4.42,0,0,0-2.48-1.05h0a.36.36,0,0,1-.3-.39c0-.22.13-.4.3-.4a4.74,4.74,0,0,1,2.76,1.14c1.32.9,2.67,1.82,5.25.62.16-.07.32,0,.38.25a.45.45,0,0,1-.18.5A5.88,5.88,0,0,1,236.88,206.65Z" transform="translate(-227.66 -185.13)"/><path class="cls-1" d="M242.24,203a.27.27,0,0,1-.16-.06,8.82,8.82,0,0,0-4.77-2c-1.31-.21-2.34-.37-2.69-1.86a.41.41,0,0,1,.19-.49c.15-.07.32,0,.37.25.22,1,.87,1.1,2.2,1.31a9.51,9.51,0,0,1,5,2.09.48.48,0,0,1,.1.54A.29.29,0,0,1,242.24,203Z" transform="translate(-227.66 -185.13)"/><path class="cls-1" d="M244.55,200.39h0c-1.74-.2-2.31-1.73-2.91-3.34a8.59,8.59,0,0,0-2.52-4.08.48.48,0,0,1-.1-.55c.08-.18.26-.25.4-.13a9.21,9.21,0,0,1,2.75,4.41c.59,1.59,1,2.74,2.43,2.9a.39.39,0,0,1,.27.43C244.83,200.24,244.7,200.39,244.55,200.39Z" transform="translate(-227.66 -185.13)"/><path class="cls-1" d="M249,198.52c-.16,0-.28-.16-.3-.37-.1-2.13-1.93-3.68-3.39-4.93-1.28-1.09-2.28-1.95-2.14-3.05,0-.22.18-.36.34-.32a.39.39,0,0,1,.24.45c-.08.59.91,1.43,1.87,2.25,1.58,1.34,3.55,3,3.67,5.55,0,.22-.11.41-.27.42Z" transform="translate(-227.66 -185.13)"/><path class="cls-1" d="M253.55,196.54a.28.28,0,0,1-.25-.19c-1-2.17-3.94-7.7-5.69-7.19-.16.05-.31-.09-.35-.3a.41.41,0,0,1,.23-.47c2.45-.71,5.92,6.7,6.31,7.55a.48.48,0,0,1-.1.54A.24.24,0,0,1,253.55,196.54Z" transform="translate(-227.66 -185.13)"/><path class="cls-1" d="M257.21,196.38h0c-.16,0-.27-.22-.25-.44a10.59,10.59,0,0,0-1.48-6.12c-.74-1.49-1.45-2.9-.85-4.46.08-.2.26-.27.4-.17a.48.48,0,0,1,.13.53c-.42,1.09,0,2,.81,3.66A11.59,11.59,0,0,1,257.5,196C257.48,196.23,257.35,196.38,257.21,196.38Z" transform="translate(-227.66 -185.13)"/><path class="cls-1" d="M261.14,196.86h-.05a.4.4,0,0,1-.23-.47,17.33,17.33,0,0,0,0-4.45c-.19-2-.36-3.75,1.23-5.61a.24.24,0,0,1,.41,0,.48.48,0,0,1,0,.55c-1.35,1.59-1.21,3-1,4.92a18,18,0,0,1,0,4.71C261.4,196.73,261.28,196.86,261.14,196.86Z" transform="translate(-227.66 -185.13)"/><ellipse class="cls-1" cx="37.75" cy="21.49" rx="2.63" ry="3.53"/><path class="cls-3" d="M266.63,204.47a1.41,1.41,0,0,1,.34,1.46c-.22.34-.72.23-1.13-.23a1.39,1.39,0,0,1-.33-1.46C265.73,203.9,266.23,204,266.63,204.47Z" transform="translate(-227.66 -185.13)"/><path class="cls-4" d="M257.77,206.64c0,.93-.56,1.68-1.25,1.68s-1.25-.75-1.25-1.68.56-1.68,1.25-1.68S257.77,205.72,257.77,206.64Z" transform="translate(-227.66 -185.13)"/><ellipse class="cls-4" cx="24.78" cy="28.53" rx="1.03" ry="1.39"/><path class="cls-4" d="M247.09,210.57c0,.46-.27.83-.61.83s-.61-.37-.61-.83.27-.82.61-.82S247.09,210.12,247.09,210.57Z" transform="translate(-227.66 -185.13)"/><path class="cls-4" d="M249,204.08c0,.32-.19.57-.43.57s-.43-.25-.43-.57.19-.57.43-.57S249,203.76,249,204.08Z" transform="translate(-227.66 -185.13)"/><path class="cls-4" d="M246.66,205.35c0,.71-.43,1.28-.95,1.28s-1-.57-1-1.28.43-1.27,1-1.27S246.66,204.65,246.66,205.35Z" transform="translate(-227.66 -185.13)"/><path class="cls-4" d="M241.51,214.92c0,.69-.42,1.25-.93,1.25s-.93-.56-.93-1.25.42-1.25.93-1.25S241.51,214.23,241.51,214.92Z" transform="translate(-227.66 -185.13)"/><path class="cls-4" d="M265.77,214.94c0,.7-.42,1.26-.94,1.26s-.94-.56-.94-1.26.42-1.26.94-1.26S265.77,214.24,265.77,214.94Z" transform="translate(-227.66 -185.13)"/><path class="cls-4" d="M273.23,210.58c0,.23-.14.42-.31.42s-.31-.19-.31-.42.14-.42.31-.42S273.23,210.35,273.23,210.58Z" transform="translate(-227.66 -185.13)"/><ellipse class="cls-4" cx="45.48" cy="30.53" rx="0.82" ry="1.11"/><ellipse class="cls-4" cx="33.61" cy="15.03" rx="0.47" ry="0.64"/><path class="cls-4" d="M253.9,200.33c0,.44-.27.8-.6.8s-.6-.36-.6-.8.27-.81.6-.81S253.9,199.89,253.9,200.33Z" transform="translate(-227.66 -185.13)"/><ellipse class="cls-5" cx="134.46" cy="294.27" rx="20.12" ry="21.26"/><ellipse class="cls-6" cx="134.36" cy="294.27" rx="18.34" ry="19.38"/><ellipse class="cls-5" cx="137.34" cy="287.86" rx="5.07" ry="5.36"/><path class="cls-7" d="M367.36,469.72c.78.7,1.07,1.69.65,2.21s-1.39.36-2.17-.35-1.07-1.7-.65-2.21S366.58,469,367.36,469.72Z" transform="translate(-227.66 -185.13)"/><path class="cls-5" d="M354.57,475.88h0a2.19,2.19,0,0,1-2.88-1.36l-1.34-3.67a2.41,2.41,0,0,1,1.29-3.05l0,0a2.2,2.2,0,0,1,2.88,1.36l1.34,3.68A2.41,2.41,0,0,1,354.57,475.88Z" transform="translate(-227.66 -185.13)"/><path class="cls-7" d="M354,471.41h0a.54.54,0,0,1-.71-.33l-.33-.91a.58.58,0,0,1,.32-.75h0a.55.55,0,0,1,.71.34l.33.91A.6.6,0,0,1,354,471.41Z" transform="translate(-227.66 -185.13)"/><path class="cls-5" d="M372.06,490.82v0a2.36,2.36,0,0,1-1.79,2.75l-3.67.7a2.24,2.24,0,0,1-2.6-1.9v0a2.35,2.35,0,0,1,1.79-2.75l3.67-.7A2.24,2.24,0,0,1,372.06,490.82Z" transform="translate(-227.66 -185.13)"/><path class="cls-7" d="M370.63,489.88h0a.58.58,0,0,1-.44.68l-.91.17a.55.55,0,0,1-.64-.47h0a.57.57,0,0,1,.44-.67l.91-.18A.55.55,0,0,1,370.63,489.88Z" transform="translate(-227.66 -185.13)"/><path class="cls-4" d="M376.69,479.73A1.66,1.66,0,1,1,375,478,1.71,1.71,0,0,1,376.69,479.73Z" transform="translate(-227.66 -185.13)"/><path class="cls-4" d="M376.43,471.18a1.71,1.71,0,1,1-1.71-1.8A1.76,1.76,0,0,1,376.43,471.18Z" transform="translate(-227.66 -185.13)"/><path class="cls-4" d="M368.63,484.69a1.69,1.69,0,1,1-1.69-1.79A1.73,1.73,0,0,1,368.63,484.69Z" transform="translate(-227.66 -185.13)"/><path class="cls-4" d="M366.94,464.1a1.69,1.69,0,1,1-1.68-1.78A1.74,1.74,0,0,1,366.94,464.1Z" transform="translate(-227.66 -185.13)"/><path class="cls-4" d="M350.31,480.89a1.41,1.41,0,1,1-1.41-1.49A1.46,1.46,0,0,1,350.31,480.89Z" transform="translate(-227.66 -185.13)"/><ellipse class="cls-4" cx="128.72" cy="308.49" rx="1.5" ry="1.58"/><ellipse class="cls-4" cx="129.49" cy="280.75" rx="0.77" ry="0.81"/><ellipse class="cls-4" cx="125.43" cy="302.7" rx="0.77" ry="0.81"/><ellipse class="cls-4" cx="146.12" cy="300.53" rx="0.77" ry="0.81"/><path class="cls-4" d="M357.92,481.74a1.42,1.42,0,1,1-1.41-1.49A1.46,1.46,0,0,1,357.92,481.74Z" transform="translate(-227.66 -185.13)"/><path class="cls-5" d="M369.63,460.86a.38.38,0,0,1-.36-.35c-.12-1.26.88-2.08,1.93-2.95s2.22-1.84,2.21-3.31a.38.38,0,0,1,.36-.39h0a.37.37,0,0,1,.36.39c0,1.85-1.31,2.95-2.48,3.92-.94.77-1.74,1.43-1.66,2.26a.39.39,0,0,1-.33.43Z" transform="translate(-227.66 -185.13)"/><path class="cls-5" d="M374.54,463.78a.32.32,0,0,1-.16,0,.4.4,0,0,1-.17-.52c.2-.43,2-4.19,3.78-4.71a1.34,1.34,0,0,1,1.2.18.41.41,0,0,1,.11.54.35.35,0,0,1-.51.11.7.7,0,0,0-.6-.09c-1.25.37-2.82,3.24-3.32,4.31A.36.36,0,0,1,374.54,463.78Z" transform="translate(-227.66 -185.13)"/><path class="cls-5" d="M377.7,468l-.09,0a.38.38,0,0,1-.26-.47c.46-1.87,1.94-1.53,3.12-1.26s2.14.42,2.61-.57a.36.36,0,0,1,.5-.17.4.4,0,0,1,.16.52c-.77,1.6-2.24,1.26-3.42,1-1.41-.32-2-.35-2.26.69A.37.37,0,0,1,377.7,468Z" transform="translate(-227.66 -185.13)"/><path class="cls-5" d="M381.68,473a2.43,2.43,0,0,1-1.53-.49.41.41,0,0,1-.09-.55.36.36,0,0,1,.52-.08c1,.76,2.47.12,3.76-.45,1.07-.47,2-.87,2.69-.56a1.32,1.32,0,0,1,.68.79.41.41,0,0,1-.21.51A.38.38,0,0,1,387,472c-.09-.24-.2-.32-.28-.35-.41-.19-1.28.19-2.12.56A7.89,7.89,0,0,1,381.68,473Z" transform="translate(-227.66 -185.13)"/><path class="cls-5" d="M386.54,479.79a.37.37,0,0,1-.31-.17c-.79-1.29-3.52-1.08-4.5-.89a.37.37,0,0,1-.43-.31.38.38,0,0,1,.29-.45c.17,0,4-.76,5.26,1.22a.41.41,0,0,1-.11.54A.36.36,0,0,1,386.54,479.79Z" transform="translate(-227.66 -185.13)"/><path class="cls-5" d="M386.73,486.24c-1.75,0-4.92-2-6-2.68a.41.41,0,0,1-.12-.54.36.36,0,0,1,.51-.12c2.45,1.61,5.44,3,6,2.47a.36.36,0,0,1,.52,0,.4.4,0,0,1,0,.55A1.27,1.27,0,0,1,386.73,486.24Z" transform="translate(-227.66 -185.13)"/><path class="cls-5" d="M385.62,492a.37.37,0,0,1-.37-.39c0-.73-.94-.83-2.49-.92s-3.58-.19-3.58-2.05a.37.37,0,1,1,.73,0c0,1,1.14,1.18,2.88,1.28,1.5.08,3.2.17,3.2,1.69A.38.38,0,0,1,385.62,492Z" transform="translate(-227.66 -185.13)"/><path class="cls-5" d="M381.9,498.1h0c-.58,0-1.08-.71-1.76-1.65-.95-1.3-2.12-2.92-3.72-3.11a.38.38,0,0,1-.32-.43.37.37,0,0,1,.41-.34c1.91.23,3.24,2.06,4.21,3.4.41.57,1,1.34,1.21,1.35,0,0,.05,0,.07-.06a.36.36,0,0,1,.52,0,.4.4,0,0,1,0,.55A.8.8,0,0,1,381.9,498.1Z" transform="translate(-227.66 -185.13)"/><path class="cls-5" d="M376.58,503.57c-1.18,0-1.62-1.72-2.05-3.38-.37-1.45-.79-3.1-1.63-3.36a.4.4,0,0,1-.24-.49.37.37,0,0,1,.46-.26c1.23.4,1.68,2.18,2.12,3.91s.8,2.92,1.46,2.79a.37.37,0,0,1,.43.31.39.39,0,0,1-.3.46Z" transform="translate(-227.66 -185.13)"/><path class="cls-5" d="M370.57,506.57a.91.91,0,0,1-.61-.23c-.57-.52-.61-1.82-.66-3.31s-.12-3.44-.86-3.91a.41.41,0,0,1-.12-.54.35.35,0,0,1,.5-.13c1.08.7,1.15,2.66,1.21,4.55,0,1.15.09,2.45.41,2.75a.19.19,0,0,0,.16,0,.39.39,0,0,1,.08.77Z" transform="translate(-227.66 -185.13)"/><path class="cls-5" d="M361,507.93a.35.35,0,0,1-.19-.06c-.8-.52-.3-1.78.29-3.23s1.39-3.44.75-4.64a.41.41,0,0,1,.14-.53.35.35,0,0,1,.5.15c.82,1.54,0,3.64-.71,5.32-.34.84-.85,2.1-.58,2.27a.41.41,0,0,1,.12.53A.37.37,0,0,1,361,507.93Z" transform="translate(-227.66 -185.13)"/><path class="cls-5" d="M350.31,503.55a.36.36,0,0,1-.36-.29c-.33-1.37,1.11-1.92,2.38-2.41,1.51-.58,2.49-1,2.4-2a.38.38,0,0,1,.33-.42.37.37,0,0,1,.4.35c.16,1.66-1.53,2.31-2.88,2.83s-2.07.85-1.91,1.49a.39.39,0,0,1-.27.47Z" transform="translate(-227.66 -185.13)"/><path class="cls-5" d="M344.94,500.2a.38.38,0,0,1-.37-.36c-.1-1.28,1-2,2.11-2.76s2.22-1.49,2.22-2.73a.37.37,0,1,1,.73,0c0,1.67-1.35,2.58-2.55,3.38-1,.67-1.84,1.24-1.77,2a.39.39,0,0,1-.34.43Z" transform="translate(-227.66 -185.13)"/><path class="cls-5" d="M338.31,494.74h-.08a.39.39,0,0,1-.27-.47c.24-1.13,1.66-1.35,3.16-1.57,2.34-.35,4-.74,4.19-2.65a.38.38,0,0,1,.4-.35.38.38,0,0,1,.33.42c-.24,2.67-2.78,3.05-4.82,3.35-1.24.19-2.41.36-2.55,1A.37.37,0,0,1,338.31,494.74Z" transform="translate(-227.66 -185.13)"/><path class="cls-5" d="M338.79,488.33h-.22a2,2,0,0,1-1.58-1.1.4.4,0,0,1,.12-.53.36.36,0,0,1,.51.13,1.32,1.32,0,0,0,1,.73c1.57.17,4-2.2,4.76-3.13a.35.35,0,0,1,.52,0,.41.41,0,0,1,0,.55C343.82,485.09,341,488.33,338.79,488.33Z" transform="translate(-227.66 -185.13)"/><path class="cls-5" d="M342.26,480.16c-.54,0-1-.45-1.45-1a4.29,4.29,0,0,0-3.5-1.79.39.39,0,0,1,0-.77,5.1,5.1,0,0,1,4,2c.35.38.69.74.92.74h0a.59.59,0,0,0,.39-.25.36.36,0,0,1,.52,0,.4.4,0,0,1,0,.55,1.27,1.27,0,0,1-.92.48Z" transform="translate(-227.66 -185.13)"/><path class="cls-5" d="M344.39,472.43a.36.36,0,0,1-.34-.25c-.06-.15-1.4-3.64-4.44-2.74a.36.36,0,0,1-.45-.27.39.39,0,0,1,.25-.48c3.68-1.09,5.3,3.16,5.32,3.21a.4.4,0,0,1-.21.5A.31.31,0,0,1,344.39,472.43Z" transform="translate(-227.66 -185.13)"/><path class="cls-5" d="M347.1,466.28a.38.38,0,0,1-.36-.34c-.08-.59-.64-.83-1.55-1.17s-2.29-.86-2.63-2.36a.39.39,0,0,1,.27-.47.37.37,0,0,1,.44.29c.25,1.09,1.18,1.44,2.16,1.81s1.9.71,2,1.8a.39.39,0,0,1-.32.43Z" transform="translate(-227.66 -185.13)"/><path class="cls-5" d="M352.7,462.22a.38.38,0,0,1-.37-.38c0-1.17-1.26-2.26-2.46-3.32s-2.25-2-2.35-3.07a.37.37,0,1,1,.73-.07c.07.79,1.1,1.68,2.08,2.54,1.34,1.17,2.72,2.38,2.74,3.91a.38.38,0,0,1-.36.39Z" transform="translate(-227.66 -185.13)"/><path class="cls-5" d="M357.92,459.4h-.11a.4.4,0,0,1-.25-.48c.27-1-.37-2.14-1-3.29-.74-1.41-1.51-2.86-.68-4a.35.35,0,0,1,.52-.08.4.4,0,0,1,.07.54c-.55.77.08,1.94.74,3.19s1.39,2.62,1,3.88A.37.37,0,0,1,357.92,459.4Z" transform="translate(-227.66 -185.13)"/><path class="cls-5" d="M364,459.4a.36.36,0,0,1-.35-.26c-.16-.51-1.53-5-.62-6.89a1.46,1.46,0,0,1,.86-.8.37.37,0,0,1,.46.25.4.4,0,0,1-.24.49.73.73,0,0,0-.42.41c-.66,1.35.25,5,.66,6.29a.39.39,0,0,1-.24.49A.2.2,0,0,1,364,459.4Z" transform="translate(-227.66 -185.13)"/><path class="cls-8" d="M574.22,317.31,546,331.84c-5.42,2.8-12.79-.72-16.46-7.85l-.14-.26c-3.67-7.13-2.25-15.17,3.17-18l28.22-14.54c5.42-2.79,12.79.73,16.46,7.86l.13.26C581.05,306.48,579.64,314.52,574.22,317.31Z" transform="translate(-227.66 -185.13)"/><path class="cls-9" d="M572.79,315.76l-27.33,14.07c-4.67,2.4-11-.62-14.18-6.76l-.11-.23c-3.16-6.14-1.94-13.06,2.72-15.47l27.33-14.07c4.67-2.41,11,.62,14.18,6.76l.12.23C578.68,306.43,577.46,313.35,572.79,315.76Z" transform="translate(-227.66 -185.13)"/><ellipse class="cls-8" cx="558.54" cy="303.79" rx="6.48" ry="4.53" transform="translate(-304.77 104.31) rotate(-27.25)"/><path class="cls-10" d="M561.74,300.62c.09.49-.46.87-1.23.86s-1.45-.42-1.54-.92.46-.87,1.23-.86S561.65,300.12,561.74,300.62Z" transform="translate(-227.66 -185.13)"/><ellipse class="cls-4" cx="543.78" cy="323.28" rx="1.65" ry="1.77" transform="translate(-315.33 99.71) rotate(-27.25)"/><ellipse class="cls-4" cx="571.29" cy="305.09" rx="1.65" ry="1.77" transform="translate(-303.95 110.29) rotate(-27.25)"/><path class="cls-4" d="M567.68,312a.94.94,0,0,1-.36,1.27,1,1,0,0,1-.88-1.72A1,1,0,0,1,567.68,312Z" transform="translate(-227.66 -185.13)"/><ellipse class="cls-4" cx="543.61" cy="309.81" rx="1.39" ry="1.49" transform="translate(-309.18 98.14) rotate(-27.25)"/><path class="cls-4" d="M534.43,319.34a.94.94,0,1,1-1.3-.47A1,1,0,0,1,534.43,319.34Z" transform="translate(-227.66 -185.13)"/><path class="cls-4" d="M553.63,320.27a.94.94,0,1,1-1.67.86.94.94,0,1,1,1.67-.86Z" transform="translate(-227.66 -185.13)"/><path class="cls-4" d="M538.28,310.55a.94.94,0,1,1-1.67.86.94.94,0,1,1,1.67-.86Z" transform="translate(-227.66 -185.13)"/><path class="cls-4" d="M549.36,303.71a.94.94,0,1,1-1.3-.47A1,1,0,0,1,549.36,303.71Z" transform="translate(-227.66 -185.13)"/><path class="cls-4" d="M549.51,314.32a1,1,0,0,1-.38,1.33,1,1,0,0,1-1.29-.47,1,1,0,0,1,.37-1.33A1,1,0,0,1,549.51,314.32Z" transform="translate(-227.66 -185.13)"/><path class="cls-4" d="M566,296.29a.94.94,0,1,1-1.3-.46A1,1,0,0,1,566,296.29Z" transform="translate(-227.66 -185.13)"/><path class="cls-4" d="M560,312.91a1.37,1.37,0,1,1-1.89-.68A1.42,1.42,0,0,1,560,312.91Z" transform="translate(-227.66 -185.13)"/><path class="cls-8" d="M557.91,287.07h0a1.27,1.27,0,0,0-.31,1.73l1.93,3.73,1.9-1-1.92-3.73A1.26,1.26,0,0,0,557.91,287.07Z" transform="translate(-227.66 -185.13)"/><path class="cls-8" d="M554.39,288.88h0a1.27,1.27,0,0,0-.3,1.73l1.92,3.73,1.9-1L556,289.64A1.26,1.26,0,0,0,554.39,288.88Z" transform="translate(-227.66 -185.13)"/><path class="cls-8" d="M550.88,290.69h0a1.27,1.27,0,0,0-.31,1.73l1.93,3.73,1.9-1-1.92-3.73A1.26,1.26,0,0,0,550.88,290.69Z" transform="translate(-227.66 -185.13)"/><path class="cls-8" d="M547.36,292.5h0a1.27,1.27,0,0,0-.3,1.73L549,298l1.9-1-1.92-3.73A1.26,1.26,0,0,0,547.36,292.5Z" transform="translate(-227.66 -185.13)"/><path class="cls-8" d="M543.85,294.31h0a1.27,1.27,0,0,0-.31,1.73l1.92,3.73,1.91-1-1.92-3.73A1.26,1.26,0,0,0,543.85,294.31Z" transform="translate(-227.66 -185.13)"/><path class="cls-8" d="M540.33,296.12h0a1.27,1.27,0,0,0-.3,1.73l1.92,3.73,1.9-1-1.92-3.73A1.26,1.26,0,0,0,540.33,296.12Z" transform="translate(-227.66 -185.13)"/><path class="cls-8" d="M536.82,297.93h0a1.27,1.27,0,0,0-.31,1.73l1.92,3.73,1.91-1-1.92-3.73A1.26,1.26,0,0,0,536.82,297.93Z" transform="translate(-227.66 -185.13)"/><path class="cls-8" d="M533.3,299.74h0a1.27,1.27,0,0,0-.3,1.73l1.92,3.73,1.9-1-1.92-3.73A1.26,1.26,0,0,0,533.3,299.74Z" transform="translate(-227.66 -185.13)"/><path class="cls-8" d="M529.79,301.55h0a1.27,1.27,0,0,0-.31,1.73l1.92,3.73,1.91-1-1.92-3.73A1.26,1.26,0,0,0,529.79,301.55Z" transform="translate(-227.66 -185.13)"/><path class="cls-8" d="M547.82,336.62h0a1.25,1.25,0,0,0,.3-1.72l-1.92-3.73-1.9,1,1.92,3.73A1.26,1.26,0,0,0,547.82,336.62Z" transform="translate(-227.66 -185.13)"/><path class="cls-8" d="M551.34,334.81h0a1.26,1.26,0,0,0,.3-1.72l-1.92-3.73-1.9,1,1.92,3.73A1.26,1.26,0,0,0,551.34,334.81Z" transform="translate(-227.66 -185.13)"/><path class="cls-8" d="M554.85,333h0a1.26,1.26,0,0,0,.31-1.72l-1.93-3.73-1.9,1,1.92,3.73A1.26,1.26,0,0,0,554.85,333Z" transform="translate(-227.66 -185.13)"/><path class="cls-8" d="M558.37,331.19h0a1.27,1.27,0,0,0,.3-1.73l-1.92-3.73-1.9,1,1.92,3.73A1.26,1.26,0,0,0,558.37,331.19Z" transform="translate(-227.66 -185.13)"/><path class="cls-8" d="M561.88,329.38h0a1.27,1.27,0,0,0,.31-1.73l-1.93-3.73-1.9,1,1.92,3.73A1.26,1.26,0,0,0,561.88,329.38Z" transform="translate(-227.66 -185.13)"/><path class="cls-8" d="M565.4,327.57h0a1.27,1.27,0,0,0,.3-1.73l-1.92-3.73-1.9,1,1.92,3.73A1.26,1.26,0,0,0,565.4,327.57Z" transform="translate(-227.66 -185.13)"/><path class="cls-8" d="M568.91,325.76h0a1.27,1.27,0,0,0,.31-1.73l-1.92-3.73-1.91,1,1.92,3.73A1.26,1.26,0,0,0,568.91,325.76Z" transform="translate(-227.66 -185.13)"/><path class="cls-8" d="M572.43,324h0a1.27,1.27,0,0,0,.3-1.73l-1.92-3.73-1.9,1,1.92,3.73A1.26,1.26,0,0,0,572.43,324Z" transform="translate(-227.66 -185.13)"/><path class="cls-8" d="M575.94,322.14h0a1.27,1.27,0,0,0,.31-1.73l-1.92-3.73-1.91,1,1.92,3.73A1.26,1.26,0,0,0,575.94,322.14Z" transform="translate(-227.66 -185.13)"/><path class="cls-8" d="M580.64,297.52v0a1.26,1.26,0,0,0-1.58-.76l-2.84,1.46,1.29,2.51,2.84-1.46A1.27,1.27,0,0,0,580.64,297.52Z" transform="translate(-227.66 -185.13)"/><path class="cls-8" d="M576.71,291.46l0,0a1,1,0,0,0-1.59-.15l-2.05,2.59,1.84,2.05,2.05-2.6A1.51,1.51,0,0,0,576.71,291.46Z" transform="translate(-227.66 -185.13)"/><path class="cls-8" d="M523.54,318.84v0c-.16-.74.2-1.36.81-1.39l3.3-.16.6,2.68-3.31.17A1.53,1.53,0,0,1,523.54,318.84Z" transform="translate(-227.66 -185.13)"/><path class="cls-8" d="M570.64,287h0a.89.89,0,0,0-1.34.68l-.64,3.67,2.26,1.08.64-3.67A1.71,1.71,0,0,0,570.64,287Z" transform="translate(-227.66 -185.13)"/><path class="cls-8" d="M564.4,285.35h0c-.63-.07-1.07.46-1,1.19l.41,4,2.28.28-.41-4A1.63,1.63,0,0,0,564.4,285.35Z" transform="translate(-227.66 -185.13)"/><path class="cls-8" d="M583.29,304.24v0c.16.73-.2,1.35-.8,1.38l-3.31.16-.6-2.68,3.31-.17A1.52,1.52,0,0,1,583.29,304.24Z" transform="translate(-227.66 -185.13)"/><path class="cls-8" d="M581.11,317.81v0a1,1,0,0,1-1.54.12l-3-2.65,1.1-2,3,2.65A1.63,1.63,0,0,1,581.11,317.81Z" transform="translate(-227.66 -185.13)"/><path class="cls-8" d="M523.41,311.37v0a.9.9,0,0,1,1.33-.69l3.37,1.61-.44,2.46-3.36-1.6A1.72,1.72,0,0,1,523.41,311.37Z" transform="translate(-227.66 -185.13)"/><path class="cls-8" d="M525.23,305.53v0a1,1,0,0,1,1.55-.13l3,2.65-1.1,2-3-2.64A1.63,1.63,0,0,1,525.23,305.53Z" transform="translate(-227.66 -185.13)"/><path class="cls-8" d="M530.12,331.62l0,0c.5.56,1.22.63,1.59.15l2.06-2.59L532,327.15l-2.06,2.6A1.54,1.54,0,0,0,530.12,331.62Z" transform="translate(-227.66 -185.13)"/><path class="cls-8" d="M542,338h0c.62.08,1.07-.45,1-1.19l-.4-4-2.29-.28.41,4A1.63,1.63,0,0,0,542,338Z" transform="translate(-227.66 -185.13)"/><path class="cls-8" d="M583.32,311.67v0a.9.9,0,0,1-1.33.69l-3.37-1.61.44-2.46,3.36,1.6A1.72,1.72,0,0,1,583.32,311.67Z" transform="translate(-227.66 -185.13)"/><path class="cls-8" d="M523.33,311.4v0a.89.89,0,0,1,1.33-.69L528,312.3l-.43,2.46-3.36-1.6A1.73,1.73,0,0,1,523.33,311.4Z" transform="translate(-227.66 -185.13)"/><path class="cls-8" d="M536,336h0a.89.89,0,0,0,1.33-.69l.65-3.67-2.26-1.07-.65,3.67A1.71,1.71,0,0,0,536,336Z" transform="translate(-227.66 -185.13)"/><path class="cls-8" d="M526.17,325.54l0,0a1.26,1.26,0,0,0,1.58.75l2.83-1.46-1.29-2.5-2.83,1.46A1.26,1.26,0,0,0,526.17,325.54Z" transform="translate(-227.66 -185.13)"/><path class="cls-1" d="M621.16,665c1.15,7.94-2,13.82-9.83,18.52-5.87,3.51-24,3-24.3,3.05-9.29,1.27-18.64,5.66-25.74,4-9.79-2.27-14.66-6.76-15.8-14.57s2.26-13.5,11-18.47c6.52-3.7,16.29-.87,25.85-2.26,9.29-1.35,19.83-7.19,27.46-4.19A17.56,17.56,0,0,1,621.16,665Z" transform="translate(-227.66 -185.13)"/><path class="cls-2" d="M549.15,678.24a6.87,6.87,0,0,1-.9-5.34c5.14-15.55,17.11-10.44,34.44-13,12.75-1.63,31.62-14.75,36.52,5.44,1.47,10.11-10.69,18.32-27,17.35a38.65,38.65,0,0,0-11.52,1C566.07,687.26,556.23,687.36,549.15,678.24Z" transform="translate(-227.66 -185.13)"/><path class="cls-11" d="M554.23,674.78c-.41-2.81,1.19-3.21,2.86-3.65s3.69-.76,4.18,2.62-1.47,3.54-3.35,3.56C556.22,677.32,554.63,677.55,554.23,674.78Z" transform="translate(-227.66 -185.13)"/><path class="cls-11" d="M605,667.39a4.11,4.11,0,0,1,3.37-5c2.09-.4,4.16-1,4.64,2.23s-1.37,4.56-3.4,4.87C607.4,669.82,605.41,670.41,605,667.39Z" transform="translate(-227.66 -185.13)"/><path class="cls-11" d="M560.38,673.88c-.5-3.44,1.35-4.48,3.38-5.07,2.25-.66,4.75-.46,5.37,3.8.59,4-1.5,5.08-3.7,5.29S560.91,677.51,560.38,673.88Z" transform="translate(-227.66 -185.13)"/><path class="cls-11" d="M597.14,668.53c-.53-3.63,1.36-6,3.53-6.4s4.62,1.07,5.21,5.13-1.59,5-3.69,5.29C599.93,672.91,597.68,672.29,597.14,668.53Z" transform="translate(-227.66 -185.13)"/><path class="cls-11" d="M568.31,672.73c-.63-4.33,2-5.08,4.63-5.42,2.42-.31,4.77-.53,5.43,4s-1.8,4.28-4.25,4.64S568.94,677,568.31,672.73Z" transform="translate(-227.66 -185.13)"/><path class="cls-11" d="M587.9,669.88c-.58-4,2-4.84,4.33-5.52,2.58-.76,5-.85,5.72,4,.64,4.42-1.47,4.85-3.83,5.3C591.5,674.21,588.54,674.26,587.9,669.88Z" transform="translate(-227.66 -185.13)"/><path class="cls-11" d="M577.05,671.46c-.75-5.13,2.44-5,5.51-5.55s6-2,6.85,3.75c.81,5.5-2.18,5-5.14,5.51C581.08,675.7,577.83,676.79,577.05,671.46Z" transform="translate(-227.66 -185.13)"/><path class="cls-1" d="M1036.22,636l-.88-4a2,2,0,0,1,1-2.31h0c.77-.29,1.57.29,1.79,1.29l.87,4a2,2,0,0,1-1,2.31h0C1037.24,637.61,1036.44,637,1036.22,636Z" transform="translate(-227.66 -185.13)"/><path class="cls-1" d="M1040.89,642.32l-2.61-2.43a2.25,2.25,0,0,1-.33-2.61l0,0a1.25,1.25,0,0,1,2-.42l2.61,2.42a2.23,2.23,0,0,1,.33,2.61l0,0A1.25,1.25,0,0,1,1040.89,642.32Z" transform="translate(-227.66 -185.13)"/><path class="cls-1" d="M1047.46,644.22l-3.2-.32a1.77,1.77,0,0,1-1.33-2v0c.06-1,.76-1.81,1.55-1.73l3.21.32a1.77,1.77,0,0,1,1.33,2v0C1049,643.52,1048.26,644.29,1047.46,644.22Z" transform="translate(-227.66 -185.13)"/><path class="cls-1" d="M1031.05,638l-2.87-1.86a2.16,2.16,0,0,1-.64-2.51v0a1.32,1.32,0,0,1,2-.83l2.87,1.86a2.16,2.16,0,0,1,.64,2.51v0A1.32,1.32,0,0,1,1031.05,638Z" transform="translate(-227.66 -185.13)"/><path class="cls-1" d="M1036.81,652.77l-2.65,2.34a1.25,1.25,0,0,1-2-.49l0,0a2.24,2.24,0,0,1,.38-2.6l2.64-2.34a1.27,1.27,0,0,1,2,.49l0,0A2.24,2.24,0,0,1,1036.81,652.77Z" transform="translate(-227.66 -185.13)"/><path class="cls-1" d="M1064.86,676.4l-2.65,2.35a1.27,1.27,0,0,1-2-.49v0a2.22,2.22,0,0,1,.37-2.6l2.65-2.34a1.26,1.26,0,0,1,2,.48v0A2.22,2.22,0,0,1,1064.86,676.4Z" transform="translate(-227.66 -185.13)"/><path class="cls-1" d="M1073.38,663.65v4.15a1.7,1.7,0,0,1-1.45,1.87h0a1.71,1.71,0,0,1-1.45-1.88v-4.14a1.7,1.7,0,0,1,1.45-1.87h0A1.69,1.69,0,0,1,1073.38,663.65Z" transform="translate(-227.66 -185.13)"/><path class="cls-1" d="M1055.54,696.71l-1.26,3.81c-.32,1-1.17,1.39-1.9,1h0a2.1,2.1,0,0,1-.76-2.46l1.26-3.81a1.34,1.34,0,0,1,1.9-1h0A2.13,2.13,0,0,1,1055.54,696.71Z" transform="translate(-227.66 -185.13)"/><path class="cls-1" d="M1053.87,641.77l-2.93,1.68a1.34,1.34,0,0,1-1.91-1l0,0a2.13,2.13,0,0,1,.74-2.47l2.94-1.67a1.34,1.34,0,0,1,1.91.95v0A2.08,2.08,0,0,1,1053.87,641.77Z" transform="translate(-227.66 -185.13)"/><path class="cls-1" d="M1059.27,641.18h-3.21a1.7,1.7,0,0,1-1.45-1.87v0a1.7,1.7,0,0,1,1.45-1.87h3.21a1.7,1.7,0,0,1,1.45,1.87v0A1.7,1.7,0,0,1,1059.27,641.18Z" transform="translate(-227.66 -185.13)"/><path class="cls-1" d="M1058.52,665.72h-3.21a1.7,1.7,0,0,1-1.45-1.87v0a1.7,1.7,0,0,1,1.45-1.87h3.21a1.7,1.7,0,0,1,1.45,1.87v0A1.7,1.7,0,0,1,1058.52,665.72Z" transform="translate(-227.66 -185.13)"/><path class="cls-1" d="M1052.41,665.72h-3.21a1.7,1.7,0,0,1-1.45-1.87v0a1.7,1.7,0,0,1,1.45-1.87h3.21a1.7,1.7,0,0,1,1.45,1.87v0A1.7,1.7,0,0,1,1052.41,665.72Z" transform="translate(-227.66 -185.13)"/><path class="cls-1" d="M1046.3,665.72h-3.21a1.7,1.7,0,0,1-1.45-1.87v0a1.7,1.7,0,0,1,1.45-1.87h3.21a1.7,1.7,0,0,1,1.45,1.87v0A1.7,1.7,0,0,1,1046.3,665.72Z" transform="translate(-227.66 -185.13)"/><path class="cls-1" d="M1040.2,665.72H1037a1.69,1.69,0,0,1-1.45-1.87v0a1.7,1.7,0,0,1,1.45-1.87h3.21a1.7,1.7,0,0,1,1.44,1.87v0A1.69,1.69,0,0,1,1040.2,665.72Z" transform="translate(-227.66 -185.13)"/><path class="cls-1" d="M1062.66,646l-2.27-2.93a2.3,2.3,0,0,1,0-2.65l0,0a1.23,1.23,0,0,1,2,0l2.27,2.93a2.3,2.3,0,0,1,0,2.65l0,0A1.23,1.23,0,0,1,1062.66,646Z" transform="translate(-227.66 -185.13)"/><path class="cls-1" d="M1065.29,652.22l-1.3-3.79a2.13,2.13,0,0,1,.74-2.47h0a1.34,1.34,0,0,1,1.91.95l1.3,3.79a2.13,2.13,0,0,1-.74,2.47l0,0C1066.47,653.6,1065.62,653.17,1065.29,652.22Z" transform="translate(-227.66 -185.13)"/><path class="cls-1" d="M1064.75,659.07l.43-4.11c.11-1,.83-1.74,1.63-1.6h0a1.84,1.84,0,0,1,1.24,2.1l-.43,4.11c-.1,1-.83,1.75-1.63,1.61h0A1.83,1.83,0,0,1,1064.75,659.07Z" transform="translate(-227.66 -185.13)"/><path class="cls-1" d="M1060.54,662.76l2.55-2.51a1.24,1.24,0,0,1,2,.35l0,0a2.23,2.23,0,0,1-.27,2.62l-2.55,2.52a1.25,1.25,0,0,1-2-.36l0,0A2.24,2.24,0,0,1,1060.54,662.76Z" transform="translate(-227.66 -185.13)"/><path class="cls-1" d="M1034.8,680.64l3.18.51a1.83,1.83,0,0,1,1.26,2.09v0c-.1,1-.82,1.75-1.62,1.62l-3.18-.51a1.83,1.83,0,0,1-1.26-2.09v0C1033.28,681.24,1034,680.51,1034.8,680.64Z" transform="translate(-227.66 -185.13)"/><path class="cls-1" d="M1040.14,680.1l3.07-1.21c.76-.31,1.57.25,1.81,1.24v0a2,2,0,0,1-1,2.34l-3.07,1.22c-.77.3-1.58-.25-1.81-1.24v0A2,2,0,0,1,1040.14,680.1Z" transform="translate(-227.66 -185.13)"/><path class="cls-1" d="M1046.31,678.11l3.21.09a1.72,1.72,0,0,1,1.42,1.91v0a1.68,1.68,0,0,1-1.48,1.83l-3.21-.09a1.73,1.73,0,0,1-1.42-1.91v0A1.68,1.68,0,0,1,1046.31,678.11Z" transform="translate(-227.66 -185.13)"/><path class="cls-1" d="M1052.94,679.3l2.75,2.13a2.2,2.2,0,0,1,.5,2.57v0a1.29,1.29,0,0,1-2,.64l-2.76-2.12a2.22,2.22,0,0,1-.5-2.57l0,0A1.28,1.28,0,0,1,1052.94,679.3Z" transform="translate(-227.66 -185.13)"/><path class="cls-1" d="M1057.92,685.3l1,3.94a2,2,0,0,1-.92,2.36h0c-.76.33-1.58-.2-1.83-1.18l-1-3.94a2,2,0,0,1,.92-2.36h0C1056.85,683.79,1057.67,684.32,1057.92,685.3Z" transform="translate(-227.66 -185.13)"/><path class="cls-1" d="M1031.91,677.13l1.3,3.79a2.13,2.13,0,0,1-.74,2.47h0a1.34,1.34,0,0,1-1.91-.95l-1.3-3.79a2.11,2.11,0,0,1,.74-2.47h0A1.35,1.35,0,0,1,1031.91,677.13Z" transform="translate(-227.66 -185.13)"/><path class="cls-1" d="M1031.12,670.74l-.43,4.11c-.1,1-.83,1.74-1.63,1.6h0a1.85,1.85,0,0,1-1.24-2.11l.43-4.11c.1-1,.83-1.74,1.63-1.6h0A1.85,1.85,0,0,1,1031.12,670.74Z" transform="translate(-227.66 -185.13)"/><path class="cls-1" d="M1035.33,667l-2.55,2.52a1.24,1.24,0,0,1-2-.35l0,0a2.27,2.27,0,0,1,.27-2.63l2.55-2.51a1.25,1.25,0,0,1,2,.35v0A2.23,2.23,0,0,1,1035.33,667Z" transform="translate(-227.66 -185.13)"/><path class="cls-12" d="M847,530.92c-2.49,14.73-1.81,28.31-17.16,24s-24.77-7.88-21.93-24.12,3.38-27.5,21.93-24.11S849.43,516.8,847,530.92Z" transform="translate(-227.66 -185.13)"/><path class="cls-13" d="M845.48,530.88c-2.29,13.54-1.67,26-15.78,22.11s-22.76-7.25-20.16-22.17,3.12-25.28,20.16-22.17S847.67,517.91,845.48,530.88Z" transform="translate(-227.66 -185.13)"/><ellipse class="cls-12" cx="595.62" cy="334.8" rx="5.79" ry="3.92"/><path class="cls-14" d="M827,518.61c-.11.47-.8.65-1.54.4s-1.25-.82-1.14-1.29.81-.65,1.55-.4S827.14,518.14,827,518.61Z" transform="translate(-227.66 -185.13)"/><path class="cls-12" d="M831.82,527.4c-.68-1.42.47-3.68,2.57-5.06s4.34-1.35,5,.06-.47,3.68-2.56,5.06S832.5,528.81,831.82,527.4Z" transform="translate(-227.66 -185.13)"/><path class="cls-14" d="M837.91,522.37c.08.36-.32.77-.88.93s-1.08,0-1.15-.36.32-.77.88-.92S837.84,522,837.91,522.37Z" transform="translate(-227.66 -185.13)"/><path class="cls-12" d="M821,533.23c1,.82.78,3.1-.44,5.09s-3,2.93-4,2.11-.78-3.11.44-5.09S820,532.41,821,533.23Z" transform="translate(-227.66 -185.13)"/><path class="cls-14" d="M820.54,536.51c-.27,0-.45-.54-.39-1.12s.32-1,.59-1,.44.54.39,1.12S820.8,536.55,820.54,536.51Z" transform="translate(-227.66 -185.13)"/><path class="cls-12" d="M831.84,534.27c1.83-.35,3.74,2.39,4.26,6.11s-.55,7-2.38,7.39-3.75-2.39-4.27-6.12S830,534.62,831.84,534.27Z" transform="translate(-227.66 -185.13)"/><path class="cls-14" d="M834.43,538.39c-.32.31-1,0-1.46-.74s-.61-1.53-.28-1.84,1,0,1.47.74S834.76,538.09,834.43,538.39Z" transform="translate(-227.66 -185.13)"/><ellipse class="cls-4" cx="606.41" cy="331.21" rx="1.56" ry="1.82"/><path class="cls-4" d="M828.62,533a.79.79,0,1,1-.79-.92A.87.87,0,0,1,828.62,533Z" transform="translate(-227.66 -185.13)"/><path class="cls-4" d="M815.69,533.77a1.45,1.45,0,1,1-1.43-1.68A1.58,1.58,0,0,1,815.69,533.77Z" transform="translate(-227.66 -185.13)"/><ellipse class="cls-4" cx="613.6" cy="345.81" rx="1.43" ry="1.68"/><path class="cls-4" d="M819.75,543.35a.51.51,0,1,1-.5-.59A.54.54,0,0,1,819.75,543.35Z" transform="translate(-227.66 -185.13)"/><path class="cls-4" d="M818.23,527.13a1.17,1.17,0,1,1-1.15-1.36A1.27,1.27,0,0,1,818.23,527.13Z" transform="translate(-227.66 -185.13)"/><ellipse class="cls-4" cx="611.71" cy="350.32" rx="0.68" ry="0.8"/><path class="cls-4" d="M824.28,512.65a1.37,1.37,0,1,1-1.35-1.59A1.48,1.48,0,0,1,824.28,512.65Z" transform="translate(-227.66 -185.13)"/><path class="cls-4" d="M826.38,513.82a.65.65,0,0,1-.59.7.71.71,0,1,1,.59-.7Z" transform="translate(-227.66 -185.13)"/><path class="cls-4" d="M818.79,514.74a.44.44,0,1,1-.44-.51A.49.49,0,0,1,818.79,514.74Z" transform="translate(-227.66 -185.13)"/><path class="cls-4" d="M842.42,518.84a.59.59,0,1,1-.58-.68A.63.63,0,0,1,842.42,518.84Z" transform="translate(-227.66 -185.13)"/><path class="cls-4" d="M840.54,546.42a1.19,1.19,0,1,1-2.35,0,1.19,1.19,0,1,1,2.35,0Z" transform="translate(-227.66 -185.13)"/><ellipse class="cls-4" cx="598.52" cy="360.44" rx="1.9" ry="2.23"/><path class="cls-4" d="M827.19,527.13a1.17,1.17,0,1,1-1.16-1.36A1.27,1.27,0,0,1,827.19,527.13Z" transform="translate(-227.66 -185.13)"/><path class="cls-12" d="M834.92,508.74a.36.36,0,0,1-.33-.27c-.94-2.94,2.13-8.13,2.26-8.34a.32.32,0,0,1,.49-.1.45.45,0,0,1,.09.57s-3,5-2.18,7.59a.43.43,0,0,1-.21.52A.27.27,0,0,1,834.92,508.74Z" transform="translate(-227.66 -185.13)"/><path class="cls-12" d="M838.19,510.28a.36.36,0,0,1-.34-.3.42.42,0,0,1,.24-.51c.5-.16.87-2.76,1.09-4.3.3-2.15.5-3.39,1-3.73a.48.48,0,0,1,.49-.06.42.42,0,0,1,.21.52.35.35,0,0,1-.37.28,14,14,0,0,0-.63,3.12c-.4,2.81-.73,4.67-1.59,5Z" transform="translate(-227.66 -185.13)"/><path class="cls-12" d="M841.84,511.47h-.08a.41.41,0,0,1-.26-.49c0-.22,1.1-5.28,2.86-6.45a.32.32,0,0,1,.47.15.44.44,0,0,1-.13.56c-1.24.83-2.24,4.56-2.52,5.93A.36.36,0,0,1,841.84,511.47Z" transform="translate(-227.66 -185.13)"/><path class="cls-12" d="M844.06,514.23a.34.34,0,0,1-.3-.2.44.44,0,0,1,.13-.56c1.26-.87,4.4-3.52,3.76-5.35a.43.43,0,0,1,.2-.53.32.32,0,0,1,.45.22c1,2.81-3.54,6-4.06,6.37A.41.41,0,0,1,844.06,514.23Z" transform="translate(-227.66 -185.13)"/><path class="cls-12" d="M846.81,517.59a2,2,0,0,1-.55-.07A.41.41,0,0,1,846,517a.35.35,0,0,1,.42-.31,4.42,4.42,0,0,0,2.7-.75c1.07-.53,2.07-1,2.57-.18a.44.44,0,0,1-.08.57.32.32,0,0,1-.49-.1c-.18-.3-1,.11-1.72.47A6.35,6.35,0,0,1,846.81,517.59Z" transform="translate(-227.66 -185.13)"/><path class="cls-12" d="M849,521.75a3.18,3.18,0,0,1-1.29-.24.43.43,0,0,1-.21-.53.34.34,0,0,1,.45-.24,5.23,5.23,0,0,0,3.23-.19c1.17-.32,2.28-.61,2.57.45a.42.42,0,0,1-.22.51.33.33,0,0,1-.44-.26c-.1-.34-.94-.12-1.75.1A9.7,9.7,0,0,1,849,521.75Z" transform="translate(-227.66 -185.13)"/><path class="cls-12" d="M852.81,526.85a.35.35,0,0,1-.29-.17c-.41-.68-3-.89-4.71-.82a.41.41,0,0,1,0-.81c.75,0,4.52-.12,5.3,1.15a.45.45,0,0,1-.08.57A.32.32,0,0,1,852.81,526.85Z" transform="translate(-227.66 -185.13)"/><path class="cls-12" d="M852.55,532.3a4.14,4.14,0,0,1-2.3-1.25c-.9-.75-1.84-1.53-2.9-1.38a.38.38,0,0,1-.39-.36.41.41,0,0,1,.31-.46c1.34-.17,2.43.73,3.39,1.53s1.8,1.44,2.53.84a.32.32,0,0,1,.49.1.45.45,0,0,1-.09.57A1.61,1.61,0,0,1,852.55,532.3Z" transform="translate(-227.66 -185.13)"/><path class="cls-12" d="M851.29,536.34c-2.44,0-5.32-2.11-5.46-2.22a.45.45,0,0,1-.11-.56.33.33,0,0,1,.49-.13s3.76,2.76,6,1.94a.33.33,0,0,1,.43.27.42.42,0,0,1-.23.51A3.38,3.38,0,0,1,851.29,536.34Z" transform="translate(-227.66 -185.13)"/><path class="cls-12" d="M852.34,540.38a.36.36,0,0,1-.33-.28c-.34-.5-3.91-1-7-1.08a.41.41,0,0,1,0-.81c2.72.1,7.33.44,7.66,1.63a.43.43,0,0,1-.22.52Z" transform="translate(-227.66 -185.13)"/><path class="cls-12" d="M850.7,547.33c-.51,0-1-.43-1.6-1a6.07,6.07,0,0,0-5-2,.38.38,0,0,1-.38-.37.42.42,0,0,1,.32-.45,6.71,6.71,0,0,1,5.49,2.18c.51.46,1,.85,1.23.81,0,0,.17,0,.37-.36a.32.32,0,0,1,.49-.09.45.45,0,0,1,.08.57,1.29,1.29,0,0,1-.84.69Z" transform="translate(-227.66 -185.13)"/><path class="cls-12" d="M849.18,552.4a.32.32,0,0,1-.2-.08.44.44,0,0,1-.14-.42,7.11,7.11,0,0,0-1.14-.33c-1.59-.4-4-1-5.07-3.14a.45.45,0,0,1,.13-.56.32.32,0,0,1,.48.15c.9,1.83,3.13,2.38,4.61,2.75,1,.24,1.55.38,1.7.84a.71.71,0,0,1-.09.62A.32.32,0,0,1,849.18,552.4Z" transform="translate(-227.66 -185.13)"/><path class="cls-12" d="M846,557.4c-.86,0-1.41-1.17-2-2.4s-1.25-2.66-2.32-3.2a.44.44,0,0,1-.18-.54.32.32,0,0,1,.46-.21c1.29.65,2,2.26,2.65,3.56.69,1.47,1.07,2.14,1.58,1.91a.35.35,0,0,1,.46.24.45.45,0,0,1-.21.53A1.18,1.18,0,0,1,846,557.4Z" transform="translate(-227.66 -185.13)"/><path class="cls-12" d="M839.91,561.16a.87.87,0,0,1-.64-.26c-.41-.44-.38-1.27-.34-2.32a8.83,8.83,0,0,0-.55-4.21.44.44,0,0,1,.13-.56.33.33,0,0,1,.48.15,9.76,9.76,0,0,1,.64,4.66,3.84,3.84,0,0,0,.11,1.67c.06.07.21.05.3,0a.37.37,0,0,1,.4.34.42.42,0,0,1-.3.47Z" transform="translate(-227.66 -185.13)"/><path class="cls-12" d="M833.83,562.64h0a.66.66,0,0,1-.54-.36c-.28-.52,0-1.35.37-2.6.45-1.45,1-3.24.65-4.56a.45.45,0,0,1,.23-.52.35.35,0,0,1,.44.27c.44,1.59-.17,3.53-.66,5.09a6.26,6.26,0,0,0-.44,1.89.39.39,0,0,1,.32.43A.35.35,0,0,1,833.83,562.64Z" transform="translate(-227.66 -185.13)"/><path class="cls-12" d="M828.7,561.14a.33.33,0,0,1-.26-.14c-.67-.93.07-2,.79-3s1.65-2.34,1.34-3.71a.42.42,0,0,1,.25-.5.33.33,0,0,1,.42.29c.41,1.77-.63,3.25-1.47,4.44-.67,1-1.08,1.58-.8,2a.45.45,0,0,1,0,.58A.35.35,0,0,1,828.7,561.14Z" transform="translate(-227.66 -185.13)"/><path class="cls-12" d="M824.55,561.14h0a.58.58,0,0,1-.43-.33c-.19-.44.06-1,.52-2.07.62-1.4,1.55-3.52,1.17-5.32a.41.41,0,0,1,.26-.49.34.34,0,0,1,.42.3c.44,2.09-.56,4.37-1.22,5.88a9.21,9.21,0,0,0-.5,1.27.47.47,0,0,1,.16.41A.37.37,0,0,1,824.55,561.14Z" transform="translate(-227.66 -185.13)"/><path class="cls-12" d="M818.8,559a.37.37,0,0,1-.21-.08.78.78,0,0,1-.32-.63c0-.59.54-1.11,1.39-1.89,1.19-1.1,2.81-2.6,2.67-4.4a.36.36,0,1,1,.7-.08c.17,2.25-1.63,3.91-2.94,5.12A5.38,5.38,0,0,0,819,558.3a.44.44,0,0,1,.11.56A.33.33,0,0,1,818.8,559Z" transform="translate(-227.66 -185.13)"/><path class="cls-12" d="M815.07,557.86a.38.38,0,0,1-.35-.37c-.19-2.44,3-7.42,3.15-7.63a.31.31,0,0,1,.49-.08.45.45,0,0,1,.06.57c-.88,1.37-3.14,5.3-3,7.06a.41.41,0,0,1-.31.45Z" transform="translate(-227.66 -185.13)"/><path class="cls-12" d="M810.37,554.57a.33.33,0,0,1-.25-.12.75.75,0,0,1-.17-.53c0-.56.62-1.08,1.51-1.86,1.25-1.11,3-2.63,2.89-4.25a.38.38,0,0,1,.34-.42c.16,0,.35.16.36.39.08,2.05-1.8,3.71-3.17,4.93a7.45,7.45,0,0,0-1.21,1.23.47.47,0,0,1,0,.52A.32.32,0,0,1,810.37,554.57Z" transform="translate(-227.66 -185.13)"/><path class="cls-12" d="M806.38,551.38a.27.27,0,0,1-.2-.08.81.81,0,0,1-.28-.66c.05-.56.62-.91,1.56-1.5,1.29-.8,3.06-1.9,3.5-3.68a.34.34,0,0,1,.43-.28.41.41,0,0,1,.24.5c-.52,2.13-2.52,3.37-3.84,4.19a6.91,6.91,0,0,0-1.16.81.5.5,0,0,1,0,.54A.36.36,0,0,1,806.38,551.38Z" transform="translate(-227.66 -185.13)"/><path class="cls-12" d="M804.36,544.63a2.2,2.2,0,0,1-1.15-.33.45.45,0,0,1-.15-.55.32.32,0,0,1,.47-.18c2.31,1.41,5-3.76,5-3.81a.33.33,0,0,1,.48-.14.46.46,0,0,1,.12.56C809,540.39,806.82,544.63,804.36,544.63Z" transform="translate(-227.66 -185.13)"/><path class="cls-12" d="M802.61,536.26a1.75,1.75,0,0,1-1.05-.29,1.67,1.67,0,0,1-.63-1.12.42.42,0,0,1,.27-.49.36.36,0,0,1,.41.32.83.83,0,0,0,.32.59c.56.41,1.82,0,3-.36a7.44,7.44,0,0,1,3.36-.55.41.41,0,0,1,.28.48.36.36,0,0,1-.41.33,7.15,7.15,0,0,0-3.05.53A9.31,9.31,0,0,1,802.61,536.26Z" transform="translate(-227.66 -185.13)"/><path class="cls-12" d="M807.61,529.17a8.49,8.49,0,0,1-4.09-1.45,6,6,0,0,0-1-.52.39.39,0,0,1-.35.31.37.37,0,0,1-.34-.4.76.76,0,0,1,.29-.64c.37-.26.87,0,1.69.51,1.28.75,3.21,1.87,5.14,1.11a.34.34,0,0,1,.44.26.42.42,0,0,1-.22.52A4.29,4.29,0,0,1,807.61,529.17Z" transform="translate(-227.66 -185.13)"/><path class="cls-12" d="M808,524a4.27,4.27,0,0,1-3.53-1.34.47.47,0,0,1,0-.58.32.32,0,0,1,.49,0c1.08,1.46,4.17,1.07,5.27.79a.36.36,0,0,1,.41.32.4.4,0,0,1-.27.48A10.42,10.42,0,0,1,808,524Z" transform="translate(-227.66 -185.13)"/><path class="cls-12" d="M811.2,518.43c-1.1,0-2.08-1.06-3-2.09-1.11-1.21-2.16-2.35-3.3-1.87a.34.34,0,0,1-.44-.25.43.43,0,0,1,.21-.53c1.54-.63,2.85.79,4,2,.91,1,1.77,1.92,2.63,1.87a.36.36,0,0,1,.37.39.39.39,0,0,1-.33.43Z" transform="translate(-227.66 -185.13)"/><path class="cls-12" d="M813.62,512.94c-1,0-1.82-1.17-2.6-2.3s-1.42-2.07-2.1-1.91a.36.36,0,0,1-.42-.32.42.42,0,0,1,.28-.48c1.1-.26,2,1,2.79,2.2.69,1,1.41,2.07,2.11,2,.21,0,.36.15.38.38a.4.4,0,0,1-.32.44Z" transform="translate(-227.66 -185.13)"/><path class="cls-12" d="M817.48,508.74l-.14,0c-1.13-.58-1.34-2.21-1.52-3.64s-.32-2.24-.87-2.25a.39.39,0,0,1-.35-.41A.38.38,0,0,1,815,502h0c1.19,0,1.38,1.57,1.56,2.95s.32,2.61,1.1,3a.43.43,0,0,1,.18.54A.34.34,0,0,1,817.48,508.74Z" transform="translate(-227.66 -185.13)"/><path class="cls-12" d="M822.22,507.6a.35.35,0,0,1-.29-.19c-.49-.87-.14-2.24.22-3.68.5-2,.77-3.32-.08-3.81a.45.45,0,0,1-.16-.55.33.33,0,0,1,.47-.19c1.44.84.91,2.93.44,4.78-.3,1.2-.61,2.45-.3,3a.44.44,0,0,1-.11.56A.26.26,0,0,1,822.22,507.6Z" transform="translate(-227.66 -185.13)"/><path class="cls-12" d="M827.14,507.6a.37.37,0,0,1-.33-.28c-.06-.22-1.5-5.36-.31-8a.32.32,0,0,1,.47-.16.44.44,0,0,1,.15.55c-1,2.3.34,7.27.36,7.32a.43.43,0,0,1-.23.52Z" transform="translate(-227.66 -185.13)"/><path class="cls-12" d="M831.82,508.51a.37.37,0,0,1-.23-.1.47.47,0,0,1,0-.58c.47-.64.19-2.47-.06-4.09-.29-1.85-.53-3.44,0-4.2a1,1,0,0,1,.9-.4.38.38,0,0,1,.33.43.37.37,0,0,1-.36.39.37.37,0,0,0-.35.12c-.34.47-.09,2.08.13,3.51.3,2,.59,3.84-.1,4.78A.35.35,0,0,1,831.82,508.51Z" transform="translate(-227.66 -185.13)"/><path class="cls-8" d="M932.69,388.05l0-.43c-.25-2.37.87-4.78,3.16-6.72,3.45-2.93,8.73-4.17,14.11-3.32,21.27,3.32,39.13,16,47.78,33.92a15.88,15.88,0,0,1,1.48,5c.77,6.37-2.83,11.93-8.2,12.64l-.17,0c-6.66.92-12.26-3.82-14.65-8.61-5.57-11.54-17.06-19.7-30.74-21.84C939.78,397.74,933.41,394,932.69,388.05Z" transform="translate(-227.66 -185.13)"/><path class="cls-9" d="M978.12,419.68c-5.83-12.08-18-20.68-32.29-22.93-5.44-.91-10.55-4.35-11-9.12v-.17c-.5-4.73,6.35-9.27,14.71-7.95,20.52,3.21,37.87,15.52,46.22,32.81,3.4,7,.18,14.15-5,14.84l-.19,0C985.31,427.92,980.39,424.24,978.12,419.68Z" transform="translate(-227.66 -185.13)"/><path class="cls-8" d="M991.53,402.26l4.64-2.47a3.65,3.65,0,0,0,4.31,1c1.53-.85,1.86-2.93.74-4.65a3.8,3.8,0,0,0-4.8-1.59,3.09,3.09,0,0,0-1,4.19l-4.6,2.45a.6.6,0,0,0-.26.86h0A.72.72,0,0,0,991.53,402.26Z" transform="translate(-227.66 -185.13)"/><path class="cls-8" d="M984.63,394.23l4.25-3a3.72,3.72,0,0,0,4.43.45c1.4-1,1.43-3.12.06-4.68s-3.6-2-5-1-1.4,2.75-.37,4.26l-4.22,3a.59.59,0,0,0-.14.88h0A.73.73,0,0,0,984.63,394.23Z" transform="translate(-227.66 -185.13)"/><path class="cls-8" d="M976,387.86l3.4-3.8a3.75,3.75,0,0,0,4.45-.5c1.1-1.28.6-3.31-1.13-4.54s-4-1.19-5.14.09-.67,3,.71,4.2l-3.37,3.76a.6.6,0,0,0,.09.89h0A.75.75,0,0,0,976,387.86Z" transform="translate(-227.66 -185.13)"/><path class="cls-8" d="M966.08,382.86l2.94-4.1c1.7.62,3.55.27,4.38-.93,1-1.38.21-3.35-1.66-4.4s-4.16-.79-5.11.59-.32,3,1.21,4.09l-2.92,4.07a.58.58,0,0,0,.19.87h0A.74.74,0,0,0,966.08,382.86Z" transform="translate(-227.66 -185.13)"/><path class="cls-8" d="M956.23,379.41l1.32-4.73c1.85.08,3.47-.8,3.83-2.18.41-1.57-1-3.19-3.16-3.62s-4.25.51-4.66,2.09.78,2.9,2.63,3.47l-1.31,4.68a.62.62,0,0,0,.5.76h0A.71.71,0,0,0,956.23,379.41Z" transform="translate(-227.66 -185.13)"/><path class="cls-8" d="M945.77,377.89l-.58-4.81c1.77-.52,3-1.86,2.77-3.25-.22-1.59-2.18-2.64-4.38-2.34s-3.81,1.83-3.59,3.42,1.86,2.44,3.82,2.38l.57,4.77a.67.67,0,0,0,.76.54h0A.68.68,0,0,0,945.77,377.89Z" transform="translate(-227.66 -185.13)"/><path class="cls-8" d="M938.15,380.07,934,377.16c.86-1.51.66-3.21-.56-4-1.41-.94-3.64-.38-5,1.26s-1.29,3.73.12,4.68,3.24.45,4.6-.87l4.15,2.88a.74.74,0,0,0,1-.12h0A.59.59,0,0,0,938.15,380.07Z" transform="translate(-227.66 -185.13)"/><path class="cls-8" d="M933.3,387.11l-5.33.2a3.27,3.27,0,0,0-3.24-2.73,3.5,3.5,0,0,0-3.06,3.82,3.2,3.2,0,1,0,6.38.18l5.27-.2a.68.68,0,0,0,.68-.66h0A.64.64,0,0,0,933.3,387.11Z" transform="translate(-227.66 -185.13)"/><path class="cls-8" d="M936.62,393.82l-3.69,3.57a3.76,3.76,0,0,0-4.47.21c-1.2,1.21-.86,3.27.77,4.61s3.92,1.46,5.13.25.89-2.91-.39-4.24l3.66-3.54a.6.6,0,0,0,0-.89h0A.73.73,0,0,0,936.62,393.82Z" transform="translate(-227.66 -185.13)"/><path class="cls-8" d="M945.2,398l-2,4.55c-1.81-.28-3.55.41-4.09,1.74-.62,1.52.57,3.29,2.64,4s4.27,0,4.89-1.55-.38-3-2.12-3.75l1.93-4.51a.61.61,0,0,0-.39-.81h0A.73.73,0,0,0,945.2,398Z" transform="translate(-227.66 -185.13)"/><path class="cls-8" d="M957,401.49,955.08,406c-1.82-.28-3.55.41-4.09,1.74-.62,1.52.56,3.29,2.64,4s4.27,0,4.89-1.55-.38-3-2.13-3.75l1.94-4.51a.61.61,0,0,0-.39-.81h0A.72.72,0,0,0,957,401.49Z" transform="translate(-227.66 -185.13)"/><path class="cls-8" d="M969.59,409.89l-4.28,3a3.71,3.71,0,0,0-4.42-.47c-1.4,1-1.44,3.11-.09,4.69s3.59,2,5,1a3,3,0,0,0,.4-4.26l4.23-3a.59.59,0,0,0,.14-.88h0A.75.75,0,0,0,969.59,409.89Z" transform="translate(-227.66 -185.13)"/><path class="cls-8" d="M976.3,419.57l-4.53,2.64a3.66,3.66,0,0,0-4.36-.81c-1.49.9-1.72,3-.52,4.67a3.8,3.8,0,0,0,4.86,1.4,3.05,3.05,0,0,0,.79-4.21l4.49-2.63a.6.6,0,0,0,.23-.87h0A.72.72,0,0,0,976.3,419.57Z" transform="translate(-227.66 -185.13)"/><path class="cls-8" d="M983.35,427.25l-1.69,4.64c-1.82-.19-3.52.58-4,1.93-.53,1.55.76,3.26,2.88,3.83s4.26-.24,4.79-1.79-.55-2.95-2.35-3.64l1.67-4.59a.61.61,0,0,0-.44-.79h0A.72.72,0,0,0,983.35,427.25Z" transform="translate(-227.66 -185.13)"/><path class="cls-8" d="M992.41,427.92l1.9,4.49c-1.58.91-2.37,2.48-1.8,3.77.66,1.48,2.86,2,4.92,1.24s3.2-2.63,2.55-4.12-2.49-1.92-4.38-1.41l-1.88-4.45a.69.69,0,0,0-.89-.34h0A.64.64,0,0,0,992.41,427.92Z" transform="translate(-227.66 -185.13)"/><path class="cls-8" d="M997.29,410.88l5.19-1.17a3.45,3.45,0,0,0,3.8,2.07,3.35,3.35,0,0,0,2.16-4.29,3.56,3.56,0,0,0-4.05-2.79,3.28,3.28,0,0,0-2.26,3.78L997,409.64a.66.66,0,0,0-.52.77h0A.7.7,0,0,0,997.29,410.88Z" transform="translate(-227.66 -185.13)"/><path class="cls-8" d="M998.32,420.77l5.14,1.14a3.09,3.09,0,0,0,2.27,3.46,3.74,3.74,0,0,0,4.08-2.93c.54-2-.42-3.86-2.14-4.22a3.64,3.64,0,0,0-3.89,2.44l-5.1-1.13a.72.72,0,0,0-.85.47h0A.61.61,0,0,0,998.32,420.77Z" transform="translate(-227.66 -185.13)"/><path class="cls-8" d="M985.56,419.33l-2.42-6.41a1.63,1.63,0,0,1,1.11-2.09h0a1.79,1.79,0,0,1,2.26,1l2.43,6.4a1.63,1.63,0,0,1-1.12,2.09h0A1.8,1.8,0,0,1,985.56,419.33Z" transform="translate(-227.66 -185.13)"/><path class="cls-8" d="M962.26,398.82l-4.61-5.07a1.49,1.49,0,0,1,.25-2.23l0,0a1.86,1.86,0,0,1,2.45.17l4.61,5.07a1.51,1.51,0,0,1-.26,2.24l0,0A1.85,1.85,0,0,1,962.26,398.82Z" transform="translate(-227.66 -185.13)"/><path class="cls-8" d="M944.52,386.16a1.68,1.68,0,0,1,0-.63,2,2,0,0,1,.93-1.24,2.28,2.28,0,0,1,1.58-.28l6.23,1.16a1.9,1.9,0,0,1,1.58,2.25,2,2,0,0,1-.93,1.24,2.3,2.3,0,0,1-1.58.28l-6.23-1.16A1.92,1.92,0,0,1,944.52,386.16Zm9.26.76a.87.87,0,0,0-.73-.73L946.82,385a1.07,1.07,0,0,0-.72.13.92.92,0,0,0-.42.55.85.85,0,0,0,0,.31.88.88,0,0,0,.73.74l6.23,1.15a1.06,1.06,0,0,0,.72-.12.9.9,0,0,0,.41-.55A.93.93,0,0,0,953.78,386.92Z" transform="translate(-227.66 -185.13)"/><path class="cls-8" d="M972.39,397.56a1.74,1.74,0,0,1,.27-1.17,2.16,2.16,0,0,1,1.29-.94,2.24,2.24,0,0,1,1.59.17l5.51,2.82a1.83,1.83,0,0,1,.76,2.59,2.16,2.16,0,0,1-1.29.94,2.23,2.23,0,0,1-1.59-.17L973.41,399A1.85,1.85,0,0,1,972.39,397.56Zm8.55,2.43a.84.84,0,0,0-.46-.64L975,396.53a1,1,0,0,0-.72-.07.93.93,0,0,0-.57.41.81.81,0,0,0,.32,1.2l5.51,2.82a1,1,0,0,0,.72.07,1,1,0,0,0,.58-.41A.84.84,0,0,0,980.94,400Z" transform="translate(-227.66 -185.13)"/><path class="cls-4" d="M977,411a1.59,1.59,0,1,1-.38-3.14A1.59,1.59,0,1,1,977,411Z" transform="translate(-227.66 -185.13)"/><ellipse class="cls-4" cx="981.98" cy="407.02" rx="1.01" ry="0.91" transform="translate(-269.36 -64.53) rotate(-6.88)"/><path class="cls-4" d="M991.39,416.12a1.26,1.26,0,1,1-.3-2.49,1.26,1.26,0,1,1,.3,2.49Z" transform="translate(-227.66 -185.13)"/><path class="cls-4" d="M967.65,391.39a1.62,1.62,0,1,1,1.57-1.81A1.7,1.7,0,0,1,967.65,391.39Z" transform="translate(-227.66 -185.13)"/><ellipse class="cls-4" cx="944.89" cy="392.49" rx="1.74" ry="1.58" transform="translate(-267.88 -69.08) rotate(-6.88)"/><path class="cls-4" d="M960,386a.71.71,0,1,1,.69-.8A.75.75,0,0,1,960,386Z" transform="translate(-227.66 -185.13)"/><path class="cls-4" d="M939.68,389.14a1.43,1.43,0,1,1,1.38-1.6A1.51,1.51,0,0,1,939.68,389.14Z" transform="translate(-227.66 -185.13)"/><path class="cls-4" d="M992,424.52a.87.87,0,1,1,.84-1A.92.92,0,0,1,992,424.52Z" transform="translate(-227.66 -185.13)"/><ellipse class="cls-4" cx="971.08" cy="403.58" rx="1.94" ry="1.76" transform="translate(-269.02 -65.86) rotate(-6.88)"/><path class="cls-4" d="M986.72,405.31a.68.68,0,1,1-.16-1.34.68.68,0,1,1,.16,1.34Z" transform="translate(-227.66 -185.13)"/><path class="cls-5" d="M865.62,250.81h-21.5c-4.74,0-8.59-4.28-8.59-9.55v-.19c0-5.28,3.85-9.55,8.59-9.55h21.5c4.74,0,8.58,4.27,8.58,9.55v.19C874.2,246.53,870.36,250.81,865.62,250.81Z" transform="translate(-227.66 -185.13)"/><path class="cls-6" d="M865.42,248.7h-21.1c-3.71,0-6.71-3.34-6.71-7.46v-.15c0-4.12,3-7.46,6.71-7.46h21.1c3.7,0,6.7,3.34,6.7,7.46v.15C872.12,245.36,869.12,248.7,865.42,248.7Z" transform="translate(-227.66 -185.13)"/><ellipse class="cls-5" cx="621.4" cy="53.69" rx="2.98" ry="3.31"/><path class="cls-7" d="M850.44,236.8c.46.44.63,1,.38,1.37s-.82.22-1.27-.22-.63-1-.38-1.36S850,236.36,850.44,236.8Z" transform="translate(-227.66 -185.13)"/><path class="cls-4" d="M858.62,239.15a1.08,1.08,0,1,1-1.07-1.2A1.14,1.14,0,0,1,858.62,239.15Z" transform="translate(-227.66 -185.13)"/><path class="cls-4" d="M864.3,244.47a1.5,1.5,0,1,1-1.49-1.66A1.58,1.58,0,0,1,864.3,244.47Z" transform="translate(-227.66 -185.13)"/><ellipse class="cls-4" cx="614.37" cy="57.39" rx="1.95" ry="2.17"/><path class="cls-4" d="M870,239.15a2.1,2.1,0,1,1-2.08-2.31A2.21,2.21,0,0,1,870,239.15Z" transform="translate(-227.66 -185.13)"/><path class="cls-5" d="M925.69,247l-21.23,3.41c-4.68.76-9.16-2.85-10-8.06l0-.19c-.84-5.21,2.27-10,6.95-10.79l21.23-3.42c4.69-.75,9.16,2.86,10,8.07l0,.19C933.49,241.39,930.37,246.23,925.69,247Z" transform="translate(-227.66 -185.13)"/><path class="cls-6" d="M925.16,244.93l-20.84,3.35c-3.65.59-7.15-2.23-7.8-6.3l0-.15c-.65-4.07,1.78-7.84,5.44-8.43l20.83-3.35c3.66-.59,7.15,2.23,7.81,6.3l0,.15C931.24,240.56,928.81,244.34,925.16,244.93Z" transform="translate(-227.66 -185.13)"/><ellipse class="cls-5" cx="907.43" cy="237.78" rx="2.98" ry="3.31" transform="translate(-253.91 -37.97) rotate(-9.14)"/><path class="cls-7" d="M908.48,235.56c.52.36.78.94.59,1.29s-.77.35-1.29,0-.79-.94-.59-1.29S908,235.2,908.48,235.56Z" transform="translate(-227.66 -185.13)"/><path class="cls-4" d="M916.93,236.58a1.09,1.09,0,1,1-1.26-1A1.14,1.14,0,0,1,916.93,236.58Z" transform="translate(-227.66 -185.13)"/><path class="cls-4" d="M923.38,240.93a1.5,1.5,0,1,1-1.74-1.4A1.59,1.59,0,0,1,923.38,240.93Z" transform="translate(-227.66 -185.13)"/><ellipse class="cls-4" cx="901.08" cy="242.55" rx="1.95" ry="2.17" transform="translate(-254.75 -38.92) rotate(-9.14)"/><path class="cls-4" d="M928.17,234.78a2.09,2.09,0,1,1-2.42-2A2.2,2.2,0,0,1,928.17,234.78Z" transform="translate(-227.66 -185.13)"/><path class="cls-5" d="M909,212.66l-19.39-6.07c-4.27-1.34-6.76-6.28-5.56-11l0-.17c1.21-4.76,5.65-7.53,9.92-6.19l19.39,6.07c4.28,1.34,6.77,6.28,5.57,11l-.05.17C917.69,211.23,913.25,214,909,212.66Z" transform="translate(-227.66 -185.13)"/><path class="cls-6" d="M909.27,210.7l-19-6c-3.34-1-5.29-4.9-4.35-8.62l0-.13c.94-3.72,4.4-5.88,7.74-4.84l19,6c3.34,1,5.29,4.91,4.35,8.62l0,.14C916.08,209.58,912.61,211.75,909.27,210.7Z" transform="translate(-227.66 -185.13)"/><path class="cls-5" d="M899.45,198a2.75,2.75,0,0,1-3.44,2.14,3.15,3.15,0,0,1-1.92-3.82,2.76,2.76,0,0,1,3.43-2.15A3.16,3.16,0,0,1,899.45,198Z" transform="translate(-227.66 -185.13)"/><path class="cls-7" d="M898.48,195.74c.31.53.32,1.13,0,1.34s-.79,0-1.1-.55-.32-1.12,0-1.34S898.17,195.22,898.48,195.74Z" transform="translate(-227.66 -185.13)"/><path class="cls-4" d="M905.32,200.18a1,1,0,0,1-1.24.77,1.14,1.14,0,0,1-.7-1.38,1,1,0,0,1,1.24-.78A1.15,1.15,0,0,1,905.32,200.18Z" transform="translate(-227.66 -185.13)"/><path class="cls-4" d="M909.23,206.57a1.39,1.39,0,0,1-1.73,1.08,1.58,1.58,0,0,1-1-1.92,1.38,1.38,0,0,1,1.72-1.07A1.59,1.59,0,0,1,909.23,206.57Z" transform="translate(-227.66 -185.13)"/><path class="cls-4" d="M891.35,199.08a1.81,1.81,0,0,1-2.25,1.41,2.08,2.08,0,0,1-1.27-2.51,1.82,1.82,0,0,1,2.26-1.41A2.08,2.08,0,0,1,891.35,199.08Z" transform="translate(-227.66 -185.13)"/><path class="cls-4" d="M915.59,203.39a1.93,1.93,0,0,1-2.41,1.5,2.21,2.21,0,0,1-1.35-2.68,1.94,1.94,0,0,1,2.41-1.5A2.22,2.22,0,0,1,915.59,203.39Z" transform="translate(-227.66 -185.13)"/><path class="cls-5" d="M885,231.52H863.45c-4.74,0-8.58-4.28-8.58-9.55v-.2c0-5.27,3.84-9.55,8.58-9.55H885c4.74,0,8.58,4.28,8.58,9.55v.2C893.54,227.24,889.7,231.52,885,231.52Z" transform="translate(-227.66 -185.13)"/><path class="cls-6" d="M884.76,229.4H863.65c-3.7,0-6.7-3.34-6.7-7.46v-.15c0-4.12,3-7.45,6.7-7.45h21.11c3.7,0,6.7,3.33,6.7,7.45v.15C891.46,226.06,888.46,229.4,884.76,229.4Z" transform="translate(-227.66 -185.13)"/><ellipse class="cls-5" cx="640.73" cy="34.4" rx="2.98" ry="3.31"/><path class="cls-7" d="M869.78,217.51c.45.43.62,1.05.38,1.36s-.82.23-1.28-.21-.62-1-.38-1.37S869.32,217.07,869.78,217.51Z" transform="translate(-227.66 -185.13)"/><path class="cls-4" d="M878,219.86a1.09,1.09,0,1,1-1.08-1.2A1.14,1.14,0,0,1,878,219.86Z" transform="translate(-227.66 -185.13)"/><path class="cls-4" d="M883.63,225.18a1.5,1.5,0,1,1-1.49-1.66A1.58,1.58,0,0,1,883.63,225.18Z" transform="translate(-227.66 -185.13)"/><ellipse class="cls-4" cx="633.71" cy="38.1" rx="1.95" ry="2.17"/><path class="cls-4" d="M889.35,219.86a2.1,2.1,0,1,1-2.09-2.32A2.22,2.22,0,0,1,889.35,219.86Z" transform="translate(-227.66 -185.13)"/></svg>