<svg xmlns="http://www.w3.org/2000/svg" viewBox="0 0 810 630"><defs><style>.cls-1,.cls-3{fill:indigo;}.cls-1,.cls-2,.cls-5{opacity:0.7;}.cls-4{fill:#e598ea;}.cls-5,.cls-6{fill:#c6c;}.cls-7{fill:blue;}.cls-8{fill:#e580e8;}.cls-9{fill:#ed1c24;}.cls-10{fill:lime;}.cls-11{fill:#ff0;}.cls-12{fill:red;}.cls-13{fill:#ff7f00;}.cls-14{fill:#333;}.cls-15,.cls-17{fill:#fff;}.cls-16{fill:none;stroke:#fff;stroke-miterlimit:10;}.cls-17,.cls-25{font-size:24px;}.cls-17{font-family:Quicksand-Medium, Quicksand;font-weight:500;}.cls-18{letter-spacing:-0.01em;}.cls-19{letter-spacing:0em;}.cls-20{letter-spacing:0em;}.cls-21{letter-spacing:0em;}.cls-22{letter-spacing:-0.01em;}.cls-23{letter-spacing:-0.1em;}.cls-24{letter-spacing:0em;}.cls-25{font-family:Quicksand-Light, Quicksand;font-weight:300;}.cls-26{letter-spacing:-0.01em;}.cls-27{letter-spacing:-0.01em;}.cls-28{letter-spacing:-0.02em;}.cls-29{letter-spacing:-0.02em;}</style></defs><g id="circle10"><circle class="cls-1" cx="624.5" cy="513.5" r="116.5"/><g class="cls-2"><circle class="cls-3" cx="741" cy="429" r="69"/></g></g><g id="circle11"><g class="cls-2"><ellipse class="cls-4" cx="722" cy="287" rx="85" ry="81"/></g></g><g id="circle7"><circle class="cls-5" cx="731.5" cy="147.5" r="75.5"/><ellipse class="cls-5" cx="646.5" cy="84.5" rx="62.5" ry="66.5"/><g class="cls-2"><circle class="cls-6" cx="547" cy="90" r="90"/></g></g><g id="circle6"><g class="cls-2"><ellipse class="cls-7" cx="438.5" cy="286.5" rx="78.5" ry="82.5"/></g><g class="cls-2"><circle class="cls-8" cx="584" cy="286" r="81"/></g></g><g id="circle9"><g class="cls-2"><circle class="cls-9" cx="414.5" cy="480.5" r="110.5"/></g></g><g id="circle5"><g class="cls-2"><circle class="cls-10" cx="324" cy="125" r="96"/></g><g class="cls-2"><circle class="cls-10" cx="450" cy="147" r="62"/></g></g><g id="circle4"><g class="cls-2"><circle class="cls-11" cx="193.5" cy="194.5" r="69.5"/></g></g><g id="circle8"><g class="cls-2"><circle class="cls-12" cx="201" cy="449" r="139"/></g></g><g id="circle2"><g class="cls-2"><ellipse class="cls-13" cx="82.5" cy="286.5" rx="82.5" ry="81.5"/></g></g><g id="bar"><path class="cls-14" d="M1038.36,562.44c-132.68-3.8-267.61-38.43-398.11-71.93-131-33.61-266.36-68.37-399.62-72l1-38.58c132.68,3.79,267.61,38.43,398.11,71.92,131,33.62,266.37,68.38,399.62,72Z" transform="translate(-236 -114)"/><path class="cls-15" d="M242.62,380.94c59.05,1.75,123.63,9.76,197.32,24.45C506.45,418.65,574.09,436,639.5,452.8c65.64,16.85,133.52,34.27,200.31,47.57,74.12,14.75,139.09,22.76,198.53,24.45l-.38,14.74-.58,21.85c-59.05-1.76-123.63-9.76-197.32-24.46-66.51-13.25-134.15-30.62-199.56-47.41C574.86,472.69,507,455.27,440.19,442c-74.12-14.76-139.09-22.76-198.53-24.46l.5-19.38.46-17.2m-2-2.06q-.54,20.3-1.06,40.59c266.57,7,533.15,136.69,799.72,144q.54-20.3,1.06-40.58c-266.57-7-533.15-136.69-799.72-144Z" transform="translate(-236 -114)"/><path class="cls-14" d="M240.63,383.51c133.26-3.65,268.66-38.41,399.62-72,130.5-33.5,265.43-68.13,398.11-71.93l1,38.59c-133.26,3.64-268.66,38.4-399.62,72-130.5,33.49-265.43,68.13-398.11,71.92Z" transform="translate(-236 -114)"/><path class="cls-15" d="M1037.38,240.59l.58,21.89.38,14.7c-59.44,1.69-124.41,9.7-198.53,24.45C773,314.93,705.14,332.35,639.5,349.2,574.09,366,506.44,383.35,439.94,396.61c-73.69,14.69-138.27,22.7-197.32,24.45l0-1-.93-35.56c59.44-1.7,124.41-9.7,198.53-24.45,66.79-13.3,134.67-30.72,200.31-47.57,65.41-16.79,133.06-34.16,199.56-47.41,73.69-14.7,138.27-22.7,197.32-24.46m1.95-2.05c-266.57,7.3-533.15,137-799.72,144q.52,20.3,1.06,40.59c266.57-7.31,533.15-137,799.72-144q-.53-20.3-1.06-40.58Z" transform="translate(-236 -114)"/><rect class="cls-14" x="4.53" y="267.38" width="798" height="38.6"/><path class="cls-15" d="M1037.53,382.38V419h-796v-36.6h796m2-2h-800V421h800v-40.6Z" transform="translate(-236 -114)"/></g><g id="text"><g id="arrow"><line class="cls-15" x1="12" y1="286.5" x2="112" y2="286.5"/><line class="cls-16" x1="12" y1="286.5" x2="110.92" y2="286.5"/><polygon class="cls-15" points="107.6 290.59 106.92 289.86 110.53 286.5 106.92 283.14 107.6 282.41 112 286.5 107.6 290.59"/></g><text class="cls-17" transform="translate(305.05 245.93) rotate(-12.5)">D<tspan class="cls-18" x="17.21" y="0">r</tspan><tspan class="cls-19" x="26.83" y="0">a</tspan><tspan class="cls-20" x="41.57" y="0">f</tspan><tspan class="cls-21" x="51" y="0">t Genomes </tspan><tspan class="cls-22" x="179.61" y="0">R</tspan><tspan x="195.81" y="0">econstruction</tspan></text><text class="cls-17" transform="translate(298.23 342.92) rotate(12.5)"><tspan class="cls-23">T</tspan><tspan x="12.41" y="0">a</tspan><tspan class="cls-24" x="27.14" y="0">x</tspan><tspan x="38.69" y="0">onomic Classification</tspan></text><text class="cls-25" transform="translate(65.67 248.76)">QC</text><text class="cls-25" transform="translate(140.77 192.76)">Assemb<tspan class="cls-26" x="87.14" y="0">l</tspan><tspan x="91.97" y="0">y</tspan></text><text class="cls-25" transform="translate(283.28 123.76)">Binning</text><text class="cls-25" transform="translate(528.79 79.76)">Annotation</text><text id="Taxonomic_Classification" data-name="Taxonomic Classification" class="cls-25" transform="translate(256.76 455.76)"><tspan class="cls-23">T</tspan><tspan x="11.9" y="0">a</tspan><tspan class="cls-26" x="26.18" y="0">x</tspan><tspan x="37.42" y="0">onomic</tspan><tspan x="-12.01" y="28.8">Classification</tspan></text><text class="cls-25" transform="translate(640.14 112.76)">P<tspan class="cls-24" x="14.26" y="0">h</tspan><tspan x="27.62" y="0">y</tspan><tspan class="cls-27" x="41.11" y="0">l</tspan><tspan x="46.06" y="0">o</tspan><tspan class="cls-28" x="60.19" y="0">g</tspan><tspan x="74.47" y="0">e</tspan><tspan class="cls-24" x="87.62" y="0">n</tspan><tspan x="101.23" y="0">y</tspan></text><g id="prot"><text class="cls-17" transform="translate(305.81 295.22)">P<tspan class="cls-29" x="14.4" y="0">r</tspan><tspan x="23.78" y="0">o</tspan><tspan class="cls-24" x="38.33" y="0">t</tspan><tspan x="47.33" y="0">ein Assemb</tspan><tspan class="cls-26" x="175.99" y="0">l</tspan><tspan x="181.7" y="0">y</tspan></text></g><text class="cls-25" transform="translate(385.53 262.15)">Assemb<tspan class="cls-26" x="87.14" y="0">l</tspan><tspan x="91.97" y="0">y</tspan></text><text class="cls-25" transform="translate(595.95 261.67)">Annotation</text></g></svg>