<svg xmlns="http://www.w3.org/2000/svg" viewBox="0 0 888 341.3"><defs><style>.cls-1{opacity:0.7;}.cls-2{fill:red;}.cls-3{fill:#ff7f00;}.cls-4{fill:#ff0;}.cls-5{fill:lime;}.cls-6{fill:#333;}.cls-7{fill:#fff;}.cls-8{fill:none;stroke:#fff;stroke-miterlimit:10;}.cls-9{font-size:30px;font-family:Quicksand-Regular, Quicksand;}.cls-10{letter-spacing:0em;}.cls-11{letter-spacing:-0.01em;}.cls-12{letter-spacing:-0.02em;}.cls-13{letter-spacing:0em;}.cls-14{letter-spacing:0.01em;}.cls-15{letter-spacing:-0.01em;}.cls-16{letter-spacing:0em;}.cls-17{letter-spacing:-0.06em;}.cls-18{letter-spacing:-0.1em;}.cls-19{letter-spacing:-0.01em;}.cls-20{letter-spacing:-0.02em;}.cls-21{letter-spacing:0em;}.cls-22{font-size:24px;font-family:Quicksand-Light, Quicksand;font-weight:300;}.cls-23{letter-spacing:-0.01em;}.cls-24{letter-spacing:0em;}.cls-25{letter-spacing:-0.01em;}.cls-26{letter-spacing:-0.02em;}.cls-27{letter-spacing:-0.01em;}.cls-28{letter-spacing:0em;}.cls-29{letter-spacing:0em;}</style></defs><g id="circle1"><g class="cls-1"><circle class="cls-2" cx="152.5" cy="163.8" r="67.5"/></g><g class="cls-1"><circle class="cls-2" cx="92.5" cy="161.8" r="41.5"/></g></g><g id="circle2"><g class="cls-1"><circle class="cls-3" cx="261" cy="164.3" r="77"/></g><g class="cls-1"><circle class="cls-3" cx="330" cy="161.3" r="40"/></g><g class="cls-1"><circle class="cls-3" cx="394" cy="162.3" r="43"/></g></g><g id="circle4"><g class="cls-1"><circle class="cls-4" cx="498.5" cy="163.8" r="87.5"/></g></g><g id="circle5"><g class="cls-1"><circle class="cls-5" cx="662" cy="161.3" r="96"/></g><g class="cls-1"><circle class="cls-5" cx="795" cy="161.3" r="59"/></g></g><g id="bar"><rect class="cls-6" x="57" y="146.3" width="798" height="30"/><path class="cls-7" d="M1028,404v28H232V404h796m2-2H230v32h800V402Z" transform="translate(-174 -256.7)"/><line class="cls-7" x1="386" y1="161.8" x2="486" y2="161.8"/><line class="cls-8" x1="386" y1="161.8" x2="484.92" y2="161.8"/><polygon class="cls-7" points="481.6 165.89 480.92 165.16 484.53 161.8 480.92 158.44 481.6 157.71 486 161.8 481.6 165.89"/></g><g id="text"><text class="cls-9" transform="translate(21.35 26.5)">Lit<tspan class="cls-10" x="32.55" y="0">t</tspan><tspan x="42.57" y="0">e</tspan><tspan class="cls-11" x="59.25" y="0">r</tspan><tspan x="70.44" y="0">atu</tspan><tspan class="cls-12" x="115.74" y="0">r</tspan><tspan x="126.63" y="0">e </tspan><tspan x="24.12" y="36">S</tspan><tspan class="cls-13" x="40.98" y="36">e</tspan><tspan x="57.78" y="36">a</tspan><tspan class="cls-12" x="75.84" y="36">r</tspan><tspan x="86.73" y="36">ch</tspan></text><text class="cls-9" transform="translate(29.54 290.5)"><tspan class="cls-14">D</tspan><tspan x="21.81" y="0">own</tspan><tspan class="cls-15" x="79.56" y="0">l</tspan><tspan x="86.16" y="0">oad </tspan><tspan class="cls-16" x="148.32" y="0">P</tspan><tspan x="166.05" y="0">ublic </tspan><tspan x="81.03" y="36">Data</tspan></text><text class="cls-9" transform="translate(277.76 26.5)">QC and<tspan x="-73.45" y="36">Adap</tspan><tspan class="cls-10" x="0.13" y="36">t</tspan><tspan x="10.15" y="36">er </tspan><tspan class="cls-17" x="46.57" y="36">T</tspan><tspan x="62.89" y="36">rimming</tspan></text><text class="cls-9" transform="translate(414.79 290.28)"><tspan class="cls-14">D</tspan><tspan x="21.81" y="0">enoising and</tspan><tspan class="cls-18" x="-57.83" y="36">T</tspan><tspan x="-42.71" y="36">a</tspan><tspan class="cls-19" x="-24.65" y="36">x</tspan><tspan x="-10.46" y="36">ono</tspan><tspan class="cls-10" x="42.57" y="36">m</tspan><tspan x="69.78" y="36">y Assignment</tspan></text><text class="cls-9" transform="translate(504.13 25.5)">Data Visuali<tspan class="cls-14" x="164.94" y="0">s</tspan><tspan x="179.25" y="0">ation and</tspan><tspan x="61" y="36">In</tspan><tspan class="cls-10" x="85.84" y="36">t</tspan><tspan x="95.86" y="36">erp</tspan><tspan class="cls-20" x="142.15" y="36">r</tspan><tspan class="cls-21" x="153.04" y="36">etation</tspan></text><text class="cls-9" transform="translate(715.22 290.5)">Modelling</text></g><g id="tools"><text class="cls-22" transform="translate(94 141.06)">s<tspan class="cls-23" x="11.16" y="0">r</tspan><tspan class="cls-24" x="19.7" y="0">a</tspan><tspan class="cls-25" x="33.98" y="0">t</tspan><tspan x="41.45" y="0">oolkit</tspan></text><text class="cls-22" transform="translate(221.06 141.06)">at<tspan class="cls-26" x="21.86" y="0">r</tspan><tspan x="30.17" y="0">opos</tspan></text><text class="cls-22" transform="translate(463.52 143.06)">dada2</text><text class="cls-22" transform="translate(652.03 143.06)">R</text><g id="latex"><text class="cls-22" transform="translate(752.84 143.06)">ggp<tspan class="cls-27" x="43.8" y="0">l</tspan><tspan x="48.74" y="0">ot2</tspan></text><text class="cls-22" transform="translate(752.07 199.56)">DESeq2</text></g><text class="cls-22" transform="translate(322.27 199.06)">fas<tspan class="cls-28" x="33.41" y="0">t</tspan><tspan x="40.87" y="0">qc</tspan></text><text class="cls-22" transform="translate(321.22 141.06)">mu<tspan class="cls-29" x="35.33" y="0">l</tspan><tspan x="40.44" y="0">tiqc</tspan></text></g></svg>