<?xml version="1.0" encoding="utf-8"?>
<!-- Generator: Adobe Illustrator 24.1.2, SVG Export Plug-In . SVG Version: 6.00 Build 0)  -->
<svg version="1.1" xmlns="http://www.w3.org/2000/svg" xmlns:xlink="http://www.w3.org/1999/xlink" x="0px" y="0px"
	 viewBox="0 0 721 305" style="enable-background:new 0 0 721 305;" xml:space="preserve">
<style type="text/css">
	.st0{font-family:'Quicksand-Regular';}
	.st1{font-size:21px;}
	.st2{fill:#009245;}
	.st3{fill:#0071BC;}
	.st4{fill:#F7931E;}
	.st5{fill:none;stroke:#C1272D;stroke-width:6;stroke-miterlimit:10;}
	.st6{fill:#C1272D;}
	.st7{fill:none;stroke:#009245;stroke-width:6;stroke-miterlimit:10;}
	.st8{fill:none;stroke:#F7931E;stroke-width:6;stroke-miterlimit:10;}
	.st9{fill:none;stroke:#0071BC;stroke-width:6;stroke-miterlimit:10;}
</style>
<g id="legend_x5F_letters">
	<text transform="matrix(1 0 0 1 135 83)" class="st0 st1">A</text>
	<text transform="matrix(1 0 0 1 310 83)" class="st0 st1">B</text>
	<text transform="matrix(1 0 0 1 510 83)" class="st0 st1">C</text>
</g>
<g id="legend">
</g>
<g id="chr">
	<g>
		<path class="st2" d="M171,127c14.3,0,26,11.7,26,26s-11.7,26-26,26s-26-11.7-26-26S156.7,127,171,127 M171,119
			c-18.8,0-34,15.2-34,34s15.2,34,34,34s34-15.2,34-34S189.8,119,171,119L171,119z"/>
	</g>
	<g>
		<path class="st3" d="M90.5,180c11.9,0,21.5,9.6,21.5,21.5S102.4,223,90.5,223S69,213.4,69,201.5S78.6,180,90.5,180 M90.5,172
			C74.2,172,61,185.2,61,201.5S74.2,231,90.5,231s29.5-13.2,29.5-29.5S106.8,172,90.5,172L90.5,172z"/>
	</g>
	<g>
		<path class="st4" d="M158.5,210c14.6,0,26.5,11.9,26.5,26.5c0,14.6-11.9,26.5-26.5,26.5S132,251.1,132,236.5
			C132,221.9,143.9,210,158.5,210 M158.5,202c-19.1,0-34.5,15.4-34.5,34.5c0,19.1,15.4,34.5,34.5,34.5s34.5-15.4,34.5-34.5
			C193,217.4,177.6,202,158.5,202L158.5,202z"/>
	</g>
</g>
<g id="arrows">
	<g>
		<line class="st5" x1="246" y1="166" x2="287" y2="166"/>
		<line class="st6" x1="246" y1="166" x2="287" y2="166"/>
		<g>
			<line class="st5" x1="246" y1="166" x2="287" y2="166"/>
			<g>
				<polygon class="st6" points="284.6,174.1 298.6,166 284.6,157.9 				"/>
			</g>
		</g>
	</g>
	<g>
		<line class="st5" x1="431" y1="166" x2="472" y2="166"/>
		<line class="st6" x1="431" y1="166" x2="472" y2="166"/>
		<g>
			<line class="st5" x1="431" y1="166" x2="472" y2="166"/>
			<g>
				<polygon class="st6" points="469.6,174.1 483.6,166 469.6,157.9 				"/>
			</g>
		</g>
	</g>
</g>
<g id="chrs">
	<g>
		<path class="st2" d="M322,118c6.6,0,12,5.4,12,12s-5.4,12-12,12s-12-5.4-12-12S315.4,118,322,118 M322,112c-9.9,0-18,8.1-18,18
			s8.1,18,18,18s18-8.1,18-18S331.9,112,322,112L322,112z"/>
	</g>
	<g>
		<path class="st3" d="M369,94c6.6,0,12,5.4,12,12s-5.4,12-12,12s-12-5.4-12-12S362.4,94,369,94 M369,88c-9.9,0-18,8.1-18,18
			c0,9.9,8.1,18,18,18s18-8.1,18-18C387,96.1,378.9,88,369,88L369,88z"/>
	</g>
	<g>
		<path class="st2" d="M328,183c6.6,0,12,5.4,12,12s-5.4,12-12,12s-12-5.4-12-12S321.4,183,328,183 M328,177c-9.9,0-18,8.1-18,18
			s8.1,18,18,18s18-8.1,18-18S337.9,177,328,177L328,177z"/>
	</g>
	<g>
		<path class="st4" d="M377,178c6.6,0,12,5.4,12,12s-5.4,12-12,12s-12-5.4-12-12S370.4,178,377,178 M377,172c-9.9,0-18,8.1-18,18
			s8.1,18,18,18s18-8.1,18-18S386.9,172,377,172L377,172z"/>
	</g>
	<g>
		<path class="st3" d="M405,130c6.6,0,12,5.4,12,12s-5.4,12-12,12s-12-5.4-12-12S398.4,130,405,130 M405,124c-9.9,0-18,8.1-18,18
			s8.1,18,18,18s18-8.1,18-18S414.9,124,405,124L405,124z"/>
	</g>
	<g>
		<path class="st2" d="M359,138c6.6,0,12,5.4,12,12s-5.4,12-12,12s-12-5.4-12-12S352.4,138,359,138 M359,132c-9.9,0-18,8.1-18,18
			s8.1,18,18,18s18-8.1,18-18S368.9,132,359,132L359,132z"/>
	</g>
</g>
<g id="pieces">
	<g>
		<line class="st7" x1="519" y1="124" x2="538" y2="124"/>
	</g>
	<g>
		<line class="st8" x1="538" y1="160" x2="557" y2="160"/>
	</g>
	<g>
		<line class="st9" x1="510" y1="160" x2="529" y2="160"/>
	</g>
	<g>
		<line class="st7" x1="538" y1="142" x2="557" y2="142"/>
	</g>
	<g>
		<line class="st8" x1="510" y1="177" x2="529" y2="177"/>
	</g>
	<g>
		<line class="st7" x1="582" y1="184" x2="601" y2="184"/>
	</g>
	<g>
		<line class="st9" x1="563" y1="195" x2="582" y2="195"/>
	</g>
	<g>
		<line class="st8" x1="573" y1="119" x2="592" y2="119"/>
	</g>
	<g>
		<line class="st9" x1="548" y1="112" x2="567" y2="112"/>
	</g>
	<g>
		<line class="st7" x1="583" y1="137" x2="602" y2="137"/>
	</g>
	<g>
		<line class="st7" x1="573" y1="168" x2="592" y2="168"/>
	</g>
	<g>
		<line class="st7" x1="563" y1="148" x2="582" y2="148"/>
	</g>
	<g>
		<line class="st7" x1="557" y1="130" x2="576" y2="130"/>
	</g>
	<g>
		<line class="st7" x1="553" y1="178" x2="572" y2="178"/>
	</g>
	<g>
		<line class="st9" x1="529" y1="195" x2="548" y2="195"/>
	</g>
	<g>
		<line class="st9" x1="622" y1="142" x2="641" y2="142"/>
	</g>
	<g>
		<line class="st9" x1="602" y1="172" x2="621" y2="172"/>
	</g>
	<g>
		<line class="st7" x1="602" y1="119" x2="621" y2="119"/>
	</g>
	<g>
		<line class="st8" x1="592" y1="155" x2="611" y2="155"/>
	</g>
</g>
<g id="pieces_x5F_ordered">
</g>
<g id="contig">
</g>
</svg>
