<svg xmlns="http://www.w3.org/2000/svg" xmlns:xlink="http://www.w3.org/1999/xlink" viewBox="0 0 1399.98 980"><defs><style>.cls-1{isolation:isolate;}.cls-2{fill:url(#radial-gradient);}.cls-3{fill:#6bc2dc;}.cls-4,.cls-8{fill:#3ebbdb;}.cls-4{opacity:0.69;}.cls-5{fill:#8ccbde;}.cls-6{opacity:0.56;}.cls-7{opacity:0.5;}.cls-9{fill:#56b2cc;}.cls-10{fill:#3bb0ce;opacity:0.41;}.cls-11{fill:#754c29;}.cls-12{fill:#875932;}.cls-13{fill:#684422;}.cls-14{fill:#8c6037;}.cls-15{fill:#603f1e;}.cls-16{fill:#6c4625;}.cls-17{fill:#5f3e1c;}.cls-18{fill:#825530;}.cls-19{fill:#7e532e;}.cls-20{fill:#784e2b;}.cls-21{fill:#9c7139;}.cls-22{fill:#946b35;}.cls-23,.cls-43{fill:none;}.cls-24{fill:#916934;}.cls-25{fill:#855c33;}.cls-26{fill:#6d4725;}.cls-27{fill:#7f532e;}.cls-28{fill:#603e1e;}.cls-29{fill:#6f4c28;}.cls-30{fill:#553618;}.cls-31{fill:#5d3c1b;}.cls-32{fill:#8e5e36;}.cls-33{fill:#96d9ec;}.cls-34{fill:#b6e4fa;}.cls-35{mix-blend-mode:multiply;}.cls-36{fill:#9dd8db;}.cls-37{fill:#026f45;}.cls-38{fill:#02a34e;}.cls-39{fill:#128151;}.cls-40{fill:#d17068;}.cls-41{font-size:41.66px;fill:#fff;font-family:Quicksand-Medium, Quicksand;}.cls-42{letter-spacing:-0.01em;}.cls-43{stroke:#fff;stroke-linecap:round;stroke-linejoin:round;stroke-width:2px;}.cls-44{letter-spacing:-0.01em;}.cls-45{letter-spacing:0em;}</style><radialGradient id="radial-gradient" cx="699.99" cy="490" r="604.19" gradientUnits="userSpaceOnUse"><stop offset="0" stop-color="#fff"/><stop offset="1" stop-color="#2484c6"/></radialGradient></defs><title>dive</title><g class="cls-1"><g id="bg"><rect class="cls-2" width="1399.98" height="980"/></g><g id="layer"><path class="cls-3" d="M1066.28,698c-14.73,13-21.57-5-41.24-5s-19.67,5.73-39.34,5.73S966,693,946.35,693s-19.67,5.73-39.34,5.73S628.34,693,608.67,693s-19.67,5.73-39.34,5.73S549.65,693,530,693s-19.67,5.73-39.34,5.73S471,693,451.29,693s-19.67,5.73-39.35,5.73S392.27,693,372.59,693s-19.67,5.73-39.35,5.73S313.56,693,293.89,693s-39.71,21.93-40.44,2.27c-.84-22.44,3.94-16.82,3.94-34.23s-5.72-17.4-5.72-34.81,5.72-17.41,5.72-34.82-5.72-17.41-5.72-34.82,5.72-17.41,5.72-34.81-5.72-17.41-5.72-34.82,5.72-17.41,5.72-34.81-5.72-17.41-5.72-34.82,5.72-17.41,5.72-34.82-5.72-17.41-5.72-34.82,5.72-17.42,5.72-34.83-5.72-17.41-5.72-34.82,5.72-17.41,5.72-34.83-17.8-25.43-4.76-37c14.73-13,21.57,5,41.24,5s19.68-5.73,39.35-5.73,19.67,5.73,39.34,5.73,19.67-5.73,39.35-5.73,19.67,5.73,39.34,5.73,19.67-5.73,39.34-5.73,19.67,5.73,39.35,5.73,19.67-5.73,39.34-5.73,19.68,5.73,39.35,5.73S887.3,205.53,907,205.53s19.68,5.73,39.35,5.73,19.68-5.73,39.35-5.73,19.68,5.73,39.36,5.73,26.51-18,41.25-5c13,11.54-4.76,19.55-4.76,37s5.73,17.41,5.73,34.82-5.73,17.41-5.73,34.82,5.73,17.41,5.73,34.81-5.73,17.41-5.73,34.82,5.73,17.41,5.73,34.82-5.73,17.4-5.73,34.81,5.73,17.41,5.73,34.82-5.73,17.41-5.73,34.82,5.73,17.41,5.73,34.82-5.73,17.41-5.73,34.82,5.73,17.42,5.73,34.83-9.83,18.61-5.64,35.51C1066.4,681.05,1079.32,686.47,1066.28,698Z" transform="translate(-0.01)"/><path class="cls-4" d="M252,206.87l0,0a2.28,2.28,0,0,0-.22.22Z" transform="translate(-0.01)"/><path class="cls-5" d="M1126.9,156.13c-19.57-2.08-12.49,9.42-32.16,9.42s-19.68-5.73-39.36-5.73-19.68,5.73-39.35,5.73-19.68-5.73-39.35-5.73-19.68,5.73-39.35,5.73S658.66,159.82,639,159.82s-19.68,5.73-39.35,5.73-19.67-5.73-39.34-5.73-19.67,5.73-39.34,5.73-19.67-5.73-39.35-5.73-19.67,5.73-39.34,5.73-19.68-5.73-39.35-5.73-19.67,5.73-39.34,5.73-20-7.35-39.58-5.72c-3.07.26-12,4.36-14.43,6.2s-4.3,7.24-6.76,9.07-10.5,4-13,5.85-4.27,7-6.73,8.85-10.38,3.26-13,4.87c-3,1.88-4.48,4.77-6,6.91,8.38.71,15.87,9.68,29.74,9.68,19.68,0,19.68-5.73,39.35-5.73s19.67,5.73,39.34,5.73,19.67-5.73,39.35-5.73,19.67,5.73,39.34,5.73,19.67-5.73,39.34-5.73,19.67,5.73,39.35,5.73,19.67-5.73,39.34-5.73,19.68,5.73,39.35,5.73S887.3,205.53,907,205.53s19.68,5.73,39.35,5.73,19.68-5.73,39.35-5.73,19.68,5.73,39.36,5.73c18.9,0,26-16.64,39.55-6.39,28.46-13.67,59.91-31.45,61.39-32.55C1128.43,170.48,1130,156.46,1126.9,156.13Z" transform="translate(-0.01)"/><g class="cls-6"><g class="cls-7"><path class="cls-8" d="M309.66,198.35c19.24-1.29,16.8-3.87,28.16-2.56,19.54,2.26,19.67,5.73,39.34,5.73s19.67-5.73,39.34-5.73,19.68,5.73,39.35,5.73,19.67-5.73,39.34-5.73,19.67,5.73,39.34,5.73,19.68-5.73,39.35-5.73,19.67,5.73,39.35,5.73,278.67-5.73,298.34-5.73,19.68,5.73,39.35,5.73,19.68-5.73,39.35-5.73,19.68,5.67,39.36,5.73c11.34,0,17.35-8.6,26.25-10.65s15,1.31,15,1.31c-14.74-13-21.57,5-41.25,5s-19.68-5.73-39.36-5.73-19.67,5.73-39.35,5.73-19.67-5.73-39.35-5.73-278.67,5.73-298.34,5.73-19.68-5.73-39.35-5.73-19.67,5.73-39.35,5.73-19.67-5.73-39.34-5.73-19.67,5.73-39.34,5.73-19.67-5.73-39.35-5.73-19.67,5.73-39.34,5.73-19.67-5.73-39.34-5.73-19.68,5.73-39.35,5.73A29.06,29.06,0,0,0,309.66,198.35Z" transform="translate(-0.01)"/></g><g class="cls-7"><path class="cls-8" d="M320.64,184.28c19.23-1.3,16.79-3.87,28.15-2.56,19.54,2.26,19.67,5.73,39.34,5.73s19.67-5.73,39.35-5.73,19.67,5.73,39.34,5.73,19.67-5.73,39.34-5.73,19.67,5.73,39.34,5.73,19.68-5.73,39.35-5.73,19.67,5.73,39.35,5.73,278.67-5.73,298.34-5.73,19.68,5.73,39.35,5.73,19.68-5.73,39.35-5.73,19.68,5.67,39.36,5.73c11.34,0,18.86-6.52,27.76-8.57s14.62.44,14.62.44c-14.74-13-22.7,3.8-42.38,3.8s-19.68-5.73-39.36-5.73-19.67,5.73-39.35,5.73-19.67-5.73-39.35-5.73-278.67,5.73-298.34,5.73-19.68-5.73-39.35-5.73-19.67,5.73-39.35,5.73-19.67-5.73-39.34-5.73-19.67,5.73-39.34,5.73-19.67-5.73-39.34-5.73-19.68,5.73-39.35,5.73-19.67-5.73-39.34-5.73-19.68,5.73-39.35,5.73A29.14,29.14,0,0,0,320.64,184.28Z" transform="translate(-0.01)"/></g><g class="cls-7"><path class="cls-8" d="M335.07,171.31c19.23-1.29,16.79-3.86,28.15-2.55,19.55,2.25,19.68,5.72,39.35,5.72s19.67-5.72,39.34-5.72,19.68,5.72,39.35,5.72,19.67-5.72,39.34-5.72,19.67,5.72,39.34,5.72,19.67-5.72,39.35-5.72,19.67,5.72,39.34,5.72,278.68-5.72,298.35-5.72,19.68,5.72,39.35,5.72,19.67-5.72,39.35-5.72,19.68,5.66,39.36,5.72c11.34,0,19-3,27.94-5s19.34,1.92,19.34,1.92c-14.74-13-27.61-1.22-47.28-1.22s-19.68-5.72-39.36-5.72-19.68,5.72-39.35,5.72-19.67-5.72-39.35-5.72-278.67,5.72-298.35,5.72-19.67-5.72-39.34-5.72-19.68,5.72-39.35,5.72-19.67-5.72-39.34-5.72-19.67,5.72-39.34,5.72-19.67-5.72-39.35-5.72-19.67,5.72-39.34,5.72-19.67-5.72-39.35-5.72-19.67,5.72-39.34,5.72A29.06,29.06,0,0,0,335.07,171.31Z" transform="translate(-0.01)"/></g></g><path class="cls-9" d="M1126.3,650.35c-.38,3-73.46,49-73.94,45.95-2.73-17.2,5.68-17.86,5.68-35.27s-5.72-17.41-5.72-34.82,5.72-17.4,5.72-34.81-5.72-17.41-5.72-34.82,5.72-17.41,5.72-34.82-5.72-17.41-5.72-34.81,5.72-17.41,5.72-34.82-5.72-17.41-5.72-34.82,5.72-17.41,5.72-34.82-5.72-17.41-5.72-34.82,5.72-17.41,5.72-34.82-5.72-17.41-5.72-34.82,5.72-17.42,5.72-34.83-19.35-30.2-5.65-40.95c3.91-3.06,9.8,2.61,19-4.09,4.34-3.15,6.11-9.54,11.21-13.1,4.48-3.13,13.8-2.45,18.29-5.49,5.6-3.8,6.29-11.24,11-14.24,8.74-5.63,15.92-8.39,16.05-7.52,2.73,17.2-6.68,17-6.68,34.44s5.72,17.41,5.72,34.81-5.72,17.41-5.72,34.82,5.72,17.41,5.72,34.82-5.72,17.41-5.72,34.82,5.72,17.4,5.72,34.81-5.72,17.41-5.72,34.82S1127,418.55,1127,436s-5.72,17.41-5.72,34.82,5.72,17.42,5.72,34.83-5.72,17.41-5.72,34.82,5.72,17.41,5.72,34.82-7.37,17.77-5.71,35.1C1122.94,628,1128.51,633.08,1126.3,650.35Z" transform="translate(-0.01)"/><path class="cls-10" d="M325.65,650.38c-.39,3-71.72,47.92-72.2,44.9-2.72-17.2,3.94-16.82,3.94-34.23s-5.72-17.4-5.72-34.81,5.72-17.41,5.72-34.82-5.72-17.41-5.72-34.82,5.72-17.41,5.72-34.81-5.72-17.41-5.72-34.82,5.72-17.41,5.72-34.81-5.72-17.41-5.72-34.82,5.72-17.41,5.72-34.82-5.72-17.41-5.72-34.82,5.72-17.42,5.72-34.83-5.72-17.41-5.72-34.82,5.72-17.41,5.72-34.83-17.09-24.5-5.46-36.32c.48-.48,5.89-.9,11.86-4.66,2-1.25,2.62-5,4.92-6.7s9.1-2.2,13-4.87,3.53-6.72,7.36-9.25c2.84-1.88,7.88-2.45,12.33-5.44,2.89-1.94,4.6-8,6.76-9.07,9.25-4.71,15.21-6.77,19.59-6.44a79.44,79.44,0,0,0-7.16,31.8c0,17.41,5.73,17.41,5.73,34.82s-5.73,17.41-5.73,34.81,5.73,17.41,5.73,34.82-5.73,17.41-5.73,34.82,5.73,17.41,5.73,34.81-5.73,17.41-5.73,34.82,5.73,17.41,5.73,34.82-5.73,17.41-5.73,34.82,5.73,17.41,5.73,34.82-5.73,17.41-5.73,34.82,5.73,17.41,5.73,34.83-7.37,17.76-5.71,35.1C322.29,628.05,327.86,633.1,325.65,650.38Z" transform="translate(-0.01)"/><polygon class="cls-11" points="1068.05 695.27 253.44 695.27 250.58 730.55 248.32 735.39 252.95 745.13 253.03 783.67 248.8 786.86 245.26 798.36 253.44 806 253.44 813.55 256.76 820.27 263.49 821.48 350.42 830.03 395.26 821.48 434.12 821.48 475.6 827.7 505.78 830.03 530.77 821.48 564.67 821.48 638.5 827.7 966.36 821.48 989.47 821.48 1012.73 828.89 1031.21 830.71 1068.05 821.48 1068.05 695.27"/><path class="cls-12" d="M336.89,828.7c12.56-11.11,31.8-25,48.49-26.69,23-2.28,46.14-2.53,69.08-5.18s46-7.86,66.06-19.29c17.37-9.89,32-24.13,49.35-34,12.17-6.92,25.61-12.18,33-24-18.5,4.44-34.26,16.13-50.93,25.31-59.29,32.67-130,33.73-197.47,39.8-35.32,3.19-73.53,9.06-98.42,34.32l.67,1.36,5.82,1.21Z" transform="translate(-0.01)"/><path class="cls-13" d="M505.79,830c5.91-7.66,19.5-20.21,28.23-24.36a109.23,109.23,0,0,0,26.69-17.91c4.91-4.47,9.4-9.38,14.19-14,27.78-26.72,323.51-42.2,360.57-52.77-9.93-1.45-18.42.32-28.45-.13C882.4,719.78,600.43,733,581,748.15s-37.24,32.94-59.41,43.71c-23,11.18-65.75,16.07-87.46,29.62l41.48,6.22Z" transform="translate(-0.01)"/><path class="cls-12" d="M751.45,826.83c4.62-20.6,163.91-46.57,177-63.1,15.6-19.61,40.14-29.31,61-43.19,12-8,4-15.75-5.75-6.75C976,721,970,727.86,960.38,733.25c-18.21,10.21-38.59,15.68-57.25,24.93-17.88,8.86-293,21.31-306,36.38-8.53,9.83-16.1,20.5-27.41,26.92l68.83,6.22Z" transform="translate(-0.01)"/><path class="cls-13" d="M954.21,822.58c2.93-16.9,12.72-34.23,24.88-46.32s26.82-21.34,41.69-29.89c9.91-5.69,20.07-11.18,28.65-18.74s15.32-17.46,16.86-28.79c-13.49,14.72-32.66,22.56-50.72,31.07-20.86,9.84-41.18,21.25-58.66,36.3s-32.51,37.92-40,59.74Z" transform="translate(-0.01)"/><path class="cls-13" d="M253.07,777.79c24.67-28.89,64.68-40,102.55-42.95s76.46,0,113.47-8.56c2.34-.54,5-1.35,6-3.49s.43-3.78-1.91-3.25C416.62,732.13,358,729.57,300,731.87c-17.43.7-34.4.53-46.58,13l-6,2.94L253,761.24l-2,1.25v4.35l2,2.78Z" transform="translate(-0.01)"/><polygon class="cls-14" points="253.44 695.27 242.83 708.97 260 726.75 289.27 714.48 253.44 695.27"/><polygon class="cls-14" points="250.58 730.55 248.32 735.39 255.45 737.64 250.58 730.55"/><polygon class="cls-15" points="260 726.75 242.83 708.97 245.46 723.11 255.45 737.64 255.81 737.66 260 726.75"/><polygon class="cls-15" points="248.32 735.39 255.81 737.66 252.95 745.13 248.32 735.39"/><polyline class="cls-14" points="252.95 745.13 261.85 750.59 249.37 752.44 247.46 747.83 252.95 745.13"/><polygon class="cls-14" points="253.03 783.67 264.72 785.51 257.85 789.07 248.8 786.86 253.03 783.67"/><polygon class="cls-13" points="264.72 785.51 260.05 799.84 257.76 799.84 257.85 789.07 264.72 785.51"/><polygon class="cls-15" points="257.76 799.84 245.26 798.36 253.44 806 260.05 799.84 257.76 799.84"/><polygon class="cls-13" points="289.27 714.48 261.85 750.59 252.95 745.13 260 726.75 289.27 714.48"/><path class="cls-12" d="M1067.94,762.3a5.89,5.89,0,0,1-2.52.77c-10.37,1.55-20.78,3.62-30.37,7.87s-18.41,10.84-23.78,19.86c-5.48,9.2-8.86,23.73-10.29,34.34l11.76,3.75,18.48,1.82,12-3c-1.94-4.26-8.2-15-8.15-19.65.09-8.88,2.93-17.94,9-24.4s15.48-9.77,24-7.48l-4.19-8.94,4.19-5A1.27,1.27,0,0,0,1067.94,762.3Z" transform="translate(-0.01)"/><polygon class="cls-16" points="1127.28 659.38 1068.05 695.27 1068.05 821.48 1092.76 809.9 1100.06 802 1118.16 795.38 1127.28 785.43 1134.75 738.76 1127.28 695.36 1127.28 659.38"/><polygon class="cls-16" points="1068.05 721.32 1060.44 740.43 1064.25 753.08 1068.05 753.08 1068.05 721.32"/><polygon class="cls-17" points="1060.44 740.43 1070.8 741.48 1073.22 731.24 1068.05 721.32 1060.44 740.43"/><polygon class="cls-18" points="1060.44 740.43 1064.25 753.08 1068.05 753.08 1070.8 741.48 1060.44 740.43"/><polygon class="cls-11" points="1067.98 795.38 1077.09 802.74 1074.94 818.52 1069.06 824.43 1058.8 824.43 1054.42 821.48 1067.98 795.38"/><path class="cls-19" d="M1108.26,677.21l-1.56.42-.34.75c-6.58,13-13.19,26-17.23,40-2.31,8-3.79,16.34-7.31,23.91-3.2,6.87-8,12.88-12.7,18.81a6.45,6.45,0,0,1-1,1.1l-4.19,5,4.19,8.94.26.07,5.76-4.31a31.6,31.6,0,0,0,6.5-5.86c5.86-7.66,3.72-18.73,7.12-27.75,1.54-4.11,4.19-7.68,6.2-11.57,5.55-10.74,6-23.4,10.54-34.6C1106.41,687.31,1109.18,682.35,1108.26,677.21Z" transform="translate(-0.01)"/><polygon class="cls-20" points="1068.05 778.8 1071.72 780.3 1071.72 787.84 1068.05 793.21 1064.25 788.45 1068.05 778.8"/><polygon class="cls-12" points="1068.05 778.8 1063.55 780.57 1061.87 788.45 1064.25 788.45 1068.05 778.8"/><polygon class="cls-17" points="1061.87 788.45 1068.05 793.21 1064.25 788.45 1061.87 788.45"/><path class="cls-21" d="M254.62,677.93c6.83-3.25,6.84-7.76,15.87-9.81,7.14-1.62,12.24-11.73,19.83-13,10.67-1.77,15.61-8,22.43-9.16a39.68,39.68,0,0,1,15.66.37s12.78.51,19.41,0c51.25-3.94,55.65-2.25,107,.77,21.58,1.27,43.14,3.78,64.76,3.35,36.75-.72,72.88-9.89,109.6-11.62,28.56-1.36,316.13,1.8,344.73,2.2,50.77.72,103.54-7.39,152.07,7.55,2.44,6.6-3.42,14.62-8.5,19.49s-11.83,7.53-18.48,9.85c-40.7,14.2-83.74,20.15-126.45,26-60.58,8.33-380.58,9.23-441.73,10.16-40.21.61-80.15,5.46-120.29,2.86l-109.83-7.12c-10.74-.69-21.87-1.5-31.31-6.67S254.62,677.93,254.62,677.93Z" transform="translate(-0.01)"/><path class="cls-22" d="M453.28,670.31c1.08,3,7.53,3.23,10.7,3.49a55,55,0,0,0,26.49-4.41c4.92-2.16,10.1-5.12,15.32-3.84a45.52,45.52,0,0,0-13.48-.73c-12,1.13-23.58,7-35.51,5.41a7,7,0,0,0-3.52.08" transform="translate(-0.01)"/><path class="cls-22" d="M578.52,672a71.41,71.41,0,0,0,30,2.36c18-2.43,291.78-6.51,309.81-4.56,16.76,1.81,34.75,8.06,51.4,5.42q-14.93-5-30-9.33c-9.92-2.87-20.1-5.58-30.41-5.06-14.35.73-286.61,7.62-300.65,10.66-9.72,2.11-19.76,2.35-29.68,1.73" transform="translate(-0.01)"/><path class="cls-22" d="M1047.86,658.49c-.45,4.21-3.52,7.83-7.26,9.81s-8.09,2.53-12.33,2.53a52.2,52.2,0,0,1-14-1.91c-.69-.19-1.51-.57-1.52-1.29s1-1.14,1.71-1.3l31.76-6.32" transform="translate(-0.01)"/><path class="cls-22" d="M347.21,661.62l-31.38,2.45a5.79,5.79,0,0,0-3.45,1c-1.67,1.46-1,4.4.71,5.79s4.07,1.66,6.28,1.87L332.24,674c13.85,1.35,28.9,2.43,40.64-5.06l-18.17-4.73a25.06,25.06,0,0,1-7.78-3" transform="translate(-0.01)"/><path class="cls-23" d="M1052.36,696.3c.14.92,7.1-3.19,16.71-9.42q-8.58,2.19-17.24,4.07A41.75,41.75,0,0,0,1052.36,696.3Z" transform="translate(-0.01)"/><path class="cls-24" d="M1058,661c0,15.4-6.57,17.7-6.21,29.92q8.67-1.87,17.24-4.07c18-11.68,57.79-27.5,56.87-38.3-22.64-6.72-48.3-8.77-72-8.93C1055.64,645.78,1058,649.75,1058,661Z" transform="translate(-0.01)"/><path class="cls-14" d="M254.62,677.93l61.12,13.6c12.4,2.75,25,5.53,37.7,4.51,17.37-1.4,33.69-9.85,51.1-10.47,19.75-.69,38.64,8.76,58.4,9.21,16.95.38,33.41-5.88,50.35-6.64,9.89-.45,19.76,1,29.61,2,75.28,7.42,410.24-12.4,485.54-5.23,13.6,1.3,29.76,2.51,38.39-8.09-.06,9.37,1.13,22,1.13,22a37.68,37.68,0,0,1-5.74,2.35C998.58,719.74,666.9,724,600.64,721.38q-94.47-3.69-189-.86c-44.27,1.33-89.44,3.62-132-8.57-8.12-2.32-20.2-10.66-26.12-16.67C253.45,695.28,250.92,685.61,254.62,677.93Z" transform="translate(-0.01)"/><path class="cls-25" d="M1067.06,696.38a11,11,0,0,0,.9,2.41,9.44,9.44,0,0,0,3.7.6c4.47-.94,8.47-3.39,12.3-5.88a310.57,310.57,0,0,0,40.81-31.72c.91-.83,2.52-2.41,2.52-2.41s.11-2.41,0-3.41c-.22-3.53-.64-6.07-.64-9.64-1.43,5.5-6,11.44-11.57,12.75-3.83.91-7.69-1.11-11.6-1.56-7-.8-13.5,3.41-19,7.84s-10.91,9.49-17.8,10.87A77.68,77.68,0,0,0,1067.06,696.38Z" transform="translate(-0.01)"/><path class="cls-26" d="M359,757.67a2.75,2.75,0,1,1-2.75-2.74A2.75,2.75,0,0,1,359,757.67Z" transform="translate(-0.01)"/><path class="cls-26" d="M349.81,766.68a2,2,0,1,1-2-2A2,2,0,0,1,349.81,766.68Z" transform="translate(-0.01)"/><path class="cls-26" d="M373.72,766.68a.94.94,0,1,1-.94-.94A.94.94,0,0,1,373.72,766.68Z" transform="translate(-0.01)"/><path class="cls-26" d="M341.05,753.5a4.17,4.17,0,1,1-4.16-4.16A4.16,4.16,0,0,1,341.05,753.5Z" transform="translate(-0.01)"/><path class="cls-26" d="M392.05,751.41a2.1,2.1,0,1,1-2.1-2.1A2.09,2.09,0,0,1,392.05,751.41Z" transform="translate(-0.01)"/><path class="cls-26" d="M599.19,767.62a3.73,3.73,0,1,0,3.73-3.73A3.73,3.73,0,0,0,599.19,767.62Z" transform="translate(-0.01)"/><path class="cls-27" d="M591.7,770.4a.94.94,0,1,1-.94-.94A.94.94,0,0,1,591.7,770.4Z" transform="translate(-0.01)"/><path class="cls-26" d="M602.9,782.92A1.95,1.95,0,1,1,601,781,1.94,1.94,0,0,1,602.9,782.92Z" transform="translate(-0.01)"/><path class="cls-26" d="M608.72,777.58a1.09,1.09,0,1,1-1.09-1.09A1.09,1.09,0,0,1,608.72,777.58Z" transform="translate(-0.01)"/><path class="cls-27" d="M584.93,781.83a1.09,1.09,0,1,1-1.09-1.09A1.09,1.09,0,0,1,584.93,781.83Z" transform="translate(-0.01)"/><circle class="cls-26" cx="504.02" cy="741.6" r="3.28"/><path class="cls-26" d="M497.48,749.51a1.35,1.35,0,1,1-1.35-1.35A1.35,1.35,0,0,1,497.48,749.51Z" transform="translate(-0.01)"/><path class="cls-26" d="M487.45,741.6a1.74,1.74,0,1,1-1.74-1.73A1.74,1.74,0,0,1,487.45,741.6Z" transform="translate(-0.01)"/><path class="cls-26" d="M485.71,757.42a3.47,3.47,0,1,1-3.47-3.47A3.47,3.47,0,0,1,485.71,757.42Z" transform="translate(-0.01)"/><path class="cls-26" d="M500.76,757.42a2.13,2.13,0,1,1-2.12-2.12A2.12,2.12,0,0,1,500.76,757.42Z" transform="translate(-0.01)"/><circle class="cls-27" cx="435.09" cy="760.89" r="3"/><path class="cls-27" d="M446.05,758.3a2.59,2.59,0,1,1-2.59-2.59A2.59,2.59,0,0,1,446.05,758.3Z" transform="translate(-0.01)"/><path class="cls-26" d="M417.83,807.46a4.5,4.5,0,1,1-4.5-4.49A4.5,4.5,0,0,1,417.83,807.46Z" transform="translate(-0.01)"/><path class="cls-26" d="M425.48,812.8a.93.93,0,1,1-.92-.92A.92.92,0,0,1,425.48,812.8Z" transform="translate(-0.01)"/><path class="cls-26" d="M435.23,804.35a3.52,3.52,0,1,1-3.51-3.52A3.52,3.52,0,0,1,435.23,804.35Z" transform="translate(-0.01)"/><path class="cls-26" d="M437.09,809.41a.68.68,0,1,1-.68-.68A.68.68,0,0,1,437.09,809.41Z" transform="translate(-0.01)"/><path class="cls-27" d="M440.05,815.52a1.85,1.85,0,1,1-1.85-1.85A1.85,1.85,0,0,1,440.05,815.52Z" transform="translate(-0.01)"/><path class="cls-27" d="M446,809.41a2.55,2.55,0,1,1-2.55-2.55A2.55,2.55,0,0,1,446,809.41Z" transform="translate(-0.01)"/><path class="cls-26" d="M404.79,808.73a1.36,1.36,0,1,1-1.35-1.36A1.35,1.35,0,0,1,404.79,808.73Z" transform="translate(-0.01)"/><path class="cls-26" d="M990.4,733a2.65,2.65,0,1,1-2.65-2.65A2.65,2.65,0,0,1,990.4,733Z" transform="translate(-0.01)"/><path class="cls-26" d="M983.33,740.35a1.1,1.1,0,1,1-1.1-1.1A1.1,1.1,0,0,1,983.33,740.35Z" transform="translate(-0.01)"/><path class="cls-26" d="M977.38,746a1.55,1.55,0,1,1-1.55-1.54A1.55,1.55,0,0,1,977.38,746Z" transform="translate(-0.01)"/><path class="cls-26" d="M1027.25,770.2a4.85,4.85,0,1,1-4.85-4.85A4.85,4.85,0,0,1,1027.25,770.2Z" transform="translate(-0.01)"/><path class="cls-26" d="M1034.32,763.8a1.55,1.55,0,1,1-1.55-1.55A1.55,1.55,0,0,1,1034.32,763.8Z" transform="translate(-0.01)"/><path class="cls-27" d="M1039.18,762.25a1.55,1.55,0,1,1-1.55-1.55A1.56,1.56,0,0,1,1039.18,762.25Z" transform="translate(-0.01)"/><path class="cls-26" d="M1015.12,770.2a2.43,2.43,0,1,1-2.43-2.43A2.42,2.42,0,0,1,1015.12,770.2Z" transform="translate(-0.01)"/><path class="cls-26" d="M1014.46,777a1.77,1.77,0,1,1-1.77-1.77A1.76,1.76,0,0,1,1014.46,777Z" transform="translate(-0.01)"/><path class="cls-26" d="M1031.4,758.1a2.6,2.6,0,1,1-2.6-2.6A2.6,2.6,0,0,1,1031.4,758.1Z" transform="translate(-0.01)"/><path class="cls-26" d="M1004.93,795.38a3.95,3.95,0,1,1-3.95-4A3.95,3.95,0,0,1,1004.93,795.38Z" transform="translate(-0.01)"/><path class="cls-27" d="M1010.92,799.32a2.66,2.66,0,1,1-2.65-2.66A2.66,2.66,0,0,1,1010.92,799.32Z" transform="translate(-0.01)"/><path class="cls-27" d="M1002.4,808.27a3.39,3.39,0,1,1-3.39-3.39A3.39,3.39,0,0,1,1002.4,808.27Z" transform="translate(-0.01)"/><path class="cls-27" d="M1010.26,808.73a2,2,0,1,1-2-2A2,2,0,0,1,1010.26,808.73Z" transform="translate(-0.01)"/><path class="cls-26" d="M994.31,799.32a1.67,1.67,0,1,1-1.67-1.67A1.67,1.67,0,0,1,994.31,799.32Z" transform="translate(-0.01)"/><circle class="cls-26" cx="1002.95" cy="802.25" r="0.61"/><path class="cls-26" d="M1016.22,802a.76.76,0,0,1-.76.76.76.76,0,1,1,0-1.52A.76.76,0,0,1,1016.22,802Z" transform="translate(-0.01)"/><path class="cls-27" d="M1011.57,791.94a1.52,1.52,0,1,1-1.52-1.52A1.52,1.52,0,0,1,1011.57,791.94Z" transform="translate(-0.01)"/><path class="cls-27" d="M1016.79,792.85a1,1,0,1,1-.95-1A.95.95,0,0,1,1016.79,792.85Z" transform="translate(-0.01)"/><path class="cls-26" d="M1050.05,796.66a3.46,3.46,0,1,1-3.45-3.45A3.45,3.45,0,0,1,1050.05,796.66Z" transform="translate(-0.01)"/><path class="cls-27" d="M1058.81,793.8a1.57,1.57,0,1,1-1.57-1.57A1.57,1.57,0,0,1,1058.81,793.8Z" transform="translate(-0.01)"/><path class="cls-28" d="M1088.72,716.33c0,4-1.08,7.2-2.4,7.2s-2.4-3.23-2.4-7.2,1.07-7.19,2.4-7.19S1088.72,712.36,1088.72,716.33Z" transform="translate(-0.01)"/><path class="cls-28" d="M1079.27,717.08c0,1-.32,1.81-.72,1.81s-.72-.81-.72-1.81.32-1.8.72-1.8S1079.27,716.09,1079.27,717.08Z" transform="translate(-0.01)"/><path class="cls-11" d="M1096.81,722.51c0,2-.28,3.61-.64,3.61s-.64-1.62-.64-3.61.29-3.62.64-3.62S1096.81,720.51,1096.81,722.51Z" transform="translate(-0.01)"/><path class="cls-11" d="M1091.32,724.82c0,.72-.27,1.3-.6,1.3s-.6-.58-.6-1.3.26-1.29.6-1.29S1091.32,724.11,1091.32,724.82Z" transform="translate(-0.01)"/><path class="cls-11" d="M1087.46,731.24c0,.7-.25,1.27-.57,1.27s-.57-.57-.57-1.27.25-1.26.57-1.26S1087.46,730.54,1087.46,731.24Z" transform="translate(-0.01)"/><ellipse class="cls-28" cx="1079.92" cy="734.49" rx="0.66" ry="1.99"/><path class="cls-11" d="M1104.52,770.31c0,2.74-.72,5-1.61,5s-1.61-2.22-1.61-5,.72-5,1.61-5S1104.52,767.57,1104.52,770.31Z" transform="translate(-0.01)"/><path class="cls-28" d="M1097.68,763.49c0,1.7-.48,3.08-1.07,3.08s-1.08-1.38-1.08-3.08.48-3.07,1.08-3.07S1097.68,761.8,1097.68,763.49Z" transform="translate(-0.01)"/><path class="cls-11" d="M1102.91,761.33c0,.51-.14.92-.32.92s-.32-.41-.32-.92.14-.91.32-.91S1102.91,760.83,1102.91,761.33Z" transform="translate(-0.01)"/><path class="cls-11" d="M1106.93,777.92a.74.74,0,1,1-.72-.88A.81.81,0,0,1,1106.93,777.92Z" transform="translate(-0.01)"/><path class="cls-11" d="M1099.05,774.83c0,1.22-.15,2.21-.32,2.21s-.33-1-.33-2.21.15-2.21.33-2.21S1099.05,773.61,1099.05,774.83Z" transform="translate(-0.01)"/><path class="cls-28" d="M1094.22,770.7c0,2.28-.65,4.13-1.45,4.13s-1.45-1.85-1.45-4.13.65-4.13,1.45-4.13S1094.22,768.42,1094.22,770.7Z" transform="translate(-0.01)"/><path class="cls-28" d="M1107.74,769.92c0,.43-.18.78-.41.78s-.4-.35-.4-.78.18-.77.4-.77S1107.74,769.49,1107.74,769.92Z" transform="translate(-0.01)"/><path class="cls-11" d="M1098.73,769.64a.46.46,0,0,1-.42.49.5.5,0,0,1,0-1A.46.46,0,0,1,1098.73,769.64Z" transform="translate(-0.01)"/><path class="cls-11" d="M1096.28,773.45c0,.45-.07.82-.14.82s-.14-.37-.14-.82.07-.83.14-.83S1096.28,773,1096.28,773.45Z" transform="translate(-0.01)"/><path class="cls-28" d="M1088.42,771.58c0,.48-.17.88-.38.88s-.39-.4-.39-.88.18-.88.39-.88S1088.42,771.09,1088.42,771.58Z" transform="translate(-0.01)"/><path class="cls-28" d="M1088.42,767.23c0,.77-.28,1.4-.63,1.4s-.64-.63-.64-1.4.29-1.39.64-1.39S1088.42,766.47,1088.42,767.23Z" transform="translate(-0.01)"/><path class="cls-28" d="M1119.64,718.3c0,1.66-.62,3-1.39,3s-1.38-1.36-1.38-3,.62-3,1.38-3S1119.64,716.63,1119.64,718.3Z" transform="translate(-0.01)"/><path class="cls-11" d="M1122.3,725.26c0,1-.24,1.73-.54,1.73s-.55-.77-.55-1.73.25-1.73.55-1.73S1122.3,724.3,1122.3,725.26Z" transform="translate(-0.01)"/><path class="cls-11" d="M1116.87,723.2c0,.63-.14,1.14-.31,1.14s-.3-.51-.3-1.14.14-1.13.3-1.13S1116.87,722.58,1116.87,723.2Z" transform="translate(-0.01)"/><path class="cls-11" d="M1114,716.2c0,.84-.33,1.52-.73,1.52s-.72-.68-.72-1.52.32-1.53.72-1.53S1114,715.36,1114,716.2Z" transform="translate(-0.01)"/><path class="cls-28" d="M1123.39,716.5c0,.67-.14,1.22-.31,1.22s-.3-.55-.3-1.22.14-1.22.3-1.22S1123.39,715.83,1123.39,716.5Z" transform="translate(-0.01)"/><path class="cls-28" d="M1118.25,727.84c0,.47-.17.84-.39.84s-.39-.37-.39-.84.17-.85.39-.85S1118.25,727.37,1118.25,727.84Z" transform="translate(-0.01)"/><polygon class="cls-14" points="1126.57 659.11 1137.18 672.8 1120 690.58 1094.21 686.53 1126.57 659.11"/><polygon class="cls-29" points="1134.48 715.89 1132.85 721.07 1120.79 723.53 1118.16 714.42 1134.48 715.89"/><polygon class="cls-15" points="1120 690.58 1137.18 672.8 1134.54 686.95 1124.55 701.48 1124.19 701.5 1120 690.58"/><polygon class="cls-15" points="1132.85 721.07 1120.79 723.53 1127.28 730.35 1132.85 721.07"/><polyline class="cls-14" points="1127.06 708.97 1118.16 714.42 1134.48 715.89 1132.55 711.66 1127.06 708.97"/><polygon class="cls-14" points="1126.97 747.51 1115.29 749.35 1122.15 752.91 1131.2 750.69 1126.97 747.51"/><polygon class="cls-13" points="1115.29 749.35 1119.95 763.67 1122.24 763.67 1122.15 752.91 1115.29 749.35"/><polygon class="cls-28" points="1122.15 752.91 1131.2 750.69 1134.75 762.19 1122.24 763.67 1122.15 752.91"/><polygon class="cls-30" points="1122.24 763.67 1134.75 762.19 1126.57 769.84 1119.95 763.67 1122.24 763.67"/><polygon class="cls-13" points="1094.21 686.53 1112.51 703.46 1124.19 701.5 1120 690.58 1094.21 686.53"/><polygon class="cls-13" points="295.75 862.18 296.32 872.59 296.43 872.54 305.99 862.18 295.75 862.18"/><polygon class="cls-31" points="306.05 862.18 305.99 862.18 296.43 872.54 305.99 869.12 306.05 862.18"/><polygon class="cls-11" points="259.96 843.45 248.2 855.67 265.37 873.45 267.39 858.45 259.96 843.45"/><polygon class="cls-31" points="248.2 855.67 250.83 869.82 265.37 873.45 248.2 855.67"/><polygon class="cls-11" points="978.99 841.4 962.17 856.55 983.75 851.29 989.47 842.87 978.99 841.4"/><polygon class="cls-31" points="962.17 856.55 975.36 874.64 980.28 870.43 983.75 851.29 962.17 856.55"/><polygon class="cls-32" points="989.47 842.87 980.28 870.43 983.75 851.29 989.47 842.87"/><polygon class="cls-32" points="1026.19 837.8 1037.62 837.8 1035.44 848.97 1028.79 848.97 1026.19 837.8"/><polygon class="cls-31" points="1026.19 837.8 1026.19 856.55 1028.79 848.97 1026.19 837.8"/><polygon class="cls-11" points="1035.44 848.97 1027.49 856.65 1026.19 856.55 1028.79 848.97 1035.44 848.97"/><polygon class="cls-32" points="1002.39 861.53 1007.3 862.96 1007.3 867.99 1002.82 867.99 999.66 864.76 1002.39 861.53"/><polygon class="cls-31" points="999.66 864.76 1002 871.82 1003.42 872.78 1002.82 867.99 999.66 864.76"/><polygon class="cls-11" points="1007.3 867.99 1005.11 872.46 1003.42 872.78 1002.82 867.99 1007.3 867.99"/><polygon class="cls-11" points="287.88 881.48 293.03 886.11 286.42 884.5 284.67 881.93 287.88 881.48"/><polygon class="cls-31" points="293.03 886.11 288.99 891.65 287.48 890.36 286.42 884.5 293.03 886.11"/><polygon class="cls-32" points="284.67 881.93 287.48 890.36 286.42 884.5 284.67 881.93"/><polygon class="cls-32" points="273.43 880.37 269.93 880.37 270.6 883.79 272.63 883.79 273.43 880.37"/><polygon class="cls-31" points="273.43 880.37 273.43 886.11 272.63 883.79 273.43 880.37"/><polygon class="cls-11" points="270.6 883.79 273.03 886.14 273.43 886.11 272.63 883.79 270.6 883.79"/><polygon class="cls-32" points="280.71 887.64 279.21 888.08 279.21 889.62 280.58 889.62 281.55 888.63 280.71 887.64"/><polygon class="cls-31" points="281.55 888.63 280.83 890.78 280.4 891.08 280.58 889.62 281.55 888.63"/><polygon class="cls-11" points="279.21 889.62 279.88 890.98 280.4 891.08 280.58 889.62 279.21 889.62"/><polygon class="cls-13" points="991.58 887.41 991.13 895.62 991.04 895.59 983.51 887.41 991.58 887.41"/><polygon class="cls-31" points="983.46 887.41 983.51 887.41 991.04 895.59 983.51 892.88 983.46 887.41"/><polygon class="cls-11" points="1011.02 878.73 1024.3 877.12 1027.34 896.37 1016.94 890.52 1011.02 878.73"/><polygon class="cls-31" points="1024.3 877.12 1031.95 885.49 1027.34 896.37 1024.3 877.12"/><polygon class="cls-32" points="1124.93 826.52 1125.72 833.56 1118.69 832.98 1118.23 828.89 1124.93 826.52"/><polygon class="cls-31" points="1124.93 826.52 1113.38 827.81 1118.23 828.89 1124.93 826.52"/><polygon class="cls-11" points="1118.69 832.98 1113.4 828.62 1113.38 827.81 1118.23 828.89 1118.69 832.98"/><polygon class="cls-32" points="1108.66 813.49 1108.12 816.61 1105.02 816.96 1104.71 814.2 1106.49 812.03 1108.66 813.49"/><polygon class="cls-31" points="1106.49 812.03 1102.3 813.96 1101.8 814.9 1104.71 814.2 1106.49 812.03"/><polygon class="cls-11" points="1105.02 816.96 1102.12 815.92 1101.8 814.9 1104.71 814.2 1105.02 816.96"/><polygon class="cls-11" points="997.79 902.62 993.73 906.28 998.93 905.01 1000.31 902.98 997.79 902.62"/><polygon class="cls-31" points="993.73 906.28 996.91 910.64 998.1 909.63 998.93 905.01 993.73 906.28"/><polygon class="cls-32" points="1000.31 902.98 998.1 909.63 998.93 905.01 1000.31 902.98"/><polygon class="cls-32" points="1009.17 901.76 1011.93 901.76 1011.4 904.45 1009.8 904.45 1009.17 901.76"/><polygon class="cls-31" points="1009.17 901.76 1009.17 906.28 1009.8 904.45 1009.17 901.76"/><polygon class="cls-11" points="1011.4 904.45 1009.49 906.3 1009.17 906.28 1009.8 904.45 1011.4 904.45"/><polygon class="cls-32" points="1003.43 907.48 1004.62 907.83 1004.62 909.04 1003.53 909.04 1002.77 908.26 1003.43 907.48"/><polygon class="cls-31" points="1002.77 908.26 1003.34 909.96 1003.68 910.2 1003.53 909.04 1002.77 908.26"/><polygon class="cls-11" points="1004.62 909.04 1004.09 910.12 1003.68 910.2 1003.53 909.04 1004.62 909.04"/><polygon class="cls-32" points="464.98 846.35 465.69 852.75 459.29 852.23 458.88 848.51 464.98 846.35"/><polygon class="cls-31" points="464.98 846.35 454.47 847.53 458.88 848.51 464.98 846.35"/><polygon class="cls-11" points="459.29 852.23 454.49 848.26 454.47 847.53 458.88 848.51 459.29 852.23"/><polygon class="cls-32" points="450.18 834.5 449.69 837.34 446.86 837.65 446.58 835.14 448.19 833.17 450.18 834.5"/><polygon class="cls-31" points="448.19 833.17 444.39 834.92 443.94 835.78 446.58 835.14 448.19 833.17"/><polygon class="cls-11" points="446.86 837.65 444.23 836.71 443.94 835.78 446.58 835.14 446.86 837.65"/><polygon class="cls-11" points="441.08 840.42 442.81 847.76 432.22 850.67 434.84 844.47 441.08 840.42"/><polygon class="cls-31" points="442.81 847.76 438.6 852.57 432.22 850.67 442.81 847.76"/><polygon class="cls-11" points="440.21 858.11 436.51 861.43 441.25 860.28 442.51 858.43 440.21 858.11"/><polygon class="cls-31" points="436.51 861.43 439.41 865.41 440.49 864.48 441.25 860.28 436.51 861.43"/><polygon class="cls-32" points="442.51 858.43 440.49 864.48 441.25 860.28 442.51 858.43"/><polygon class="cls-32" points="450.57 857.32 453.07 857.32 452.6 859.77 451.14 859.77 450.57 857.32"/><polygon class="cls-31" points="450.57 857.32 450.57 861.43 451.14 859.77 450.57 857.32"/><polygon class="cls-11" points="452.6 859.77 450.85 861.46 450.57 861.43 451.14 859.77 452.6 859.77"/><polygon class="cls-32" points="445.34 862.53 446.42 862.84 446.42 863.95 445.44 863.95 444.74 863.24 445.34 862.53"/><polygon class="cls-31" points="444.74 863.24 445.26 864.79 445.57 865 445.44 863.95 444.74 863.24"/><polygon class="cls-11" points="446.42 863.95 445.94 864.93 445.57 865 445.44 863.95 446.42 863.95"/><path class="cls-33" d="M1013.79,522.36a2,2,0,1,1-2-2A2,2,0,0,1,1013.79,522.36Z" transform="translate(-0.01)"/><path class="cls-34" d="M1012.42,521l.13,0,.15,0a.55.55,0,0,1,.18.08,1.45,1.45,0,0,1,.19.17.55.55,0,0,1,.18.24.93.93,0,0,1,.12.29c0,.1,0,.21,0,.32a1.64,1.64,0,0,1,0,.32.74.74,0,0,1-.12.29.84.84,0,0,1-.16.24l-.2.16a.76.76,0,0,1-.34.14l-.13,0,.07-.12a3.08,3.08,0,0,0,.16-.28,1.34,1.34,0,0,1,.07-.18s0-.13.06-.19a.71.71,0,0,0,0-.2,1.49,1.49,0,0,0,0-.21,1.4,1.4,0,0,0-.06-.41.35.35,0,0,0-.06-.18l-.06-.18a1.4,1.4,0,0,0-.1-.16l-.08-.12Z" transform="translate(-0.01)"/><path class="cls-33" d="M1014.06,486.27a2,2,0,1,1-2-2A2,2,0,0,1,1014.06,486.27Z" transform="translate(-0.01)"/><path class="cls-34" d="M1012.69,484.94l.13,0,.15,0s.12,0,.17.08a1.12,1.12,0,0,1,.2.18.58.58,0,0,1,.18.23.93.93,0,0,1,.12.29c0,.11,0,.22.05.33a1.64,1.64,0,0,1-.05.32.74.74,0,0,1-.12.29.79.79,0,0,1-.16.23,2.61,2.61,0,0,1-.2.17,1.11,1.11,0,0,1-.34.14l-.13,0,.07-.12c0-.08.11-.15.16-.27a1.34,1.34,0,0,1,.07-.18c0-.05,0-.13.06-.2a.65.65,0,0,0,0-.19c0-.07,0-.14,0-.21a1.84,1.84,0,0,0-.06-.41.53.53,0,0,0-.06-.19l-.06-.17a.86.86,0,0,0-.1-.16l-.08-.13Z" transform="translate(-0.01)"/><path class="cls-33" d="M1032.7,544.49a2,2,0,1,1-2-2A2,2,0,0,1,1032.7,544.49Z" transform="translate(-0.01)"/><path class="cls-34" d="M1031.33,543.16l.13,0,.15,0c.05,0,.12,0,.18.08l.2.18a.61.61,0,0,1,.17.24,1,1,0,0,1,.12.28c0,.11,0,.22,0,.33a1.64,1.64,0,0,1,0,.32.74.74,0,0,1-.12.29.67.67,0,0,1-.16.23,2.61,2.61,0,0,1-.2.17,1.11,1.11,0,0,1-.34.14l-.13,0a.86.86,0,0,0,.07-.12,2.76,2.76,0,0,0,.16-.27,1.34,1.34,0,0,1,.07-.18c0-.05,0-.13.06-.19a.71.71,0,0,0,0-.2,1.49,1.49,0,0,0,0-.21,1.4,1.4,0,0,0-.06-.41.32.32,0,0,0-.06-.18l-.06-.18a.86.86,0,0,0-.1-.16l-.08-.13A1.07,1.07,0,0,1,1031.33,543.16Z" transform="translate(-0.01)"/><path class="cls-33" d="M1028.87,510.25a2,2,0,1,1-2-2A2,2,0,0,1,1028.87,510.25Z" transform="translate(-0.01)"/><path class="cls-34" d="M1027.51,508.92l.13,0,.14,0a.48.48,0,0,1,.18.08,2.61,2.61,0,0,1,.2.17.66.66,0,0,1,.17.24,1,1,0,0,1,.13.29c0,.11,0,.21,0,.32s0,.22,0,.33a.93.93,0,0,1-.12.29.66.66,0,0,1-.17.23l-.19.16a.81.81,0,0,1-.34.14l-.13,0,.06-.12a2.14,2.14,0,0,0,.16-.27l.08-.18s0-.13.06-.2a.65.65,0,0,0,0-.2,1.48,1.48,0,0,0,0-.21,1.37,1.37,0,0,0-.05-.4.85.85,0,0,0-.06-.19c0-.05,0-.11-.07-.17a.56.56,0,0,0-.09-.17l-.08-.12Z" transform="translate(-0.01)"/><path class="cls-33" d="M1051.6,481.92a2,2,0,1,1-2-2A2,2,0,0,1,1051.6,481.92Z" transform="translate(-0.01)"/><path class="cls-34" d="M1050.23,480.59l.14,0,.14,0a.55.55,0,0,1,.18.08,2.61,2.61,0,0,1,.2.17.81.81,0,0,1,.17.24,1.28,1.28,0,0,1,.13.29c0,.1,0,.21,0,.32a1.88,1.88,0,0,1,0,.33.74.74,0,0,1-.12.29.79.79,0,0,1-.16.23l-.2.16a.72.72,0,0,1-.34.14l-.13,0,.07-.12a3.08,3.08,0,0,0,.16-.28l.08-.17c0-.05,0-.13,0-.2a.45.45,0,0,0,0-.2.75.75,0,0,0,0-.21,1.29,1.29,0,0,0-.06-.4.53.53,0,0,0,0-.19.87.87,0,0,1-.07-.17c0-.06-.07-.12-.09-.17s-.06-.09-.09-.12Z" transform="translate(-0.01)"/><path class="cls-33" d="M1036.76,457.83a2,2,0,1,1-2-2A2,2,0,0,1,1036.76,457.83Z" transform="translate(-0.01)"/><path class="cls-34" d="M1035.39,456.5l.14,0,.14,0s.12,0,.18.08l.2.18a.61.61,0,0,1,.17.24,1.28,1.28,0,0,1,.13.29c0,.1,0,.21,0,.32a1.64,1.64,0,0,1-.05.32.74.74,0,0,1-.12.29.84.84,0,0,1-.16.24l-.2.16a1,1,0,0,1-.34.14l-.13,0,.07-.12a1.6,1.6,0,0,0,.16-.27,1.42,1.42,0,0,1,.08-.18s0-.13,0-.19a.48.48,0,0,0,0-.2.75.75,0,0,0,0-.21,1.4,1.4,0,0,0-.06-.41.48.48,0,0,0,0-.18,1.34,1.34,0,0,1-.07-.18c0-.06-.07-.11-.09-.16a.66.66,0,0,1-.08-.13A.64.64,0,0,1,1035.39,456.5Z" transform="translate(-0.01)"/><path class="cls-33" d="M524.65,552.6a3,3,0,1,1-4.29,0A3,3,0,0,1,524.65,552.6Z" transform="translate(-0.01)"/><path class="cls-34" d="M521.79,552.64l.18-.1a1.06,1.06,0,0,1,.19-.11,1,1,0,0,1,.27-.11c.12,0,.25,0,.4,0a1.11,1.11,0,0,1,.44.08,1.73,1.73,0,0,1,.44.17l.39.29a3.69,3.69,0,0,1,.29.4,1.46,1.46,0,0,1,.18.43,1.32,1.32,0,0,1,.07.42c0,.14,0,.27,0,.39a1.31,1.31,0,0,1-.21.5,1.8,1.8,0,0,1-.12.17l0-.2c-.05-.12,0-.28-.12-.46s-.08-.18-.11-.27-.11-.17-.15-.27a.79.79,0,0,0-.17-.25,1.5,1.5,0,0,0-.2-.24,2.18,2.18,0,0,0-.49-.37.83.83,0,0,0-.26-.14l-.25-.11a1,1,0,0,0-.28-.07l-.22,0Z" transform="translate(-0.01)"/><path class="cls-33" d="M486.64,514a3,3,0,1,1-4.28,0A3,3,0,0,1,486.64,514Z" transform="translate(-0.01)"/><path class="cls-34" d="M483.78,514.07,484,514l.2-.11a1,1,0,0,1,.27-.1c.12,0,.25,0,.4,0a1,1,0,0,1,.44.07,2,2,0,0,1,.43.18l.39.29a3.79,3.79,0,0,1,.3.4,1.27,1.27,0,0,1,.18.43,1.23,1.23,0,0,1,.07.42,2.11,2.11,0,0,1,0,.38,1.22,1.22,0,0,1-.21.51,1.15,1.15,0,0,1-.11.17s0-.08-.06-.2a2.87,2.87,0,0,0-.12-.46l-.1-.27c0-.1-.11-.17-.15-.27a.7.7,0,0,0-.17-.25,2.31,2.31,0,0,0-.2-.24,2.28,2.28,0,0,0-.5-.38.67.67,0,0,0-.25-.13l-.25-.12a2.86,2.86,0,0,0-.28-.07l-.22,0Z" transform="translate(-0.01)"/><path class="cls-33" d="M568.18,556a3,3,0,1,1-4.29,0A3,3,0,0,1,568.18,556Z" transform="translate(-0.01)"/><path class="cls-34" d="M565.32,556.05l.18-.1.19-.11a1,1,0,0,1,.27-.11l.4,0a1,1,0,0,1,.44.07,1.6,1.6,0,0,1,.44.17l.39.3a2.82,2.82,0,0,1,.29.39,1.07,1.07,0,0,1,.18.43,1.33,1.33,0,0,1,.07.43c0,.14,0,.26,0,.38a1.49,1.49,0,0,1-.21.5,1.8,1.8,0,0,1-.12.17l0-.2c0-.12,0-.28-.12-.46a2.18,2.18,0,0,1-.11-.27c0-.09-.11-.17-.15-.26a.87.87,0,0,0-.16-.26,2.41,2.41,0,0,0-.21-.24,2.18,2.18,0,0,0-.49-.37.64.64,0,0,0-.26-.13l-.25-.12a1,1,0,0,0-.28-.07l-.21,0A.8.8,0,0,1,565.32,556.05Z" transform="translate(-0.01)"/><path class="cls-33" d="M527.8,523.76a3,3,0,1,1-4.28,0A3,3,0,0,1,527.8,523.76Z" transform="translate(-0.01)"/><path class="cls-34" d="M525,523.8a1.15,1.15,0,0,1,.17-.11l.2-.11a1,1,0,0,1,.27-.1c.12,0,.25,0,.4,0a1,1,0,0,1,.44.07,1.58,1.58,0,0,1,.43.18l.4.29a3.58,3.58,0,0,1,.29.39,1.41,1.41,0,0,1,.18.44,1.23,1.23,0,0,1,.07.42c0,.14,0,.26,0,.38a1.56,1.56,0,0,1-.21.51,1,1,0,0,1-.12.16l-.05-.19a4,4,0,0,0-.12-.46c0-.09-.08-.18-.11-.27s-.11-.17-.15-.27a.7.7,0,0,0-.17-.25,2.31,2.31,0,0,0-.2-.24,2.48,2.48,0,0,0-.49-.38.79.79,0,0,0-.26-.13l-.25-.12c-.08-.05-.2,0-.28-.07l-.22,0Z" transform="translate(-0.01)"/><path class="cls-33" d="M561,501.46a3,3,0,1,1-4.28,0A3,3,0,0,1,561,501.46Z" transform="translate(-0.01)"/><path class="cls-34" d="M558.15,501.5l.18-.1a.86.86,0,0,1,.19-.11,1,1,0,0,1,.28-.11,2.42,2.42,0,0,1,.39,0,.94.94,0,0,1,.44.06,1.85,1.85,0,0,1,.44.18l.39.3a2.82,2.82,0,0,1,.29.39,1,1,0,0,1,.18.43,1.11,1.11,0,0,1,.08.42c0,.14,0,.27,0,.39a1.39,1.39,0,0,1-.21.5l-.11.17a2,2,0,0,1-.06-.2,3.17,3.17,0,0,0-.12-.46,2.18,2.18,0,0,1-.11-.27c0-.09-.1-.17-.14-.27a1.1,1.1,0,0,0-.17-.25c-.07-.08-.13-.17-.2-.24a2.23,2.23,0,0,0-.5-.37.83.83,0,0,0-.26-.14l-.25-.11a.89.89,0,0,0-.28-.07l-.21-.05Z" transform="translate(-0.01)"/><path class="cls-33" d="M642.54,543.45a3,3,0,1,1-4.28,0A3,3,0,0,1,642.54,543.45Z" transform="translate(-0.01)"/><path class="cls-34" d="M639.68,543.49l.18-.11.2-.11a.72.72,0,0,1,.27-.1,2.41,2.41,0,0,1,.4,0,.93.93,0,0,1,.43.07,1.49,1.49,0,0,1,.44.17l.39.3a2.88,2.88,0,0,1,.3.39,1.41,1.41,0,0,1,.18.44,1.23,1.23,0,0,1,.07.42c0,.14,0,.26,0,.38a1.36,1.36,0,0,1-.22.51l-.11.16-.06-.19a2.62,2.62,0,0,0-.12-.46c0-.09-.07-.18-.11-.28s-.1-.16-.14-.26a.85.85,0,0,0-.17-.25,2.43,2.43,0,0,0-.2-.25,2.59,2.59,0,0,0-.5-.37.75.75,0,0,0-.25-.13c-.09,0-.17-.08-.26-.12a.9.9,0,0,0-.27-.07l-.22-.05Z" transform="translate(-0.01)"/><path class="cls-33" d="M602.17,511.19a3,3,0,1,1-4.28,0A3,3,0,0,1,602.17,511.19Z" transform="translate(-0.01)"/><path class="cls-34" d="M599.31,511.23l.18-.1a1.17,1.17,0,0,1,.2-.12c.08,0,.15-.09.27-.1s.25,0,.39,0a1.1,1.1,0,0,1,.44.07,1.85,1.85,0,0,1,.44.18l.39.29a2.7,2.7,0,0,1,.29.4,1,1,0,0,1,.18.43,1.08,1.08,0,0,1,.08.42,2.11,2.11,0,0,1,0,.38,1.22,1.22,0,0,1-.21.51l-.11.17s0-.08-.06-.2a3.17,3.17,0,0,0-.12-.46c0-.09-.08-.18-.11-.27s-.1-.17-.14-.27a1.1,1.1,0,0,0-.17-.25,2.31,2.31,0,0,0-.2-.24,2.23,2.23,0,0,0-.5-.37.79.79,0,0,0-.25-.14l-.26-.11a1.38,1.38,0,0,0-.27-.08l-.22,0Z" transform="translate(-0.01)"/><path class="cls-33" d="M554.93,447.21a3,3,0,1,1-4.28,0A3,3,0,0,1,554.93,447.21Z" transform="translate(-0.01)"/><path class="cls-34" d="M552.07,447.25l.18-.1a1.06,1.06,0,0,1,.19-.11,1,1,0,0,1,.27-.11,2.55,2.55,0,0,1,.4,0,1,1,0,0,1,.44.07,1.6,1.6,0,0,1,.44.17l.39.3a2.82,2.82,0,0,1,.29.39,1.23,1.23,0,0,1,.18.43,1.32,1.32,0,0,1,.07.42c0,.14,0,.27,0,.39a1.49,1.49,0,0,1-.21.5.91.91,0,0,1-.12.17l0-.2a3.17,3.17,0,0,0-.12-.46,2.18,2.18,0,0,1-.11-.27c0-.09-.11-.17-.15-.27a1,1,0,0,0-.16-.25,2.41,2.41,0,0,0-.21-.24,2.18,2.18,0,0,0-.49-.37.83.83,0,0,0-.26-.14l-.25-.11a1,1,0,0,0-.28-.07l-.21-.05Z" transform="translate(-0.01)"/><path class="cls-33" d="M754.84,508.7a3,3,0,1,1-4.28,0A3,3,0,0,1,754.84,508.7Z" transform="translate(-0.01)"/><path class="cls-34" d="M752,508.74l.18-.11.2-.11a.85.85,0,0,1,.27-.1,2.38,2.38,0,0,1,.39,0,1,1,0,0,1,.44.07,1.82,1.82,0,0,1,.44.17l.39.3a3.27,3.27,0,0,1,.29.39,2.26,2.26,0,0,1,.26.86c0,.14,0,.26,0,.38a1.22,1.22,0,0,1-.21.51l-.11.16-.06-.19a2.62,2.62,0,0,0-.12-.46c0-.09-.08-.18-.11-.27s-.1-.17-.14-.27a1.1,1.1,0,0,0-.17-.25c-.07-.08-.13-.18-.2-.25a2.59,2.59,0,0,0-.5-.37.86.86,0,0,0-.25-.13c-.09,0-.17-.08-.26-.12a2.68,2.68,0,0,0-.27-.07,1,1,0,0,1-.22-.05Z" transform="translate(-0.01)"/><path class="cls-33" d="M716.84,470.12a3,3,0,1,1-4.29,0A3,3,0,0,1,716.84,470.12Z" transform="translate(-0.01)"/><path class="cls-34" d="M714,470.17a1,1,0,0,1,.18-.11l.19-.11a1,1,0,0,1,.27-.11l.4,0a1,1,0,0,1,.44.07,1.49,1.49,0,0,1,.44.17l.39.3a2.82,2.82,0,0,1,.29.39,1.23,1.23,0,0,1,.18.43,1.11,1.11,0,0,1,.07.43c0,.14,0,.26,0,.38a1.45,1.45,0,0,1-.21.51l-.11.16-.06-.2a3.17,3.17,0,0,0-.12-.46,2.18,2.18,0,0,1-.11-.27c0-.09-.11-.17-.14-.26a1.17,1.17,0,0,0-.17-.26,2.41,2.41,0,0,0-.21-.24,2,2,0,0,0-.49-.37.79.79,0,0,0-.26-.13l-.25-.12a1,1,0,0,0-.28-.07l-.21,0Z" transform="translate(-0.01)"/><path class="cls-33" d="M798.37,512.11a3,3,0,1,1-4.28,0A3,3,0,0,1,798.37,512.11Z" transform="translate(-0.01)"/><path class="cls-34" d="M795.51,512.15l.18-.11.2-.11a.85.85,0,0,1,.27-.1c.12,0,.25,0,.39,0a1,1,0,0,1,.44.07,1.85,1.85,0,0,1,.44.18l.39.29a2.7,2.7,0,0,1,.29.4,1,1,0,0,1,.18.43,1,1,0,0,1,.08.42,2.11,2.11,0,0,1,0,.38,1.22,1.22,0,0,1-.21.51l-.11.17s0-.08-.06-.2a2.62,2.62,0,0,0-.12-.46c0-.09-.08-.18-.11-.27s-.1-.17-.14-.27a.85.85,0,0,0-.17-.25,2.31,2.31,0,0,0-.2-.24,2.64,2.64,0,0,0-.5-.38,1,1,0,0,0-.25-.13c-.09,0-.17-.08-.26-.12a2.68,2.68,0,0,0-.27-.07l-.22,0Z" transform="translate(-0.01)"/><path class="cls-33" d="M758,479.85a3,3,0,1,1-4.28,0A3,3,0,0,1,758,479.85Z" transform="translate(-0.01)"/><path class="cls-34" d="M755.14,479.89l.18-.1a1.2,1.2,0,0,1,.2-.11.84.84,0,0,1,.27-.11,2.42,2.42,0,0,1,.39,0,1,1,0,0,1,.44.07,1.49,1.49,0,0,1,.44.17l.39.3a2.19,2.19,0,0,1,.29.39,1.07,1.07,0,0,1,.18.43,1.12,1.12,0,0,1,.08.43,2.33,2.33,0,0,1,0,.38,1.17,1.17,0,0,1-.21.5,1.57,1.57,0,0,1-.11.17l-.06-.2a3.17,3.17,0,0,0-.12-.46,2.18,2.18,0,0,1-.11-.27c0-.09-.1-.17-.14-.26a1.17,1.17,0,0,0-.17-.26,1.57,1.57,0,0,0-.21-.24,2,2,0,0,0-.49-.37.64.64,0,0,0-.26-.13l-.25-.12a.9.9,0,0,0-.27-.07l-.22-.05A.8.8,0,0,1,755.14,479.89Z" transform="translate(-0.01)"/><path class="cls-33" d="M791.2,457.56a3,3,0,1,1-4.28,0A3,3,0,0,1,791.2,457.56Z" transform="translate(-0.01)"/><path class="cls-34" d="M788.34,457.6l.18-.11.2-.11a1,1,0,0,1,.27-.1c.12,0,.25,0,.39,0a1,1,0,0,1,.45.07,1.54,1.54,0,0,1,.43.17l.39.3c.12.12.2.27.3.39a1.41,1.41,0,0,1,.18.44,1.23,1.23,0,0,1,.07.42,2.22,2.22,0,0,1,0,.38,1.38,1.38,0,0,1-.2.51,1,1,0,0,1-.12.16l-.05-.19a4.21,4.21,0,0,0-.13-.46l-.1-.27c0-.1-.11-.17-.15-.27a.7.7,0,0,0-.17-.25,1.59,1.59,0,0,0-.2-.24,2.48,2.48,0,0,0-.49-.38.79.79,0,0,0-.26-.13l-.26-.12c-.07,0-.19,0-.27-.07l-.22,0Z" transform="translate(-0.01)"/><path class="cls-33" d="M872.74,499.54a3,3,0,1,1-4.28,0A3,3,0,0,1,872.74,499.54Z" transform="translate(-0.01)"/><path class="cls-34" d="M869.88,499.58l.18-.1a1.06,1.06,0,0,1,.19-.11,1,1,0,0,1,.27-.11,2.55,2.55,0,0,1,.4,0,.94.94,0,0,1,.44.06,2,2,0,0,1,.44.18l.39.3a2.82,2.82,0,0,1,.29.39,1,1,0,0,1,.18.43,1.11,1.11,0,0,1,.07.43c0,.13,0,.26,0,.38a1.39,1.39,0,0,1-.21.5,1.57,1.57,0,0,1-.11.17,1.3,1.3,0,0,1-.06-.2c-.05-.12,0-.28-.12-.46a2.18,2.18,0,0,1-.11-.27c0-.09-.11-.17-.15-.27a.82.82,0,0,0-.16-.25,2.41,2.41,0,0,0-.21-.24,2.18,2.18,0,0,0-.49-.37.83.83,0,0,0-.26-.14l-.25-.11a.89.89,0,0,0-.28-.07l-.21-.05Z" transform="translate(-0.01)"/><path class="cls-33" d="M832.37,467.29a3,3,0,1,1-4.29,0A3,3,0,0,1,832.37,467.29Z" transform="translate(-0.01)"/><path class="cls-34" d="M829.51,467.33a1,1,0,0,1,.18-.11l.19-.11a.72.72,0,0,1,.27-.1,2.41,2.41,0,0,1,.4,0,1,1,0,0,1,.44.07,1.73,1.73,0,0,1,.44.17l.39.3a3.58,3.58,0,0,1,.29.39,1.41,1.41,0,0,1,.18.44,1.23,1.23,0,0,1,.07.42c0,.14,0,.26,0,.38a1.56,1.56,0,0,1-.21.51l-.11.16a1.38,1.38,0,0,1-.06-.19,4,4,0,0,0-.12-.46,2.33,2.33,0,0,1-.11-.28c0-.09-.11-.17-.15-.26a.82.82,0,0,0-.16-.25,1.73,1.73,0,0,0-.21-.25,2.43,2.43,0,0,0-.49-.37.79.79,0,0,0-.26-.13l-.25-.12a1,1,0,0,0-.28-.07l-.22-.05Z" transform="translate(-0.01)"/><path class="cls-33" d="M785.12,403.31a3,3,0,1,1-4.28,0A3,3,0,0,1,785.12,403.31Z" transform="translate(-0.01)"/><path class="cls-34" d="M782.26,403.35l.18-.11.2-.11a.85.85,0,0,1,.27-.1c.12,0,.25,0,.4,0a1.08,1.08,0,0,1,.43.07,1.51,1.51,0,0,1,.44.18l.39.29a2.63,2.63,0,0,1,.29.39,2.26,2.26,0,0,1,.26.86,2.22,2.22,0,0,1,0,.38,1.22,1.22,0,0,1-.21.51l-.11.17,0-.2a4.21,4.21,0,0,0-.13-.46l-.11-.27c0-.1-.1-.17-.14-.27a1.1,1.1,0,0,0-.17-.25,2.31,2.31,0,0,0-.2-.24,2.23,2.23,0,0,0-.5-.37.63.63,0,0,0-.25-.14c-.09,0-.17-.08-.26-.12a2.13,2.13,0,0,0-.27-.07,1,1,0,0,1-.22,0Z" transform="translate(-0.01)"/><path class="cls-33" d="M387.9,530.23a2,2,0,1,1-2-2A2,2,0,0,1,387.9,530.23Z" transform="translate(-0.01)"/><path class="cls-34" d="M386.53,528.9l.14,0,.14,0c.05,0,.12,0,.18.08a2.61,2.61,0,0,1,.2.17.81.81,0,0,1,.17.24.93.93,0,0,1,.12.29c0,.11,0,.22,0,.33a1.77,1.77,0,0,1,0,.32.74.74,0,0,1-.12.29.79.79,0,0,1-.16.23,2.61,2.61,0,0,1-.2.17.81.81,0,0,1-.34.13.41.41,0,0,1-.13,0,.86.86,0,0,0,.07-.12,2.76,2.76,0,0,0,.16-.27,1.42,1.42,0,0,1,.08-.18s0-.13.05-.2a.43.43,0,0,0,0-.19.78.78,0,0,0,0-.21,1.4,1.4,0,0,0-.06-.41.53.53,0,0,0-.05-.19.87.87,0,0,1-.07-.17.59.59,0,0,0-.1-.17,1.25,1.25,0,0,0-.08-.12Z" transform="translate(-0.01)"/><path class="cls-33" d="M406.54,588.45a2,2,0,1,1-2-2A2,2,0,0,1,406.54,588.45Z" transform="translate(-0.01)"/><path class="cls-34" d="M405.17,587.12l.14,0,.14,0c.05,0,.12,0,.18.08l.2.18a.61.61,0,0,1,.17.24,1,1,0,0,1,.13.28c0,.11,0,.22,0,.33a1.64,1.64,0,0,1-.05.32.74.74,0,0,1-.12.29.79.79,0,0,1-.16.23,1.51,1.51,0,0,1-.2.17,1.07,1.07,0,0,1-.33.14l-.14,0a.86.86,0,0,0,.07-.12,1.6,1.6,0,0,0,.16-.27,1.42,1.42,0,0,1,.08-.18s0-.13,0-.19a.48.48,0,0,0,0-.2.75.75,0,0,0,0-.21,1.4,1.4,0,0,0-.06-.41.53.53,0,0,0,0-.19.87.87,0,0,1-.07-.17c0-.06-.07-.11-.09-.16a.66.66,0,0,1-.08-.13A.64.64,0,0,1,405.17,587.12Z" transform="translate(-0.01)"/><path class="cls-33" d="M402.71,554.21a2,2,0,1,1-2-2A2,2,0,0,1,402.71,554.21Z" transform="translate(-0.01)"/><path class="cls-34" d="M401.35,552.88l.13,0,.15,0a.44.44,0,0,1,.17.08,1.06,1.06,0,0,1,.2.17.69.69,0,0,1,.18.24.93.93,0,0,1,.12.29c0,.1,0,.21.05.32a1.88,1.88,0,0,1-.05.33.74.74,0,0,1-.12.29.79.79,0,0,1-.16.23l-.2.16a.76.76,0,0,1-.34.14l-.13,0,.07-.12c0-.08.11-.16.16-.27a1.34,1.34,0,0,1,.07-.18s0-.13.06-.2a.65.65,0,0,0,0-.2c0-.07,0-.14,0-.21a1.76,1.76,0,0,0-.06-.4.36.36,0,0,0-.06-.19l-.06-.17a1,1,0,0,0-.1-.17l-.08-.12Z" transform="translate(-0.01)"/><path class="cls-33" d="M410.6,501.79a2,2,0,1,1-2-2A2,2,0,0,1,410.6,501.79Z" transform="translate(-0.01)"/><path class="cls-34" d="M409.24,500.46l.13,0,.14,0a.71.71,0,0,1,.18.08l.2.18a.61.61,0,0,1,.17.24,1.43,1.43,0,0,1,.13.28c0,.11,0,.22,0,.33a3.11,3.11,0,0,1,0,.32.93.93,0,0,1-.12.29c-.06.08-.09.18-.17.23a1.45,1.45,0,0,1-.19.17,1.11,1.11,0,0,1-.34.14l-.13,0,.06-.12a1.6,1.6,0,0,0,.16-.27l.08-.18c0-.05,0-.13.06-.19a.71.71,0,0,0,0-.2,1.48,1.48,0,0,0,0-.21,1.4,1.4,0,0,0,0-.41.85.85,0,0,0-.06-.19c0-.05,0-.11-.07-.17s-.07-.11-.09-.16l-.08-.13A1.07,1.07,0,0,1,409.24,500.46Z" transform="translate(-0.01)"/><path class="cls-33" d="M1014.94,407.32a1.52,1.52,0,1,1-1.52-1.52A1.52,1.52,0,0,1,1014.94,407.32Z" transform="translate(-0.01)"/><path class="cls-34" d="M1013.91,406.32l.1,0,.11,0a.25.25,0,0,1,.13.06.58.58,0,0,1,.15.13.35.35,0,0,1,.13.18,1,1,0,0,1,.1.21l0,.25a1,1,0,0,1,0,.24.47.47,0,0,1-.09.22.41.41,0,0,1-.12.17l-.15.13a.68.68,0,0,1-.25.1l-.1,0,.05-.09c0-.06.08-.12.12-.21a.75.75,0,0,1,.06-.13s0-.1,0-.15a.37.37,0,0,0,0-.15.76.76,0,0,0,0-.15,1.06,1.06,0,0,0,0-.31.57.57,0,0,0,0-.14s0-.09,0-.13a.47.47,0,0,0-.07-.12.37.37,0,0,1-.06-.1A.26.26,0,0,1,1013.91,406.32Z" transform="translate(-0.01)"/><path class="cls-33" d="M992.05,387.18a1.52,1.52,0,1,1-1.52-1.52A1.52,1.52,0,0,1,992.05,387.18Z" transform="translate(-0.01)"/><path class="cls-34" d="M991,386.18l.1,0,.11,0a.53.53,0,0,1,.14.06l.15.13a.59.59,0,0,1,.13.18.73.73,0,0,1,.09.22l0,.24a2,2,0,0,1,0,.24.73.73,0,0,1-.09.22.75.75,0,0,1-.13.18l-.14.12a.57.57,0,0,1-.26.1l-.1,0,.05-.09a1.17,1.17,0,0,0,.12-.2l.06-.14s0-.09,0-.14a.4.4,0,0,0,0-.15,1,1,0,0,0,0-.16,1.12,1.12,0,0,0-.05-.31.33.33,0,0,0,0-.14s0-.08,0-.13a.75.75,0,0,0-.07-.12s0-.07-.06-.09Z" transform="translate(-0.01)"/><path class="cls-33" d="M990.33,341.46a5.35,5.35,0,1,1-5.34-5.35A5.35,5.35,0,0,1,990.33,341.46Z" transform="translate(-0.01)"/><path class="cls-34" d="M986.71,337.94a2.59,2.59,0,0,1,.35.09l.39.11a1.64,1.64,0,0,1,.47.22,4.09,4.09,0,0,1,.52.46,1.68,1.68,0,0,1,.47.62,3.31,3.31,0,0,1,.33.77l.12.86a6.15,6.15,0,0,1-.13.86,2.17,2.17,0,0,1-.32.77,2,2,0,0,1-.44.61,6.36,6.36,0,0,1-.51.44,2.28,2.28,0,0,1-.9.37l-.35.07.18-.33a5.31,5.31,0,0,0,.42-.72,4,4,0,0,1,.21-.47c.1-.14.08-.35.15-.51a1.66,1.66,0,0,0,.1-.54,5.11,5.11,0,0,0,.05-.55,4.41,4.41,0,0,0-.15-1.09,1.76,1.76,0,0,0-.15-.49,3.12,3.12,0,0,1-.17-.46,2.48,2.48,0,0,0-.26-.42c-.09-.13-.16-.25-.21-.34A2.38,2.38,0,0,1,986.71,337.94Z" transform="translate(-0.01)"/><path class="cls-33" d="M1009.24,292a3.85,3.85,0,1,1-3.85-3.86A3.85,3.85,0,0,1,1009.24,292Z" transform="translate(-0.01)"/><path class="cls-34" d="M1006.63,289.44l.26.06.28.09a.87.87,0,0,1,.33.15,3.57,3.57,0,0,1,.38.33,1.15,1.15,0,0,1,.33.46,2.31,2.31,0,0,1,.25.55c0,.2,0,.41.08.62a4.08,4.08,0,0,1-.09.61,1.54,1.54,0,0,1-.23.56,1.43,1.43,0,0,1-.32.44,2.53,2.53,0,0,1-.37.31,1.81,1.81,0,0,1-.65.28l-.25,0,.13-.23a5.09,5.09,0,0,0,.31-.52c0-.11.09-.23.14-.34s.06-.25.11-.37a1.23,1.23,0,0,0,.08-.39c0-.13,0-.26,0-.39a3,3,0,0,0-.11-.79,1,1,0,0,0-.11-.35l-.12-.33c0-.12-.14-.21-.19-.31l-.15-.24C1006.67,289.53,1006.63,289.44,1006.63,289.44Z" transform="translate(-0.01)"/><path class="cls-33" d="M1044,381.57a2.64,2.64,0,1,1-2.64-2.65A2.64,2.64,0,0,1,1044,381.57Z" transform="translate(-0.01)"/><path class="cls-34" d="M1042.16,379.83l.18,0,.19.06a.64.64,0,0,1,.23.1,2.53,2.53,0,0,1,.26.23.87.87,0,0,1,.23.31,1.73,1.73,0,0,1,.16.37l.06.43a2.83,2.83,0,0,1-.06.42,1.09,1.09,0,0,1-.16.38,1.16,1.16,0,0,1-.22.31,2.32,2.32,0,0,1-.25.21,1.29,1.29,0,0,1-.44.19l-.18,0a1.63,1.63,0,0,0,.09-.16,2.66,2.66,0,0,0,.21-.36,1.6,1.6,0,0,1,.1-.23c0-.07,0-.17.07-.25a.88.88,0,0,0,.06-.27,2.45,2.45,0,0,0,0-.27,1.89,1.89,0,0,0-.08-.53.61.61,0,0,0-.07-.25,1.55,1.55,0,0,1-.08-.23c0-.07-.1-.14-.13-.21l-.11-.16Z" transform="translate(-0.01)"/><path class="cls-33" d="M1032.36,358.25a1.8,1.8,0,1,1-1.8-1.8A1.8,1.8,0,0,1,1032.36,358.25Z" transform="translate(-0.01)"/><path class="cls-34" d="M1031.14,357.07l.12,0,.13,0s.11,0,.16.08a1.19,1.19,0,0,1,.18.15.62.62,0,0,1,.15.21.85.85,0,0,1,.11.26,2.89,2.89,0,0,1,0,.29,2.54,2.54,0,0,1,0,.29.57.57,0,0,1-.11.25.64.64,0,0,1-.14.21,1.19,1.19,0,0,1-.18.15.82.82,0,0,1-.3.13l-.12,0,.07-.11c0-.07.1-.14.14-.24a.77.77,0,0,1,.07-.16c0-.05,0-.12,0-.18a.33.33,0,0,0,0-.17c0-.06,0-.13,0-.19a1.51,1.51,0,0,0-.06-.37.62.62,0,0,0,0-.16.76.76,0,0,1-.06-.16c0-.05-.07-.09-.09-.14l-.07-.11Z" transform="translate(-0.01)"/><path class="cls-33" d="M1040.28,299.8a2.64,2.64,0,1,1-2.64-2.65A2.64,2.64,0,0,1,1040.28,299.8Z" transform="translate(-0.01)"/><path class="cls-34" d="M1038.49,298.06l.18,0,.19.06a.64.64,0,0,1,.23.1,2.53,2.53,0,0,1,.26.23.79.79,0,0,1,.23.31,1.61,1.61,0,0,1,.16.38l.06.42a3,3,0,0,1-.06.43,1.12,1.12,0,0,1-.16.37.91.91,0,0,1-.22.31,2.32,2.32,0,0,1-.25.21,1.25,1.25,0,0,1-.45.19l-.17,0,.09-.16a3.22,3.22,0,0,0,.21-.35,2.44,2.44,0,0,1,.1-.24c0-.06,0-.17.07-.25a1.18,1.18,0,0,0,.06-.27,2.28,2.28,0,0,0,0-.27,2,2,0,0,0-.08-.54.67.67,0,0,0-.07-.24l-.09-.22a1.55,1.55,0,0,0-.12-.22c0-.06-.08-.12-.11-.16Z" transform="translate(-0.01)"/><path class="cls-33" d="M964.69,393a1.52,1.52,0,1,1-1.51-1.52A1.52,1.52,0,0,1,964.69,393Z" transform="translate(-0.01)"/><path class="cls-34" d="M963.67,392l.1,0,.11,0s.09,0,.13.06l.15.13a.59.59,0,0,1,.13.18.73.73,0,0,1,.09.22c0,.08,0,.16,0,.24a2,2,0,0,1,0,.24.54.54,0,0,1-.09.22.81.81,0,0,1-.12.18l-.15.12a.58.58,0,0,1-.25.1l-.1,0,.05-.09c0-.06.08-.11.12-.2a.84.84,0,0,1,.06-.14,1.27,1.27,0,0,0,0-.14.8.8,0,0,0,0-.15s0-.11,0-.16a1.65,1.65,0,0,0,0-.31.57.57,0,0,0,0-.14.5.5,0,0,1,0-.13s-.06-.08-.08-.12l-.06-.09A.55.55,0,0,1,963.67,392Z" transform="translate(-0.01)"/><path class="cls-33" d="M967.91,363.39a1.77,1.77,0,1,1-1.77-1.77A1.77,1.77,0,0,1,967.91,363.39Z" transform="translate(-0.01)"/><path class="cls-34" d="M966.71,362.23l.12,0,.12,0a.56.56,0,0,1,.16.07l.17.15a.51.51,0,0,1,.15.21.76.76,0,0,1,.11.26,2.36,2.36,0,0,1,0,.28,1.26,1.26,0,0,1,0,.28.74.74,0,0,1-.1.26.75.75,0,0,1-.15.2l-.17.15a1,1,0,0,1-.29.12l-.12,0,.06-.11a1.53,1.53,0,0,0,.14-.24l.06-.15c0-.05,0-.11.06-.17a1.13,1.13,0,0,0,0-.18c0-.06,0-.12,0-.18a2.23,2.23,0,0,0-.05-.36.59.59,0,0,0-.06-.16c0-.05,0-.1-.05-.15a.75.75,0,0,0-.09-.15l-.07-.11Z" transform="translate(-0.01)"/><path class="cls-33" d="M957.93,326.84a1.6,1.6,0,1,1-1.6-1.6A1.6,1.6,0,0,1,957.93,326.84Z" transform="translate(-0.01)"/><path class="cls-34" d="M956.85,325.79l.1,0,.12,0s.09,0,.14.07l.15.13a.49.49,0,0,1,.14.19.77.77,0,0,1,.1.23l0,.26a2.34,2.34,0,0,1,0,.26.77.77,0,0,1-.1.23.59.59,0,0,1-.13.18l-.15.13a.64.64,0,0,1-.27.11l-.1,0,0-.09c0-.07.09-.12.13-.22a.35.35,0,0,1,.06-.14s0-.11,0-.16a.75.75,0,0,0,0-.16c0-.05,0-.11,0-.16a1.13,1.13,0,0,0,0-.32.54.54,0,0,0,0-.15.58.58,0,0,1-.05-.14A1.48,1.48,0,0,0,957,326a.37.37,0,0,1-.06-.1A.44.44,0,0,1,956.85,325.79Z" transform="translate(-0.01)"/><path class="cls-33" d="M967.58,290.37a5.42,5.42,0,1,1-5.42-5.43A5.44,5.44,0,0,1,967.58,290.37Z" transform="translate(-0.01)"/><path class="cls-34" d="M963.9,286.81a1.72,1.72,0,0,1,.36.08c.11,0,.25.06.39.11a1.57,1.57,0,0,1,.48.22,5.28,5.28,0,0,1,.53.47,1.57,1.57,0,0,1,.47.64,3.34,3.34,0,0,1,.34.77l.12.87a6.07,6.07,0,0,1-.13.87,2.08,2.08,0,0,1-.32.78,2,2,0,0,1-.45.63,6.42,6.42,0,0,1-.52.44,2.42,2.42,0,0,1-.91.38,3,3,0,0,1-.36.06l.18-.32a5,5,0,0,0,.43-.73c.07-.16.13-.33.21-.48s.08-.36.16-.52a2.05,2.05,0,0,0,.1-.55,5.07,5.07,0,0,0,0-.56,4.41,4.41,0,0,0-.15-1.09,1.34,1.34,0,0,0-.16-.5c-.06-.15-.12-.31-.17-.47a2.23,2.23,0,0,0-.26-.43l-.22-.34Z" transform="translate(-0.01)"/><path class="cls-33" d="M992,255.22a1.52,1.52,0,1,1-1.51-1.52A1.52,1.52,0,0,1,992,255.22Z" transform="translate(-0.01)"/><path class="cls-34" d="M991,254.22l.1,0,.11,0s.09,0,.13.06l.15.13a.46.46,0,0,1,.13.18.85.85,0,0,1,.09.22c0,.08,0,.16,0,.24a1.87,1.87,0,0,1,0,.25.5.5,0,0,1-.09.21.63.63,0,0,1-.12.18l-.15.12a.82.82,0,0,1-.25.11l-.1,0a.26.26,0,0,1,0-.09c0-.06.08-.12.12-.21s0-.09.05-.13a.66.66,0,0,0,0-.15.8.8,0,0,0,0-.15s0-.1,0-.16a1,1,0,0,0,0-.3.26.26,0,0,0,0-.14l0-.13a1.48,1.48,0,0,0-.08-.13l-.06-.09Z" transform="translate(-0.01)"/><path class="cls-33" d="M435.1,499.88a2.27,2.27,0,1,1-2.26-2.27A2.27,2.27,0,0,1,435.1,499.88Z" transform="translate(-0.01)"/><path class="cls-34" d="M433.57,498.39l.15,0,.16.05a.69.69,0,0,1,.2.09,1.33,1.33,0,0,1,.22.2.73.73,0,0,1,.2.26,1.83,1.83,0,0,1,.14.32c0,.13,0,.25.05.37a2.08,2.08,0,0,1-.06.36.88.88,0,0,1-.13.33.73.73,0,0,1-.19.26,1.74,1.74,0,0,1-.22.18,1,1,0,0,1-.38.17l-.14,0,.07-.13c0-.09.13-.18.18-.31a1.76,1.76,0,0,1,.09-.2c0-.06,0-.15.06-.22a.56.56,0,0,0,0-.23c0-.07,0-.15,0-.23a1.77,1.77,0,0,0-.07-.46.65.65,0,0,0-.06-.21,1.46,1.46,0,0,1-.07-.19c0-.07-.09-.13-.11-.18l-.09-.15A.92.92,0,0,1,433.57,498.39Z" transform="translate(-0.01)"/><path class="cls-33" d="M410.6,471.45a5.48,5.48,0,1,1-5.48-5.48A5.49,5.49,0,0,1,410.6,471.45Z" transform="translate(-0.01)"/><path class="cls-34" d="M406.89,467.85a3.29,3.29,0,0,1,.36.08l.4.12a1.68,1.68,0,0,1,.48.22,6.66,6.66,0,0,1,.54.47,1.75,1.75,0,0,1,.47.64,3.09,3.09,0,0,1,.34.79l.12.88a5,5,0,0,1-.13.88,3.46,3.46,0,0,1-.77,1.42,6.7,6.7,0,0,1-.53.45,2.46,2.46,0,0,1-.92.38l-.36.07.18-.33a6.29,6.29,0,0,0,.44-.74,2.91,2.91,0,0,1,.21-.48c.1-.15.08-.37.15-.53a1.74,1.74,0,0,0,.11-.56,5.07,5.07,0,0,0,0-.56,4.14,4.14,0,0,0-.16-1.11,1.47,1.47,0,0,0-.15-.5c-.07-.15-.12-.31-.18-.48a2.43,2.43,0,0,0-.26-.44,3.81,3.81,0,0,1-.22-.34Z" transform="translate(-0.01)"/><path class="cls-33" d="M403.71,418.48a2.88,2.88,0,1,1-2.88-2.89A2.88,2.88,0,0,1,403.71,418.48Z" transform="translate(-0.01)"/><path class="cls-34" d="M401.76,416.58l.19,0,.21.06c.08,0,.17,0,.25.12l.29.24a1,1,0,0,1,.25.35,1.68,1.68,0,0,1,.17.41c0,.15.05.3.07.46a3.17,3.17,0,0,1-.07.46,1,1,0,0,1-.17.42,1,1,0,0,1-.24.33,3,3,0,0,1-.28.24,1.4,1.4,0,0,1-.48.2l-.19,0,.1-.17c.05-.11.16-.22.23-.39a1,1,0,0,1,.11-.25c.05-.08,0-.2.08-.28a1.5,1.5,0,0,0,.06-.29c0-.1,0-.2,0-.3a2.2,2.2,0,0,0-.08-.58,1,1,0,0,0-.08-.27,1.06,1.06,0,0,1-.09-.25c0-.08-.11-.16-.14-.23a1.4,1.4,0,0,1-.12-.18Z" transform="translate(-0.01)"/><path class="cls-33" d="M466.44,474.55a2.63,2.63,0,1,1-2.62-2.64A2.62,2.62,0,0,1,466.44,474.55Z" transform="translate(-0.01)"/><path class="cls-34" d="M464.66,472.82l.18,0,.19.05c.07,0,.15,0,.23.11a1.72,1.72,0,0,1,.26.23.73.73,0,0,1,.22.3,1.3,1.3,0,0,1,.17.38c0,.14,0,.28,0,.42a3,3,0,0,1-.06.43,1,1,0,0,1-.15.38,1.29,1.29,0,0,1-.22.3,2.32,2.32,0,0,1-.25.21,1.07,1.07,0,0,1-.44.18l-.18,0a1.63,1.63,0,0,0,.09-.16,3.22,3.22,0,0,0,.21-.35,1.73,1.73,0,0,1,.1-.24c.05-.07,0-.17.07-.25a.82.82,0,0,0,.06-.27c0-.08,0-.18,0-.27a1.89,1.89,0,0,0-.08-.53.61.61,0,0,0-.07-.24,1.55,1.55,0,0,1-.08-.23c0-.08-.1-.14-.13-.21l-.1-.16Z" transform="translate(-0.01)"/><path class="cls-33" d="M451.78,445a2.56,2.56,0,1,1-2.56-2.56A2.57,2.57,0,0,1,451.78,445Z" transform="translate(-0.01)"/><path class="cls-34" d="M450.05,443.33l.17,0,.18.05a.72.72,0,0,1,.22.1c.08.07.17.13.26.22a1.05,1.05,0,0,1,.22.3,1.73,1.73,0,0,1,.16.37c0,.14,0,.27.05.41a2.7,2.7,0,0,1-.06.41.93.93,0,0,1-.15.37.81.81,0,0,1-.21.3,2.32,2.32,0,0,1-.25.21,1.38,1.38,0,0,1-.42.18l-.17,0,.08-.16a3,3,0,0,0,.21-.34.92.92,0,0,1,.09-.23c.05-.06,0-.17.07-.24a1.22,1.22,0,0,0,.06-.26c0-.09,0-.18,0-.27a1.75,1.75,0,0,0-.08-.51.56.56,0,0,0-.07-.24c0-.07-.05-.15-.08-.22s-.09-.14-.12-.21a1,1,0,0,1-.1-.16A.71.71,0,0,1,450.05,443.33Z" transform="translate(-0.01)"/><path class="cls-33" d="M355.54,372a1.52,1.52,0,1,1-1.52-1.52A1.52,1.52,0,0,1,355.54,372Z" transform="translate(-0.01)"/><path class="cls-34" d="M354.51,371l.1,0,.11,0a.53.53,0,0,1,.14.06l.15.13a.59.59,0,0,1,.13.18.73.73,0,0,1,.09.22l0,.24a1.75,1.75,0,0,1,0,.24.73.73,0,0,1-.09.22.59.59,0,0,1-.13.18l-.14.12a.57.57,0,0,1-.26.1l-.1,0,.05-.09a1.17,1.17,0,0,0,.12-.2l.06-.14s0-.09,0-.14a.4.4,0,0,0,0-.15.88.88,0,0,0,0-.16,1.12,1.12,0,0,0-.05-.31c0-.05,0-.1,0-.13l-.05-.14a.75.75,0,0,0-.07-.12l-.06-.09Z" transform="translate(-0.01)"/><path class="cls-33" d="M347.52,347a1.52,1.52,0,1,1-1.51-1.52A1.52,1.52,0,0,1,347.52,347Z" transform="translate(-0.01)"/><path class="cls-34" d="M346.49,346l.1,0,.11,0,.14.06.15.13a.59.59,0,0,1,.13.18.85.85,0,0,1,.09.22l0,.24a1.9,1.9,0,0,1,0,.25.67.67,0,0,1-.09.21.63.63,0,0,1-.12.18l-.15.12a.77.77,0,0,1-.26.11l-.1,0,.05-.09a1.3,1.3,0,0,0,.12-.21l.06-.13s0-.1,0-.15a.8.8,0,0,0,0-.15s0-.1,0-.16a1.45,1.45,0,0,0,0-.3.29.29,0,0,0,0-.14s0-.09-.05-.13a.54.54,0,0,0-.07-.13l-.06-.09Z" transform="translate(-0.01)"/><path class="cls-33" d="M326.68,302.77a2.6,2.6,0,1,1-2.6-2.61A2.6,2.6,0,0,1,326.68,302.77Z" transform="translate(-0.01)"/><path class="cls-34" d="M324.92,301.06l.17,0,.19,0a.68.68,0,0,1,.23.11,2.32,2.32,0,0,1,.25.22.87.87,0,0,1,.23.31,1.38,1.38,0,0,1,.16.37l.06.42a3,3,0,0,1-.06.42,1.22,1.22,0,0,1-.16.37,1,1,0,0,1-.21.3l-.25.21a1.29,1.29,0,0,1-.44.19l-.17,0,.09-.16c0-.1.14-.2.2-.35a1.6,1.6,0,0,1,.1-.23c.05-.07,0-.17.07-.25a.82.82,0,0,0,.06-.26,2.45,2.45,0,0,0,0-.27,1.89,1.89,0,0,0-.08-.53.61.61,0,0,0-.07-.24,2,2,0,0,1-.08-.22.74.74,0,0,0-.13-.21l-.1-.17Z" transform="translate(-0.01)"/><path class="cls-33" d="M314.62,325.23a3.31,3.31,0,1,1-3.31-3.31A3.31,3.31,0,0,1,314.62,325.23Z" transform="translate(-0.01)"/><path class="cls-34" d="M312.38,323.06l.22.05.24.07a1.19,1.19,0,0,1,.29.13,2.71,2.71,0,0,1,.32.29,1,1,0,0,1,.29.39,2.49,2.49,0,0,1,.21.47c0,.18,0,.35.07.53a2.94,2.94,0,0,1-.08.53,1.36,1.36,0,0,1-.2.48,1.05,1.05,0,0,1-.27.38l-.32.27a1.4,1.4,0,0,1-.55.23.89.89,0,0,1-.22,0l.11-.2a3.2,3.2,0,0,0,.26-.44,2.55,2.55,0,0,1,.13-.29c.06-.09.05-.22.09-.32a1,1,0,0,0,.07-.34c0-.11,0-.22,0-.34a3,3,0,0,0-.1-.67.88.88,0,0,0-.09-.3c0-.09-.07-.19-.11-.29s-.12-.18-.16-.26l-.13-.21A1.46,1.46,0,0,1,312.38,323.06Z" transform="translate(-0.01)"/><path class="cls-33" d="M328.93,283.93a2.86,2.86,0,1,1-2.86-2.87A2.86,2.86,0,0,1,328.93,283.93Z" transform="translate(-0.01)"/><path class="cls-34" d="M327,282l.19,0,.21.06c.07,0,.16,0,.25.12a2.6,2.6,0,0,1,.28.24.78.78,0,0,1,.24.33,1.65,1.65,0,0,1,.18.41c0,.16.05.31.07.46a3.4,3.4,0,0,1-.07.46,1.2,1.2,0,0,1-.17.42,1.31,1.31,0,0,1-.23.32l-.28.24a1.24,1.24,0,0,1-.48.19.67.67,0,0,1-.19,0l.1-.17a3.19,3.19,0,0,0,.22-.39c0-.08.07-.17.11-.25s.05-.19.08-.27a1,1,0,0,0,.06-.29c0-.1,0-.2,0-.3a2.91,2.91,0,0,0-.09-.58.67.67,0,0,0-.08-.25l-.09-.26c0-.08-.1-.15-.14-.22l-.11-.18C327,282.11,327,282,327,282Z" transform="translate(-0.01)"/><path class="cls-33" d="M363.74,323.06a3,3,0,1,1-3-3A3,3,0,0,1,363.74,323.06Z" transform="translate(-0.01)"/><path class="cls-34" d="M361.71,321.09l.2,0,.22.07a.67.67,0,0,1,.26.12,3,3,0,0,1,.29.25.83.83,0,0,1,.26.36,2,2,0,0,1,.19.42c0,.16,0,.32.07.49a2.43,2.43,0,0,1-.08.47,1.12,1.12,0,0,1-.17.44,1.25,1.25,0,0,1-.25.34,2.82,2.82,0,0,1-.29.24,1.19,1.19,0,0,1-.5.21l-.2,0,.1-.18a3.23,3.23,0,0,0,.24-.4l.11-.27c.06-.07,0-.19.09-.28a1.07,1.07,0,0,0,.06-.31c0-.1,0-.2,0-.3a2.43,2.43,0,0,0-.09-.61.77.77,0,0,0-.09-.28l-.09-.26c0-.09-.11-.16-.14-.23l-.12-.19A1.41,1.41,0,0,1,361.71,321.09Z" transform="translate(-0.01)"/><path class="cls-33" d="M363.1,279.6a4.34,4.34,0,1,1-4.34-4.35A4.34,4.34,0,0,1,363.1,279.6Z" transform="translate(-0.01)"/><path class="cls-34" d="M360.16,276.75a1.62,1.62,0,0,1,.28.06l.32.1a1.24,1.24,0,0,1,.38.17,4.3,4.3,0,0,1,.43.37,1.34,1.34,0,0,1,.37.51,2.65,2.65,0,0,1,.27.62c0,.23.07.47.1.7a4.08,4.08,0,0,1-.11.7,1.69,1.69,0,0,1-.25.62,1.74,1.74,0,0,1-.36.5,4.27,4.27,0,0,1-.42.36,1.91,1.91,0,0,1-.73.3l-.28.05.14-.26a5.16,5.16,0,0,0,.35-.58,3.34,3.34,0,0,1,.16-.38c.09-.12.07-.29.12-.42a1.38,1.38,0,0,0,.09-.44,3.42,3.42,0,0,0,0-.45,3.29,3.29,0,0,0-.13-.88,1,1,0,0,0-.12-.4c-.05-.11-.09-.24-.14-.37a1.55,1.55,0,0,0-.21-.35c-.07-.1-.12-.19-.17-.27A2.45,2.45,0,0,1,360.16,276.75Z" transform="translate(-0.01)"/><g class="cls-35"><path class="cls-36" d="M339.77,520.81c8.51,15.37,30.26,3.94,46.35-4.82-9.3-4.68-19.58-9.17-28.3-8.71C349.25,507.72,339.77,512.19,339.77,520.81Z" transform="translate(-0.01)"/><path class="cls-36" d="M398.87,513.68c.15-1.23.92-4.64,1.85-4.93l-.28.16c-3.44,1.09-8.51,3.92-14.32,7.08,5.23,2.63,10.15,5.32,14.32,7.23C398.89,519.8,398.25,517.5,398.87,513.68Z" transform="translate(-0.01)"/><path class="cls-36" d="M615.08,293.73c6.47,11.67,23,3,35.26-3.69-7.08-3.55-14.89-7-21.52-6.61S615.08,287.17,615.08,293.73Z" transform="translate(-0.01)"/><path class="cls-36" d="M660,288.29c.11-.93.7-3.53,1.41-3.74l-.22.13c-2.61.82-6.47,3-10.88,5.36,4,2,7.71,4,10.88,5.51A11.11,11.11,0,0,1,660,288.29Z" transform="translate(-0.01)"/><path class="cls-36" d="M658.32,320.74c6.47,11.69,23,3,35.26-3.67-7.08-3.56-14.89-7-21.52-6.62S658.32,314.2,658.32,320.74Z" transform="translate(-0.01)"/><path class="cls-36" d="M703.27,315.32c.12-.94.7-3.54,1.42-3.74l-.23.12c-2.61.82-6.47,3-10.88,5.37,4,2,7.72,4,10.88,5.5A11.09,11.09,0,0,1,703.27,315.32Z" transform="translate(-0.01)"/><path class="cls-36" d="M390.15,268.14c6.47,11.7,23,3,35.25-3.66-7.08-3.57-14.89-7-21.52-6.63S390.15,261.6,390.15,268.14Z" transform="translate(-0.01)"/><path class="cls-36" d="M435.09,262.72c.12-.93.71-3.54,1.42-3.74l-.22.13c-2.62.82-6.47,3-10.89,5.37,4,2,7.72,4,10.89,5.49A11,11,0,0,1,435.09,262.72Z" transform="translate(-0.01)"/><path class="cls-36" d="M690.15,303.36c4.74,8.55,16.85,2.2,25.8-2.69-5.17-2.61-10.9-5.09-15.75-4.85S690.15,298.57,690.15,303.36Z" transform="translate(-0.01)"/><path class="cls-36" d="M723.05,299.39c.08-.69.51-2.59,1-2.74l-.16.09a57.09,57.09,0,0,0-8,3.93c2.91,1.46,5.65,3,8,4A8.14,8.14,0,0,1,723.05,299.39Z" transform="translate(-0.01)"/><path class="cls-36" d="M429.11,293.37c4.74,8.55,16.85,2.19,25.8-2.69-5.18-2.61-10.9-5.09-15.75-4.85S429.11,288.57,429.11,293.37Z" transform="translate(-0.01)"/><path class="cls-36" d="M462,289.4c.08-.69.51-2.59,1-2.74l-.16.09a56.55,56.55,0,0,0-8,3.93c2.91,1.46,5.65,3,8,4A8.15,8.15,0,0,1,462,289.4Z" transform="translate(-0.01)"/><path class="cls-36" d="M686.16,265.56c3.63,6.53,12.88,1.67,19.72-2.06-4-2-8.33-3.89-12-3.71S686.16,261.89,686.16,265.56Z" transform="translate(-0.01)"/><path class="cls-36" d="M711.31,262.52c.07-.52.39-2,.79-2.1l-.12.07a44.22,44.22,0,0,0-6.1,3c2.23,1.12,4.33,2.27,6.1,3.08A6.2,6.2,0,0,1,711.31,262.52Z" transform="translate(-0.01)"/><path class="cls-36" d="M641.27,271.86c5.65,10.21,20.12,2.62,30.82-3.21-6.19-3.11-13-6.08-18.82-5.79S641.27,266.13,641.27,271.86Z" transform="translate(-0.01)"/><path class="cls-36" d="M680.56,267.11c.1-.81.61-3.08,1.23-3.26l-.19.11a68.28,68.28,0,0,0-9.51,4.69c3.46,1.74,6.74,3.54,9.51,4.81A9.63,9.63,0,0,1,680.56,267.11Z" transform="translate(-0.01)"/><path class="cls-36" d="M733,294.54c5.55,10,19.71,2.57,30.19-3.14-6.06-3-12.75-6-18.43-5.67S733,288.93,733,294.54Z" transform="translate(-0.01)"/><path class="cls-36" d="M771.51,289.89c.1-.8.61-3,1.21-3.19l-.19.09c-2.23.71-5.54,2.56-9.31,4.61,3.4,1.71,6.6,3.46,9.31,4.71A9.49,9.49,0,0,1,771.51,289.89Z" transform="translate(-0.01)"/><path class="cls-36" d="M718.92,278.28c4,7.14,14.08,1.83,21.55-2.25-4.33-2.18-9.1-4.25-13.15-4S718.92,274.27,718.92,278.28Z" transform="translate(-0.01)"/><path class="cls-36" d="M746.4,275c.07-.57.43-2.16.86-2.28l-.13.07a46.92,46.92,0,0,0-6.66,3.28c2.43,1.22,4.72,2.47,6.66,3.36A6.72,6.72,0,0,1,746.4,275Z" transform="translate(-0.01)"/><path class="cls-36" d="M686.71,285.88c3.74,6.76,13.32,1.74,20.41-2.13-4.1-2.06-8.62-4-12.46-3.83S686.71,282.08,686.71,285.88Z" transform="translate(-0.01)"/><path class="cls-36" d="M712.73,282.73c.06-.54.4-2,.82-2.16l-.13.07a43.76,43.76,0,0,0-6.3,3.11c2.3,1.16,4.46,2.34,6.3,3.18A6.36,6.36,0,0,1,712.73,282.73Z" transform="translate(-0.01)"/><path class="cls-36" d="M463.18,270.09c3.75,6.77,13.33,1.74,20.41-2.12-4.1-2.06-8.61-4-12.45-3.84S463.18,266.3,463.18,270.09Z" transform="translate(-0.01)"/><path class="cls-36" d="M489.2,267c.07-.54.41-2.05.82-2.16l-.12.07a44.29,44.29,0,0,0-6.31,3.11c2.31,1.15,4.47,2.34,6.31,3.18A6.43,6.43,0,0,1,489.2,267Z" transform="translate(-0.01)"/><path class="cls-36" d="M377.54,544.75c6.48,11.68,23,3,35.26-3.67-7.08-3.56-14.89-7-21.52-6.62S377.54,538.19,377.54,544.75Z" transform="translate(-0.01)"/><path class="cls-36" d="M422.49,539.32c.12-.93.71-3.53,1.41-3.74l-.22.12c-2.61.83-6.47,3-10.88,5.38,4,2,7.72,4,10.88,5.5A11.13,11.13,0,0,1,422.49,539.32Z" transform="translate(-0.01)"/><path class="cls-36" d="M377.54,498.13c6.48,11.69,23,3,35.26-3.67-7.08-3.56-14.89-7-21.52-6.62S377.54,491.58,377.54,498.13Z" transform="translate(-0.01)"/><path class="cls-36" d="M422.49,492.71c.12-.94.71-3.54,1.41-3.75l-.22.13c-2.61.82-6.47,3-10.88,5.37,4,2,7.72,4,10.88,5.5A11.1,11.1,0,0,1,422.49,492.71Z" transform="translate(-0.01)"/><path class="cls-36" d="M420.28,520.09c6.48,11.69,23,3,35.26-3.67-7.08-3.56-14.89-7-21.52-6.61S420.28,513.54,420.28,520.09Z" transform="translate(-0.01)"/><path class="cls-36" d="M465.23,514.67c.12-.94.71-3.53,1.41-3.74l-.22.12c-2.61.82-6.47,3-10.88,5.37,4,2,7.72,4.05,10.88,5.5A11.09,11.09,0,0,1,465.23,514.67Z" transform="translate(-0.01)"/></g><g class="cls-35"><path class="cls-36" d="M644.64,520c10,18.1,35.62,4.65,54.55-5.67-11-5.51-23-10.77-33.29-10.25S644.64,509.86,644.64,520Z" transform="translate(-0.01)"/><path class="cls-36" d="M714.19,511.59c.19-1.44,1.09-5.47,2.19-5.78L716,506c-4,1.27-10,4.59-16.85,8.31,6.15,3.09,11.95,6.25,16.85,8.51C714.22,518.8,713.46,516.1,714.19,511.59Z" transform="translate(-0.01)"/><path class="cls-36" d="M693.9,493.09c7.32,13.23,26.07,3.4,39.92-4.16-8-4-16.87-7.88-24.37-7.5S693.9,485.67,693.9,493.09Z" transform="translate(-0.01)"/><path class="cls-36" d="M744.8,486.94c.13-1.06.8-4,1.6-4.23l-.26.13c-2.94.94-7.32,3.37-12.32,6.09,4.5,2.26,8.74,4.58,12.32,6.24C744.82,492.22,744.27,490.23,744.8,486.94Z" transform="translate(-0.01)"/></g><g class="cls-35"><path class="cls-36" d="M814.9,309.88c6.94,12.54,24.68,3.22,37.8-3.92-7.59-3.83-16-7.47-23.07-7.11S814.9,302.87,814.9,309.88Z" transform="translate(-0.01)"/><path class="cls-36" d="M863.09,304.07c.13-1,.76-3.79,1.52-4l-.24.13c-2.8.88-6.94,3.18-11.67,5.77,4.26,2.13,8.28,4.33,11.67,5.89C863.12,309.07,862.59,307.19,863.09,304.07Z" transform="translate(-0.01)"/><path class="cls-36" d="M849,291.25c5.08,9.17,18.06,2.35,27.66-2.89-5.55-2.79-11.69-5.45-16.89-5.19S849,286.11,849,291.25Z" transform="translate(-0.01)"/><path class="cls-36" d="M884.3,287c.09-.73.55-2.77,1.11-2.93l-.18.09a62.93,62.93,0,0,0-8.54,4.21c3.12,1.57,6.06,3.18,8.54,4.33A8.72,8.72,0,0,1,884.3,287Z" transform="translate(-0.01)"/></g><g class="cls-35"><path class="cls-36" d="M911.37,515c3.55,6.43,12.64,1.65,19.36-2-3.89-2-8.18-3.82-11.82-3.64S911.37,511.4,911.37,515Z" transform="translate(-0.01)"/><path class="cls-36" d="M936.05,512c.07-.52.39-1.94.78-2.06l-.12.07a42,42,0,0,0-6,3c2.18,1.1,4.24,2.22,6,3A6,6,0,0,1,936.05,512Z" transform="translate(-0.01)"/><path class="cls-36" d="M928.85,505.45c2.6,4.7,9.25,1.21,14.17-1.48-2.85-1.43-6-2.79-8.65-2.66S928.85,502.82,928.85,505.45Z" transform="translate(-0.01)"/><path class="cls-36" d="M946.91,503.27c.05-.38.29-1.42.57-1.5l-.09,0A32.83,32.83,0,0,0,943,504c1.59.81,3.1,1.63,4.37,2.22A4.55,4.55,0,0,1,946.91,503.27Z" transform="translate(-0.01)"/></g><g class="cls-35"><path class="cls-36" d="M491.81,395.52c10.36,18.7,36.85,4.79,56.43-5.88-11.33-5.7-23.83-11.15-34.45-10.6C503.36,379.57,491.81,385,491.81,395.52Z" transform="translate(-0.01)"/><path class="cls-36" d="M563.76,386.83c.18-1.49,1.12-5.65,2.25-6l-.34.19c-4.19,1.33-10.37,4.76-17.43,8.61,6.36,3.2,12.36,6.48,17.43,8.8C563.79,394.29,563,391.49,563.76,386.83Z" transform="translate(-0.01)"/><path class="cls-36" d="M769.8,443.76c6.69,12.08,23.79,3.11,36.44-3.8-7.32-3.67-15.4-7.19-22.25-6.83S769.8,437,769.8,443.76Z" transform="translate(-0.01)"/><path class="cls-36" d="M816.25,438.15c.11-1,.73-3.65,1.45-3.86l-.22.13c-2.69.85-6.69,3.06-11.24,5.54,4.1,2.07,8,4.19,11.24,5.7A11.55,11.55,0,0,1,816.25,438.15Z" transform="translate(-0.01)"/><path class="cls-36" d="M830.34,431.31c7.83,14.14,27.83,3.62,42.62-4.43-8.56-4.3-18-8.42-26-8S830.34,423.4,830.34,431.31Z" transform="translate(-0.01)"/><path class="cls-36" d="M884.67,424.76c.14-1.14.85-4.27,1.71-4.52l-.26.14c-3.16,1-7.83,3.6-13.16,6.5,4.8,2.41,9.32,4.89,13.16,6.65C884.7,430.39,884.1,428.28,884.67,424.76Z" transform="translate(-0.01)"/><path class="cls-36" d="M810.43,408.35c5.58,10.09,19.86,2.59,30.42-3.17-6.1-3.08-12.85-6-18.57-5.71S810.43,402.7,810.43,408.35Z" transform="translate(-0.01)"/><path class="cls-36" d="M849.22,403.67c.1-.8.6-3.05,1.21-3.23l-.19.1a69.09,69.09,0,0,0-9.39,4.64c3.43,1.73,6.66,3.49,9.39,4.75A9.54,9.54,0,0,1,849.22,403.67Z" transform="translate(-0.01)"/><path class="cls-36" d="M537.79,424.65c7.88,14.23,28,3.65,42.92-4.46-8.61-4.34-18.13-8.49-26.19-8.06S537.79,416.68,537.79,424.65Z" transform="translate(-0.01)"/><path class="cls-36" d="M592.51,418.05c.14-1.14.86-4.31,1.72-4.56l-.27.15c-3.18,1-7.87,3.62-13.25,6.55,4.84,2.43,9.4,4.92,13.25,6.69C592.54,423.71,591.94,421.59,592.51,418.05Z" transform="translate(-0.01)"/><path class="cls-36" d="M537.79,367.91c7.88,14.23,28,3.65,42.92-4.47-8.61-4.33-18.13-8.48-26.19-8.06S537.79,359.94,537.79,367.91Z" transform="translate(-0.01)"/><path class="cls-36" d="M592.51,361.3c.14-1.14.86-4.3,1.72-4.55l-.27.15c-3.18,1-7.87,3.61-13.25,6.54,4.84,2.44,9.4,4.92,13.25,6.69C592.54,367,591.94,364.85,592.51,361.3Z" transform="translate(-0.01)"/><path class="cls-36" d="M589.82,394.63c7.88,14.23,28,3.66,42.92-4.46-8.62-4.33-18.13-8.48-26.19-8.05S589.82,386.67,589.82,394.63Z" transform="translate(-0.01)"/><path class="cls-36" d="M644.54,388c.14-1.14.85-4.31,1.72-4.56l-.27.14c-3.18,1-7.88,3.63-13.25,6.55,4.84,2.44,9.4,4.93,13.25,6.69C644.56,393.7,644,391.58,644.54,388Z" transform="translate(-0.01)"/></g><path class="cls-37" d="M409.69,701.76h1.5s1.13-10.38,1.66-14.46h-6.38Z" transform="translate(-0.01)"/><path class="cls-38" d="M480.34,641.28c-.83-2.3-3.85-2.93-6.25-2.5-6.33,1.11-11.66,6.79-18,6.11-1.59-.17-3.12-.74-4.72-.8-3.05-.11-5.86,1.66-8.17,3.66a34.86,34.86,0,0,0-8.05,10.13c-2.12,4-3.47,8.46-6.12,12.15a41.21,41.21,0,0,1-7.62,7.42l-4.48,3.66A38.6,38.6,0,0,0,424,669c1.5-4.51,1.75-9.32,2.75-14s2.95-9.39,6.85-12.1c2.05-1.43,4.56-2.23,6.34-4,3.53-3.49,2.93-9.22,2.37-14.16s-.31-10.94,3.94-13.5c2.67-1.6,7-2.23,7-5.34,0-1.94-2.07-3.26-4-3.6-4.74-.84-9.58,2.23-11.88,6.46s-2.4,9.35-1.51,14.09c.69,3.63,1.84,7.74-.33,10.73-1.78,2.45-5.1,3.11-7.63,4.77-6.38,4.19-6.36,13.28-7.2,20.87A56.64,56.64,0,0,1,414,680.46a65.35,65.35,0,0,0,.21-9.53c0-6.54-2-13.34.34-19.46,2-5.28,6.93-9.27,8-14.82,2-10.6-11-20.84-6.75-30.76,1.62-3.79,5.51-6.37,6.64-10.33,1.88-6.52-5.16-15-5.75-19.61s-9.55-5.63-8.71.51c.16,1.1,6.67,12.16,4.53,18.21-1.07,3-3.66,5.23-5.17,8.06-6.57,12.35,9.89,28.19,3.24,40.51-2.08,3.86-6.27,6.78-6.65,11.15a16.1,16.1,0,0,0,1.06,5.78c2.22,7.51,3.76,16.26,2.75,24.09-1-5.06-4.51-9.33-7.35-13.71-3.07-4.75-5.5-10.84-3-15.92,2-4.08,6.76-6.51,8-10.87s-1.46-8.68-3-12.91a26,26,0,0,1-1.12-13.56c.46-2.44,1.19-5.23-.34-7.19-2.12-2.7-6.91-1-8.3,2.1s-.49,6.77.42,10.08l4.2,15.12a10,10,0,0,1,.52,4.75c-.73,3.44-4.62,5.07-6.87,7.78s-2.78,6.61-2.08,10.09a28.63,28.63,0,0,0,4.41,9.63,92.88,92.88,0,0,0,12.89,15.89l.39,1.76h6.38a11.46,11.46,0,0,1,.26-1.62c2.56-1.49,6.89-1.59,9.41-2.75a47.86,47.86,0,0,0,19-15.89c4.94-7.07,8.84-16.2,17.12-18.61,5.34-1.55,11.17.26,16.6-1C478.17,646.78,481.35,644.13,480.34,641.28Z" transform="translate(-0.01)"/><path class="cls-39" d="M379,625.55c-.35,1.44-2.13,2-3.62,2s-3.09-.3-4.37.46c-1.92,1.15-2,4-3.64,5.54-1.44,1.39-3.68,1.41-5.53,2.16-2.81,1.12-6,5.34-7.88,8.74,1.45-3.68,1.4-7.91,2.86-11.63a3,3,0,0,1,.84-1.3,4.15,4.15,0,0,1,1.67-.57,7.4,7.4,0,0,0,4.78-3.69c1.08-2.05,1.26-4.7,3.09-6.11a7.82,7.82,0,0,1,4.46-1.13,7.61,7.61,0,0,0,4.44-1.17c1.22-1,1.6-3.11.33-4,.36,2.05-2,3.53-4.06,3.81s-4.34,0-6,1.31c-2.62,2-2.17,6.72-5.09,8.26-1.08.57-2.4.54-3.51,1.05-1.75.81-2.64,2.82-3,4.72s-.23,3.89-.76,5.75a27.59,27.59,0,0,1-1.87,4.2,25.45,25.45,0,0,0-1.46,3.78c-.12,0,1.49-8.46,1.73-11.83.19-2.74-.49-5.47-.75-8.21s-.05-5.72,1.66-7.88c.72-.91,1.67-1.62,2.34-2.57a11.11,11.11,0,0,0,1.17-2.46q2.43-6.39,4.87-12.79c.51-1.34.59-3.45-.84-3.6a1.93,1.93,0,0,0-1.19.37c-2.27,1.42-3.17,4.27-3.51,6.92s-.31,5.43-1.46,7.85c-1.23,2.61-3.7,4.54-4.62,7.28-.79,2.39-.27,5,.09,7.48A53.88,53.88,0,0,1,350,645s.1,2.56.1,2.82a.74.74,0,0,1-.81-.76q-.44-6.15-.89-12.31a27.29,27.29,0,0,0-1.26-7.59c-.7-1.94-1.84-3.71-2.53-5.66-2.14-6,.3-12.62,2.45-18.65.39-1.11.56-2.72-.55-3.09a1.86,1.86,0,0,0-1.7.5c-1.84,1.51-2.41,4.09-2.37,6.47s.56,4.74.37,7.1c-.16,2.17-.92,4.33-.6,6.48.39,2.75,2.43,5,3.55,7.49,2.24,5,.74,11.13,2.84,16.24l0,2.08a18.11,18.11,0,0,0-.89-2.6c-1.09-2.51-2.74-4.84-3.16-7.54-.39-2.51.3-5.22-.76-7.52-1.38-3-5.11-4.08-7.36-6.51A10.51,10.51,0,0,1,334,614a24.43,24.43,0,0,1,2.45-8.13,5.78,5.78,0,0,0,.76-2.69,1.9,1.9,0,0,0-1.71-1.89c-1.07,0-1.71,1.24-1.72,2.31s.36,2.11.29,3.17a9.89,9.89,0,0,1-.91,2.82c-1.69,4.21-1.41,9.38,1.49,12.86,2.47,3,6.67,4.69,7.79,8.39a23.38,23.38,0,0,1,.47,4.2c.44,4.21,2.89,7.9,5.27,11.41l0,1.85a6.61,6.61,0,0,0-2.86-4c-.77-.46-1.64-.74-2.36-1.27-2.69-2-2-6.07-2.95-9.27a9,9,0,0,0-6.68-6.18c-1.91-.4-3.9-.15-5.82-.46s-4-1.42-4.39-3.33c-.29-1.3.25-2.62.52-3.93s.15-2.92-1-3.63a13.77,13.77,0,0,0-.45,9.26,5.94,5.94,0,0,0,1.27,2.39,7.51,7.51,0,0,0,4.23,1.75,24.91,24.91,0,0,1,7.18,2.07,8.27,8.27,0,0,1,4.55,5.63c.24,1.43,0,2.95.49,4.3,1.19,3.11,5.72,3.66,7.24,6.62a6.76,6.76,0,0,1,.47,3.89c.8.4,1.69.79,2.57,1.21,2-3.71,4.6-8.63,4.6-8.63,1.1-1.42,2.23-2.82,3.36-4.21a10.88,10.88,0,0,1,3-2.86c1.89-1,4.33-.9,6-2.26,1.25-1,1.78-2.63,2.41-4.11a4.74,4.74,0,0,1,1.23-1.89,4.88,4.88,0,0,1,3.53-.66,7.06,7.06,0,0,0,3.63-.2C379,628,379.76,626.52,379,625.55Z" transform="translate(-0.01)"/><path class="cls-39" d="M754.42,625.55c-.35,1.44-2.13,2-3.62,2s-3.09-.3-4.37.46c-1.92,1.15-2,4-3.64,5.54-1.44,1.39-3.68,1.41-5.54,2.16-2.8,1.12-6,5.34-7.87,8.74,1.45-3.68,1.39-7.91,2.86-11.63a3,3,0,0,1,.84-1.3,4.15,4.15,0,0,1,1.67-.57,7.4,7.4,0,0,0,4.78-3.69c1.08-2.05,1.26-4.7,3.09-6.11a7.82,7.82,0,0,1,4.46-1.13,7.61,7.61,0,0,0,4.44-1.17c1.22-1,1.6-3.11.33-4,.36,2.05-2,3.53-4.06,3.81s-4.34,0-6,1.31c-2.62,2-2.17,6.72-5.09,8.26-1.09.57-2.4.54-3.51,1.05-1.75.81-2.64,2.82-3,4.72s-.23,3.89-.76,5.75a27.59,27.59,0,0,1-1.87,4.2,25.45,25.45,0,0,0-1.46,3.78c-.12,0,1.49-8.46,1.73-11.83.19-2.74-.49-5.47-.75-8.21s0-5.72,1.66-7.88c.72-.91,1.67-1.62,2.34-2.57a11.11,11.11,0,0,0,1.17-2.46q2.43-6.39,4.87-12.79c.51-1.34.59-3.45-.84-3.6a2,2,0,0,0-1.2.37c-2.26,1.42-3.16,4.27-3.5,6.92s-.32,5.43-1.46,7.85c-1.23,2.61-3.7,4.54-4.62,7.28-.79,2.39-.27,5,.08,7.48a53.58,53.58,0,0,1-.26,16.72s.1,2.56.1,2.82a.74.74,0,0,1-.81-.76q-.45-6.15-.89-12.31a27.29,27.29,0,0,0-1.26-7.59c-.71-1.94-1.84-3.71-2.53-5.66-2.14-6,.3-12.62,2.45-18.65.39-1.11.56-2.72-.55-3.09a1.88,1.88,0,0,0-1.71.5c-1.83,1.51-2.4,4.09-2.36,6.47s.55,4.74.37,7.1c-.16,2.17-.92,4.33-.6,6.48.39,2.75,2.43,5,3.55,7.49,2.24,5,.74,11.13,2.84,16.24l0,2.08a17,17,0,0,0-.9-2.6c-1.08-2.51-2.73-4.84-3.15-7.54-.39-2.51.3-5.22-.76-7.52-1.38-3-5.11-4.08-7.36-6.51a10.51,10.51,0,0,1-2.41-7.94,24.2,24.2,0,0,1,2.45-8.13,5.78,5.78,0,0,0,.76-2.69,1.9,1.9,0,0,0-1.71-1.89c-1.07,0-1.71,1.24-1.73,2.31s.37,2.11.29,3.17a9.57,9.57,0,0,1-.9,2.82c-1.69,4.21-1.41,9.38,1.49,12.86,2.47,3,6.67,4.69,7.78,8.39a22.52,22.52,0,0,1,.48,4.2c.44,4.21,2.89,7.9,5.27,11.41l0,1.85a6.55,6.55,0,0,0-2.85-4c-.77-.46-1.64-.74-2.36-1.27-2.69-2-2-6.07-2.95-9.27a9,9,0,0,0-6.68-6.18c-1.91-.4-3.9-.15-5.82-.46s-4-1.42-4.39-3.33c-.29-1.3.25-2.62.52-3.93s.15-2.92-1-3.63a13.77,13.77,0,0,0-.45,9.26,6,6,0,0,0,1.26,2.39,7.57,7.57,0,0,0,4.24,1.75,24.91,24.91,0,0,1,7.18,2.07,8.27,8.27,0,0,1,4.55,5.63c.24,1.43,0,2.95.49,4.3,1.19,3.11,5.71,3.66,7.24,6.62a6.76,6.76,0,0,1,.47,3.89c.79.4,1.69.79,2.57,1.21,2-3.71,4.6-8.63,4.6-8.63,1.1-1.42,2.23-2.82,3.36-4.21a10.74,10.74,0,0,1,3-2.86c1.89-1,4.33-.9,6-2.26,1.25-1,1.78-2.63,2.41-4.11a4.74,4.74,0,0,1,1.23-1.89,4.87,4.87,0,0,1,3.53-.66,7.06,7.06,0,0,0,3.63-.2C754.42,628,755.17,626.52,754.42,625.55Z" transform="translate(-0.01)"/><path class="cls-40" d="M646.62,609.49a12.51,12.51,0,0,0-12.51-8.55c-8.2.62-13.28,8.8-18.46,15.2a61.09,61.09,0,0,1-11.87,11.18c1.69-5,2.49-10.36,4.83-15.07,3.24-6.5,9.34-11.54,11.18-18.57,1.23-4.69.38-9.65-.48-14.42-1.27-7.08-3.94-15.64-11-16.93a6.87,6.87,0,0,0-4.87.8c-3.81,2.41-3.25,8-2.7,12.48,1.68,13.81-1.35,27.9-6.81,40.7-4.54,10.66-10.72,20.52-17.4,30l-1.79,1.33c9.88-26.8,15.14-55.09,20.35-83.2.76-4.13,1.52-8.49.18-12.48A13,13,0,0,0,580,543.9a4.52,4.52,0,0,0-2.22,1.23c-1,1.21-.84,3-.59,4.58,2.69,16.67,4.2,33.77,1.3,50.4-1.23,7.08-3.25,14-4.45,21.1a134.15,134.15,0,0,0-1.62,17.69c-.07-.41-.15-.82-.23-1.22a156.4,156.4,0,0,0-3.78-44.2c-2.08-9-4.92-18.49-1.66-27.08,2.18-5.73,6.95-12,3.76-17.2-2.76-4.51-10.07-4-13.75-.21s-4.5,9.5-4.53,14.79c-.09,17,6.07,33.14,10.8,49.55a138.79,138.79,0,0,0-16.78-23.88c-4.57-5.31-9.74-11.34-8.94-18.3.59-5.07,4.24-10.65,1.17-14.74a7.62,7.62,0,0,0-5.81-2.67c-8.81-.39-15.31,9.49-14.53,18.27s6.59,16.23,12.62,22.66c7.71,8.25,16.18,15.8,23.42,24.46a90,90,0,0,1,6.63,9c-9.34-11.38-22.08-20.52-35.14-27.58-6.68-3.62-14-7.28-17.54-14-1.79-3.4-3.18-8-7-8.54a7.39,7.39,0,0,0-3.83.69,13.2,13.2,0,0,0-7,6c-1.4,2.84-1.23,6.56.92,8.87,1.61,1.74,4,2.46,6.2,3.33a36,36,0,0,1,15,11.28c4.66,6,7.61,13.7,14.05,17.76,5.76,3.63,13.11,3.53,19.42,6.11,10.07,4.12,16.06,14.3,21.33,23.81l2.64-.57.1.92-.33.54c.1-.16.23-.29.34-.44l0,.19c0-.09,0-.19,0-.28.28-.4.57-.78.88-1.15l3.19-.69c-.11-.51-.24-1-.37-1.52,15.7-2.89,29.83-12.55,41.77-23.46,6.44-5.88,13.28-12.58,22-13.18,3.57-.25,8.33-.14,9.34-3.57A5.58,5.58,0,0,0,646.62,609.49ZM570,656c.05-.27.09-.54.14-.81l.4-.09Z" transform="translate(-0.01)"/><path class="cls-39" d="M869.21,578.71c-1.39-8-6.15-13.76-10.88-13.13-7.14.95-11.56,13.51-16.07,23.34a85,85,0,0,1-10.33,17.17c1.46-7.62,2.16-15.9,4.2-23.14,2.82-10,8.13-17.73,9.74-28.53,1.06-7.2.32-14.8-.42-22.13-1.11-10.87-3.44-24-9.59-26a3.87,3.87,0,0,0-4.24,1.22c-3.32,3.71-2.83,12.29-2.35,19.16,1.46,21.22-1.18,42.86-5.93,62.52a338,338,0,0,1-15.14,46.08l-1.56,2c8.6-41.15,13.18-84.6,17.71-127.77.67-6.35,1.32-13,.16-19.17-1.75-9.27-8-15.07-13.31-12.38a4,4,0,0,0-1.93,1.88c-.91,1.85-.73,4.62-.51,7,2.33,25.6,3.65,51.86,1.13,77.41-1.07,10.87-2.83,21.51-3.88,32.39-.86,9-1.22,18.06-1.4,27.17-.07-.62-.13-1.25-.2-1.87a421,421,0,0,0-3.29-67.88c-1.81-13.75-4.29-28.39-1.45-41.59,1.9-8.8,6.05-18.38,3.27-26.41-2.4-6.93-8.77-6.17-12-.33s-3.92,14.6-3.94,22.72c-.07,26.07,5.28,50.89,9.4,76.09a256.12,256.12,0,0,0-14.61-36.67c-4-8.15-8.48-17.42-7.78-28.1.52-7.79,3.69-16.37,1-22.64-1.15-2.7-3.14-3.95-5.06-4.1-7.66-.6-13.32,14.57-12.64,28.05s5.74,24.93,11,34.81c6.71,12.67,14.08,24.26,20.39,37.56,2.06,4.36,4,9,5.77,13.74a140.93,140.93,0,0,0-30.58-42.35c-5.83-5.55-12.19-11.18-15.27-21.51-1.56-5.23-2.77-12.27-6.08-13.12a4.15,4.15,0,0,0-3.33,1.05,16.87,16.87,0,0,0-6.13,9.28c-1.22,4.35-1.07,10.06.8,13.62,1.4,2.66,3.48,3.76,5.4,5.1,5.12,3.6,9.69,9.65,13.07,17.33,4.07,9.23,6.63,21,12.24,27.27,5,5.59,11.41,5.43,16.9,9.4,8.76,6.32,14,21.95,18.57,36.56l2.29-.87.09,1.4-.29.83c.09-.24.2-.44.3-.68v.3c0-.14,0-.29,0-.43.25-.61.5-1.2.77-1.77l2.78-1.06c-.1-.78-.22-1.55-.33-2.33,13.67-4.44,26-19.28,36.36-36,5.6-9,11.56-19.33,19.13-20.25,3.11-.38,7.25-.21,8.13-5.48A14.6,14.6,0,0,0,869.21,578.71Z" transform="translate(-0.01)"/><text class="cls-41" transform="translate(153.58 488.29)">Co<tspan class="cls-42" x="51.82" y="0">r</tspan><tspan x="68.52" y="0">als</tspan></text><text x="-0.01"></text><text x="-0.01"></text><polyline class="cls-43" points="485.89 570.03 433.14 495.72 158.57 497.03"/><text class="cls-41" transform="translate(67.91 408.51)"><tspan class="cls-44">W</tspan><tspan x="39.32" y="0">a</tspan><tspan class="cls-45" x="64.9" y="0">t</tspan><tspan x="80.52" y="0">er</tspan></text><polyline class="cls-43" points="379.77 387.38 307.99 414.48 67.91 414.48"/><text class="cls-41" transform="translate(75.94 696.37)">Sediment</text><polyline class="cls-43" points="379.77 725.59 306.46 702.34 75.94 702.34"/><path class="cls-40" d="M973.93,661.65a21,21,0,0,1-7.38-1.7c-3.47-1.36-3.4-6.32-3.36-9.6.06-4.94-.15-6.73-2.82-7.36-7.35-1.75-19.18-7.21-22.09-8.57-2.43.93-10.87,4-17.56,4a12,12,0,0,1-6.36-1.45c-15.29-9.3-16.79-13.9-16.14-17.49.62-3.37,3.74-3.37,4.77-3.37a52.57,52.57,0,0,1,9.26,1.42c2.14.45,4.33.9,6,1.11L917,616.86c-2.79-4-5.95-8.46-5.85-12.87a7.37,7.37,0,0,1,1.53-4.47,5.17,5.17,0,0,1,4.09-2.13c4.17,0,9.74,5.21,17,15.92,3.13,4.58,6.25,6.25,7.58,6.25h.07c-.46-2-4.15-7.69-8.1-12.25a3.62,3.62,0,0,1-.7-2.86,2.72,2.72,0,0,1,1.52-2.19,23.62,23.62,0,0,1,7.26-1.33c6.1,0,8.35,3.55,9.17,6.53l.17.62c1.86,6.82,1.94,7.09,8,13.68,1.53,1.66,3.15,2.57,4.57,2.57a2.27,2.27,0,0,0,2.21-1.46c.72-1.77.21-4.94-1.38-8.48l-.69-1.51c-5.06-11.31-12-26.79-19.52-26.79h-.3c-1.42.08-3,.2-4.79.33-3.68.28-7.86.59-11.82.59-8.54,0-13.27-1.51-15.33-4.89a7.88,7.88,0,0,1-1-6.77c1.48-4.32,6.46-4.79,8.53-4.79a16.2,16.2,0,0,1,5.69,1,14.3,14.3,0,0,0,5,.9,7,7,0,0,0,4.13-1,5.91,5.91,0,0,0-.81-1.29c-6.29-8-8.16-22.92-6.29-32.11.78-3.86,3-6.16,5.84-6.16,5.27,0,11.15,7.65,11.15,18.61v1.93c0,12.57.07,12.83,5,14.19,8,2.2,11.64,6,16,17a104.69,104.69,0,0,1,3.26,10c1.08,3.78,2.42,8.49,3.49,8.49a1.62,1.62,0,0,0,.79-.31c2.05-1.32,4.58-7,5.06-13.34.25-3.31.11-9.44-3.66-13.31-1.22-1.25-2.5-2.53-3.82-3.84-8.15-8.13-17.39-17.34-20-28.22A86.28,86.28,0,0,1,948,519.67a3.06,3.06,0,0,1,.07-.54c.77-3.66,2.75-5.94,5.19-5.94,3.11,0,6.52,3.91,6.81,10.45.29,6.25,6.39,16.09,10.49,19.79.12-1.47.13-3.67.14-5.43.05-6.09.11-13.66,2.48-19.08,2.15-4.91,5.13-7.72,8.18-7.72a5.07,5.07,0,0,1,4.36,2.75,9.92,9.92,0,0,1,1,6.64c-.26,1.54-.66,3.45-1.13,5.66-1.48,6.94-3.5,16.45-2.75,22.91.27,2.37.41,4.45.53,6.28a26.11,26.11,0,0,0,.57,5H984a3.05,3.05,0,0,0,.56-.07c.83-.19,1.85-3.83,2.4-5.79,1-3.53,2-7.19,4.61-7.19a3.45,3.45,0,0,1,2.59,1.52c1.91,2.35,3,6.17,3,10.74,0,5.83-1.66,11.57-4.39,15-1.93,2.42-1.72,5.9-1.17,11.83A73.75,73.75,0,0,1,992,596c-.4,10.33-1.47,13.33-7.14,20a16.3,16.3,0,0,0-3.78,8.16,3.35,3.35,0,0,0,.82-.39c.67-.4,1.4-.81,2.17-1.24,5.66-3.17,12.72-7.12,14.37-18.08.37-2.42.7-4.89,1-7.34,1.82-13.46,3.39-25.08,9.46-25.64,2.34-.21,4.31,1.38,5.56,4.4,2.22,5.36,1.88,15-.75,20.94-1.26,2.88-4.88,11.14-5.26,14.39a27.55,27.55,0,0,0,4.09-1,26.24,26.24,0,0,1,7-1.47,4.8,4.8,0,0,1,5,3.32l.36,1c.95,2.55,1.69,4.56,1.15,6.8a7.53,7.53,0,0,1-3.53,4.4c-1.21.83-2.83,1.18-5.42,1.18-1.14,0-2.37-.07-3.62-.14s-2.49-.14-3.68-.14c-3.52,0-4.62.7-4.95,1.11-.61.73-1.27,1.63-2,2.6-3.28,4.38-7.76,10.38-13.27,11.71l-1,.25c-6,1.42-6.81,2-6.81,4.66,0,.64,0,1.35.07,2.1.15,3.36.35,8-1.81,11.11A6.9,6.9,0,0,1,973.93,661.65Z" transform="translate(-0.01)"/></g></g></svg>